SplineFontDB: 3.0
FontName: AutourOne-Regular
FullName: Autour One Regular
FamilyName: Autour One
Weight: Regular
Copyright: Copyright (c) 2012, Sorkin Type Co (www.sorkintype.com) with Reserved Font Names "Autour" and "Autour One"
Version: 1.002
ItalicAngle: 0
UnderlinePosition: 32162
UnderlineWidth: 25202
Ascent: 1638
Descent: 410
LayerCount: 2
Layer: 0 1 "Back"  1
Layer: 1 1 "Fore"  0
XUID: [1021 631 1661839179 13739634]
FSType: 0
OS2Version: 3
OS2_WeightWidthSlopeOnly: 0
OS2_UseTypoMetrics: 1
CreationTime: 1333545240
ModificationTime: 1337002939
PfmFamily: 17
TTFWeight: 400
TTFWidth: 5
LineGap: 0
VLineGap: 0
Panose: 2 1 5 3 3 2 0 6 4 4
OS2TypoAscent: 382
OS2TypoAOffset: 1
OS2TypoDescent: -130
OS2TypoDOffset: 1
OS2TypoLinegap: 0
OS2WinAscent: 0
OS2WinAOffset: 1
OS2WinDescent: 0
OS2WinDOffset: 1
HheadAscent: 0
HheadAOffset: 1
HheadDescent: 0
HheadDOffset: 1
OS2SubXSize: 1434
OS2SubYSize: 1331
OS2SubXOff: 0
OS2SubYOff: 287
OS2SupXSize: 1434
OS2SupYSize: 1331
OS2SupXOff: 0
OS2SupYOff: 977
OS2StrikeYSize: 102
OS2StrikeYPos: 512
OS2Vendor: 'STC '
OS2CodePages: 20000093.00000000
OS2UnicodeRanges: a00000af.4000204a.00000000.00000000
MarkAttachClasses: 1
DEI: 91125
TtTable: prep
PUSHW_2
 2048
 2048
MUL
DUP
PUSHB_1
 1
SWAP
WCVTP
DUP
PUSHB_1
 3
SWAP
WCVTF
PUSHB_1
 21
RCVT
DUP
DUP
PUSHB_1
 40
ADD
FLOOR
DUP
ROLL
NEQ
IF
PUSHB_1
 2
CINDEX
SUB
PUSHB_1
 1
RCVT
MUL
SWAP
DIV
PUSHB_1
 2
SWAP
WCVTP
PUSHB_4
 10
 11
 3
 2
CALL
PUSHB_4
 12
 17
 3
 2
CALL
PUSHB_4
 18
 23
 3
 2
CALL
EIF
PUSHB_3
 4
 40
 7
RCVT
GT
WCVTP
PUSHB_4
 12
 17
 4
 2
CALL
PUSHW_1
 511
SCANCTRL
PUSHB_1
 4
SCANTYPE
PUSHB_2
 5
 0
WCVTP
EndTTInstrs
TtTable: fpgm
PUSHB_1
 0
FDEF
DUP
ABS
PUSHB_1
 32
ADD
FLOOR
SWAP
PUSHB_1
 0
LT
IF
NEG
EIF
ENDF
PUSHB_1
 1
FDEF
DUP
ABS
DUP
PUSHB_1
 192
LT
PUSHB_1
 4
MINDEX
AND
PUSHB_1
 4
RCVT
OR
IF
POP
SWAP
POP
ELSE
ROLL
IF
DUP
PUSHB_1
 80
LT
IF
POP
PUSHB_1
 64
EIF
ELSE
DUP
PUSHB_1
 56
LT
IF
POP
PUSHB_1
 56
EIF
EIF
DUP
PUSHB_1
 10
RCVT
SUB
ABS
PUSHB_1
 40
LT
IF
POP
PUSHB_1
 10
RCVT
DUP

StartChar: exclam
Encoding: 33 33 23
Width: 599
GlyphClass: 2
Flags: W
LayerCount: 2
Fore
SplineSet
401 505 m 1,0,1
 401 434 401 434 309 434 c 0,2,3
 251 434 251 434 226 476 c 0,4,5
 217 490 217 490 217 508.5 c 128,-1,6
 217 527 217 527 218 550 c 2,7,-1
 220 594 l 2,8,9
 221 616 221 616 222 634.5 c 128,-1,10
 223 653 223 653 223 685 c 128,-1,11
 223 717 223 717 222.5 789 c 128,-1,12
 222 861 222 861 221 940 c 2,13,-1
 217 1264 l 2,14,15
 215 1418 215 1418 215 1523 c 1,16,-1
 209 1703 l 1,17,18
 209 1734 209 1734 232.5 1758 c 128,-1,19
 256 1782 256 1782 293 1782 c 128,-1,20
 330 1782 330 1782 347 1777.5 c 128,-1,21
 364 1773 364 1773 377 1763 c 0,22,23
 406 1741 406 1741 406 1698 c 1,24,-1
 396 1499 l 1,25,-1
 396 1394 l 2,26,27
 396 1331 396 1331 396 1256 c 2,28,-1
 394 938 l 2,29,30
 393 858 393 858 393 786 c 2,31,-1
 393 657 l 1,32,-1
 401 505 l 1,0,1
400 172 m 1,33,-1
 399 149 l 1,34,35
 385 -29 385 -29 291 -29 c 0,36,37
 247 -29 247 -29 222 4 c 0,38,39
 204 29 204 29 204 57.5 c 128,-1,40
 204 86 204 86 211 138 c 1,41,42
 225 228 225 228 264 246 c 0,43,44
 279 254 279 254 294.5 254 c 128,-1,45
 310 254 310 254 331.5 252 c 128,-1,46
 353 250 353 250 370 236 c 0,47,48
 400 210 400 210 400 172 c 1,33,-1
EndSplineSet
EndChar

StartChar: quotedbl
Encoding: 34 34 24
Width: 854
GlyphClass: 2
Flags: W
LayerCount: 2
Fore
SplineSet
317 1375 m 1,0,1
 317 1304 317 1304 228 1304 c 0,2,3
 170 1304 170 1304 146 1346 c 0,4,5
 138 1360 138 1360 138 1378.5 c 128,-1,6
 138 1397 138 1397 139 1420 c 2,7,-1
 141 1464 l 2,8,9
 142 1486 142 1486 143 1504.5 c 128,-1,10
 144 1523 144 1523 144 1562 c 128,-1,11
 144 1601 144 1601 136 1666.5 c 128,-1,12
 128 1732 128 1732 128 1783 c 128,-1,13
 128 1834 128 1834 151.5 1858 c 128,-1,14
 175 1882 175 1882 212 1882 c 128,-1,15
 249 1882 249 1882 266 1877.5 c 128,-1,16
 283 1873 283 1873 296 1863 c 0,17,18
 325 1841 325 1841 325 1785.5 c 128,-1,19
 325 1730 325 1730 317 1664.5 c 128,-1,20
 309 1599 309 1599 309 1527 c 1,21,-1
 317 1375 l 1,0,1
701 1375 m 1,22,23
 701 1304 701 1304 612 1304 c 0,24,25
 554 1304 554 1304 530 1346 c 0,26,27
 522 1360 522 1360 522 1378.5 c 128,-1,28
 522 1397 522 1397 523 1420 c 2,29,-1
 525 1464 l 2,30,31
 526 1486 526 1486 527 1504.5 c 128,-1,32
 528 1523 528 1523 528 1562 c 128,-1,33
 528 1601 528 1601 520 1666.5 c 128,-1,34
 512 1732 512 1732 512 1783 c 128,-1,35
 512 1834 512 1834 535.5 1858 c 128,-1,36
 559 1882 559 1882 596 1882 c 128,-1,37
 633 1882 633 1882 650 1877.5 c 128,-1,38
 667 1873 667 1873 680 1863 c 0,39,40
 709 1841 709 1841 709 1785.5 c 128,-1,41
 709 1730 709 1730 701 1664.5 c 128,-1,42
 693 1599 693 1599 693 1527 c 1,43,-1
 701 1375 l 1,22,23
EndSplineSet
EndChar

StartChar: numbersign
Encoding: 35 35 25
Width: 1539
GlyphClass: 2
Flags: W
LayerCount: 2
Fore
SplineSet
342 -30 m 0,0,1
 244 -30 244 -30 240 42 c 1,2,3
 240 65 240 65 252 89 c 2,4,-1
 270 126 l 2,5,6
 276 140 276 140 280 153 c 2,7,-1
 323 329 l 1,8,-1
 249 329 l 2,9,10
 214 329 214 329 191 330 c 1,11,12
 116 330 116 330 116 433 c 0,13,14
 116 491 116 491 189 497 c 0,15,16
 216 499 216 499 366 501 c 1,17,-1
 451 845 l 1,18,-1
 299 847 l 2,19,20
 224 847 224 847 224 951 c 0,21,22
 224 1009 224 1009 290 1015 c 0,23,24
 312 1017 312 1017 341 1017 c 2,25,-1
 422 1016 l 1,26,-1
 492 1016 l 1,27,-1
 555 1273 l 2,28,29
 562 1302 562 1302 563.5 1309.5 c 128,-1,30
 565 1317 565 1317 567.5 1330 c 128,-1,31
 570 1343 570 1343 577.5 1369 c 128,-1,32
 585 1395 585 1395 596 1416 c 0,33,34
 622 1467 622 1467 660 1467 c 0,35,36
 750 1467 750 1467 750 1398 c 0,37,38
 750 1365 750 1365 732 1314 c 128,-1,39
 714 1263 714 1263 711 1257 c 1,40,-1
 652 1016 l 1,41,-1
 944 1019 l 1,42,-1
 1006 1273 l 2,43,44
 1013 1302 1013 1302 1014.5 1309.5 c 128,-1,45
 1016 1317 1016 1317 1018.5 1330 c 128,-1,46
 1021 1343 1021 1343 1028.5 1369 c 128,-1,47
 1036 1395 1036 1395 1047 1416 c 0,48,49
 1073 1467 1073 1467 1111 1467 c 0,50,51
 1201 1467 1201 1467 1201 1398 c 0,52,53
 1201 1365 1201 1365 1183 1314 c 128,-1,54
 1165 1263 1165 1263 1162 1257 c 1,55,-1
 1104 1020 l 1,56,-1
 1236 1020 l 1,57,-1
 1309 1032 l 1,58,59
 1358 1032 1358 1032 1380 985 c 0,60,61
 1389 967 1389 967 1389 931.5 c 128,-1,62
 1389 896 1389 896 1369.5 870.5 c 128,-1,63
 1350 845 1350 845 1316 845 c 0,64,65
 1248 845 1248 845 1060 843 c 1,66,-1
 976 503 l 1,67,-1
 1128 503 l 1,68,-1
 1202 516 l 1,69,70
 1249 516 1249 516 1272 468 c 0,71,72
 1281 451 1281 451 1281 415.5 c 128,-1,73
 1281 380 1281 380 1261.5 354.5 c 128,-1,74
 1242 329 1242 329 1208 329 c 2,75,-1
 933 329 l 1,76,-1
 867 60 l 1,77,-1
 868 61 l 1,78,79
 852 -4 852 -4 833 -17 c 128,-1,80
 814 -30 814 -30 793 -30 c 0,81,82
 696 -30 696 -30 691 42 c 1,83,84
 691 65 691 65 702 89 c 2,85,-1
 720 126 l 2,86,87
 727 140 727 140 731 153 c 2,88,-1
 774 329 l 1,89,-1
 482 329 l 1,90,-1
 416 60 l 1,91,-1
 417 61 l 1,92,93
 401 -4 401 -4 382 -17 c 128,-1,94
 363 -30 363 -30 342 -30 c 0,0,1
769 843 m 2,95,-1
 609 844 l 1,96,-1
 525 502 l 1,97,-1
 817 503 l 1,98,-1
 901 843 l 1,99,100
 835 843 835 843 769 843 c 2,95,-1
EndSplineSet
EndChar

StartChar: dollar
Encoding: 36 36 26
Width: 1292
GlyphClass: 2
Flags: W
LayerCount: 2
Fore
SplineSet
780 1606 m 1,0,-1
 779 1525 l 1,1,2
 916 1511 916 1511 1019 1448 c 0,3,4
 1143 1372 1143 1372 1143 1252 c 0,5,6
 1143 1209 1143 1209 1117.5 1186.5 c 128,-1,7
 1092 1164 1092 1164 1061 1164 c 128,-1,8
 1030 1164 1030 1164 1012.5 1174.5 c 128,-1,9
 995 1185 995 1185 984.5 1199.5 c 128,-1,10
 974 1214 974 1214 969 1228.5 c 128,-1,11
 964 1243 964 1243 953 1266 c 128,-1,12
 942 1289 942 1289 914 1311 c 128,-1,13
 886 1333 886 1333 852 1344 c 0,14,15
 796 1363 796 1363 731 1363 c 128,-1,16
 666 1363 666 1363 619 1354 c 128,-1,17
 572 1345 572 1345 531 1324 c 0,18,19
 435 1273 435 1273 435 1179 c 0,20,21
 435 1024 435 1024 614 934 c 1,22,-1
 613 935 l 1,23,24
 671 905 671 905 735 877 c 128,-1,25
 799 849 799 849 861.5 816.5 c 128,-1,26
 924 784 924 784 981.5 745 c 128,-1,27
 1039 706 1039 706 1082 656 c 0,28,29
 1178 545 1178 545 1178 393 c 0,30,31
 1178 214 1178 214 1050 98 c 0,32,33
 933 -7 933 -7 759 -31 c 1,34,-1
 759 -182 l 2,35,36
 759 -271 759 -271 718 -293 c 0,37,38
 702 -302 702 -302 670 -302 c 0,39,40
 594 -302 594 -302 594 -240 c 2,41,-1
 594 -81 l 2,42,43
 594 -53 594 -53 595 -33 c 1,44,45
 426 -16 426 -16 314 68 c 0,46,47
 190 162 190 162 190 314 c 0,48,49
 190 425 190 425 202 466 c 0,50,51
 228 550 228 550 303 550 c 0,52,53
 338 550 338 550 362.5 529 c 128,-1,54
 387 508 387 508 387 480.5 c 128,-1,55
 387 453 387 453 384 434 c 2,56,-1
 370 357 l 2,57,58
 366 337 366 337 366 300 c 128,-1,59
 366 263 366 263 394.5 227.5 c 128,-1,60
 423 192 423 192 468 170 c 0,61,62
 553 130 553 130 644 130 c 128,-1,63
 735 130 735 130 793.5 144 c 128,-1,64
 852 158 852 158 898 189 c 0,65,66
 1002 258 1002 258 1002 392 c 0,67,68
 1002 538 1002 538 888 621 c 0,69,70
 853 646 853 646 813 669 c 1,71,-1
 814 668 l 1,72,73
 762 693 762 693 700.5 719.5 c 128,-1,74
 639 746 639 746 577.5 778 c 128,-1,75
 516 810 516 810 458.5 848.5 c 128,-1,76
 401 887 401 887 356 936 c 0,77,78
 259 1043 259 1043 259 1186 c 0,79,80
 259 1321 259 1321 368 1414 c 0,81,82
 465 1496 465 1496 615 1520 c 1,83,-1
 615 1631 l 2,84,85
 615 1720 615 1720 656 1742 c 0,86,87
 672 1751 672 1751 704 1751 c 0,88,89
 780 1751 780 1751 780 1689 c 2,90,-1
 780 1606 l 1,0,-1
EndSplineSet
EndChar

StartChar: percent
Encoding: 37 37 27
Width: 2383
GlyphClass: 2
Flags: W
LayerCount: 2
Fore
SplineSet
815.5 27 m 128,-1,1
 810 43 810 43 810 58.5 c 128,-1,2
 810 74 810 74 816 87 c 128,-1,3
 822 100 822 100 829.5 112 c 128,-1,4
 837 124 837 124 844.5 134.5 c 128,-1,5
 852 145 852 145 855 154 c 2,6,-1
 1345 1394 l 1,7,-1
 1345 1392 l 1,8,-1
 1354 1426 l 2,9,10
 1383 1532 1383 1532 1417 1560 c 0,11,12
 1434 1573 1434 1573 1454 1573 c 128,-1,13
 1474 1573 1474 1573 1489 1568 c 128,-1,14
 1504 1563 1504 1563 1516 1554 c 0,15,16
 1542 1532 1542 1532 1542 1508 c 128,-1,17
 1542 1484 1542 1484 1539 1469.5 c 128,-1,18
 1536 1455 1536 1455 1532 1441 c 0,19,20
 1520 1407 1520 1407 1514 1397 c 1,21,-1
 992 79 l 2,22,23
 985 62 985 62 980.5 43 c 128,-1,24
 976 24 976 24 968 8 c 0,25,26
 950 -30 950 -30 916.5 -30 c 128,-1,27
 883 -30 883 -30 864 -22 c 128,-1,28
 845 -14 845 -14 833 -1.5 c 128,-1,0
 821 11 821 11 815.5 27 c 128,-1,1
418 1486.5 m 128,-1,30
 487 1520 487 1520 548 1520 c 128,-1,31
 609 1520 609 1520 629 1498 c 1,32,33
 645 1516 645 1516 700 1507.5 c 128,-1,34
 755 1499 755 1499 814.5 1463.5 c 128,-1,35
 874 1428 874 1428 915 1376 c 0,36,37
 999 1269 999 1269 999 1126 c 0,38,39
 999 956 999 956 908 846 c 0,40,41
 806 722 806 722 623 722 c 0,42,43
 431 722 431 722 316 824 c 0,44,45
 196 930 196 930 196 1118 c 0,46,47
 196 1280 196 1280 300 1397 c 0,48,29
 349 1453 349 1453 418 1486.5 c 128,-1,30
616 874 m 0,49,50
 730 874 730 874 786 954 c 0,51,52
 833 1020 833 1020 833 1112 c 0,53,54
 833 1304 833 1304 676 1361 c 1,55,56
 639 1361 639 1361 616 1381 c 1,57,58
 589 1371 589 1371 549 1365.5 c 128,-1,59
 509 1360 509 1360 473 1337.5 c 128,-1,60
 437 1315 437 1315 412 1282 c 0,61,62
 363 1215 363 1215 363 1120 c 0,63,64
 363 874 363 874 616 874 c 0,49,50
1747 803 m 0,65,66
 1846 803 1846 803 1877 758 c 1,67,68
 1888 763 1888 763 1899 763 c 128,-1,69
 1910 763 1910 763 1922 761 c 1,70,71
 2096 692 2096 692 2150 520 c 0,72,73
 2166 466 2166 466 2166 398.5 c 128,-1,74
 2166 331 2166 331 2138 256 c 128,-1,75
 2110 181 2110 181 2060 122 c 0,76,77
 1948 -7 1948 -7 1783 -7 c 0,78,79
 1615 -7 1615 -7 1485 96 c 0,80,81
 1342 208 1342 208 1342 379 c 0,82,83
 1342 541 1342 541 1451 668 c 0,84,85
 1567 803 1567 803 1747 803 c 0,65,66
1806 646 m 2,86,-1
 1755 649 l 1,87,88
 1648 649 1648 649 1578 568 c 0,89,90
 1509 488 1509 488 1509 369 c 0,91,92
 1509 269 1509 269 1590 206 c 0,93,94
 1666 147 1666 147 1770 147 c 0,95,96
 1872 147 1872 147 1940 236 c 0,97,98
 2001 317 2001 317 2001 396 c 0,99,100
 2001 540 2001 540 1885 617 c 1,101,102
 1847 626 1847 626 1831 648 c 1,103,104
 1817 646 1817 646 1806 646 c 2,86,-1
EndSplineSet
EndChar

StartChar: ampersand
Encoding: 38 38 28
Width: 2047
GlyphClass: 2
Flags: W
LayerCount: 2
Fore
SplineSet
1262 108 m 1,0,1
 1069 -37 1069 -37 820 -37 c 0,2,3
 590 -37 590 -37 454 72 c 1,4,5
 319 182 319 182 319 365 c 0,6,7
 319 551 319 551 521 700 c 0,8,9
 579 742 579 742 641 782 c 1,10,11
 553 892 553 892 522 953 c 0,12,13
 462 1072 462 1072 462 1168 c 128,-1,14
 462 1264 462 1264 497.5 1333.5 c 128,-1,15
 533 1403 533 1403 591 1451 c 0,16,17
 711 1550 711 1550 867 1550 c 0,18,19
 1017 1550 1017 1550 1120 1464 c 1,20,21
 1238 1367 1238 1367 1238 1196 c 0,22,23
 1238 993 1238 993 1010 838 c 0,24,25
 1003 833 1003 833 863 744 c 1,26,27
 863 744 863 744 954 627 c 1,28,29
 1128 409 1128 409 1267 296 c 1,30,31
 1443 405 1443 405 1492 624 c 0,32,33
 1506 689 1506 689 1506 729.5 c 128,-1,34
 1506 770 1506 770 1496 779 c 2,35,-1
 1474 798 l 2,36,37
 1443 825 1443 825 1443 871 c 0,38,39
 1443 924 1443 924 1492 949 c 0,40,41
 1510 958 1510 958 1543 958 c 128,-1,42
 1576 958 1576 958 1601.5 939.5 c 128,-1,43
 1627 921 1627 921 1642 892 c 0,44,45
 1667 842 1667 842 1667 764 c 128,-1,46
 1667 686 1667 686 1649 605.5 c 128,-1,47
 1631 525 1631 525 1597 450 c 0,48,49
 1525 291 1525 291 1400 197 c 1,50,-1
 1447 164 l 2,51,52
 1517 114 1517 114 1581 101 c 0,53,54
 1690 78 1690 78 1690 16 c 0,55,56
 1690 -38 1690 -38 1635 -69 c 0,57,58
 1617 -79 1617 -79 1594 -79 c 1,59,60
 1501 -67 1501 -67 1418 -10 c 1,61,62
 1382 16 1382 16 1345 46.5 c 128,-1,63
 1308 77 1308 77 1263 108 c 1,64,-1
 1262 108 l 1,0,1
773 868 m 1,65,66
 918 950 918 950 971 1000 c 0,67,68
 1072 1097 1072 1097 1072 1190 c 0,69,70
 1072 1295 1072 1295 1010 1352 c 1,71,72
 955 1404 955 1404 862 1404 c 0,73,74
 772 1404 772 1404 706 1346 c 1,75,76
 635 1282 635 1282 635 1167 c 0,77,78
 635 1040 635 1040 773 868 c 1,65,66
515 451 m 128,-1,80
 495 410 495 410 495 348.5 c 128,-1,81
 495 287 495 287 528 239.5 c 128,-1,82
 561 192 561 192 612 164 c 0,83,84
 702 115 702 115 834 115 c 0,85,86
 1000 115 1000 115 1130 213 c 1,87,88
 1082 256 1082 256 1034 306 c 1,89,90
 909 443 909 443 859 505 c 2,91,-1
 770 615 l 1,92,-1
 771 615 l 1,93,-1
 735 658 l 1,94,95
 617 580 617 580 576 536 c 128,-1,79
 535 492 535 492 515 451 c 128,-1,80
EndSplineSet
EndChar

StartChar: quotesingle
Encoding: 39 39 29
Width: 520
GlyphClass: 2
Flags: W
LayerCount: 2
Fore
SplineSet
336 1375 m 1,0,1
 336 1304 336 1304 247 1304 c 0,2,3
 189 1304 189 1304 165 1346 c 0,4,5
 157 1360 157 1360 157 1378.5 c 128,-1,6
 157 1397 157 1397 158 1420 c 2,7,-1
 160 1464 l 2,8,9
 161 1486 161 1486 162 1504.5 c 128,-1,10
 163 1523 163 1523 163 1562 c 128,-1,11
 163 1601 163 1601 155 1666.5 c 128,-1,12
 147 1732 147 1732 147 1783 c 128,-1,13
 147 1834 147 1834 170.5 1858 c 128,-1,14
 194 1882 194 1882 231 1882 c 128,-1,15
 268 1882 268 1882 285 1877.5 c 128,-1,16
 302 1873 302 1873 315 1863 c 0,17,18
 344 1841 344 1841 344 1785.5 c 128,-1,19
 344 1730 344 1730 336 1664.5 c 128,-1,20
 328 1599 328 1599 328 1527 c 1,21,-1
 336 1375 l 1,0,1
EndSplineSet
EndChar

StartChar: parenleft
Encoding: 40 40 30
Width: 1024
GlyphClass: 2
Flags: W
LayerCount: 2
Fore
SplineSet
871 -237 m 0,0,1
 871 -313 871 -313 791 -313 c 0,2,3
 745 -313 745 -313 650 -266.5 c 128,-1,4
 555 -220 555 -220 469.5 -144 c 128,-1,5
 384 -68 384 -68 324 19 c 128,-1,6
 264 106 264 106 226.5 201 c 128,-1,7
 189 296 189 296 168 390 c 0,8,9
 131 551 131 551 131 716 c 128,-1,10
 131 881 131 881 153 1000.5 c 128,-1,11
 175 1120 175 1120 213 1223 c 128,-1,12
 251 1326 251 1326 302 1411.5 c 128,-1,13
 353 1497 353 1497 411 1565 c 0,14,15
 603 1790 603 1790 792 1817 c 0,16,17
 805 1819 805 1819 825 1819 c 128,-1,18
 845 1819 845 1819 870 1806 c 0,19,20
 899 1792 899 1792 899 1759 c 128,-1,21
 899 1726 899 1726 881.5 1707 c 128,-1,22
 864 1688 864 1688 822.5 1672.5 c 128,-1,23
 781 1657 781 1657 726.5 1627.5 c 128,-1,24
 672 1598 672 1598 614.5 1549 c 128,-1,25
 557 1500 557 1500 501 1428.5 c 128,-1,26
 445 1357 445 1357 401 1258 c 0,27,28
 303 1039 303 1039 303 742 c 0,29,30
 303 242 303 242 560 -14 c 0,31,32
 644 -99 644 -99 739 -144 c 1,33,34
 853 -165 853 -165 867 -210 c 0,35,36
 871 -224 871 -224 871 -237 c 0,0,1
EndSplineSet
EndChar

StartChar: parenright
Encoding: 41 41 31
Width: 1024
GlyphClass: 2
Flags: W
LayerCount: 2
Fore
SplineSet
163 -237 m 0,0,1
 163 -313 163 -313 243 -313 c 0,2,3
 289 -313 289 -313 384 -266.5 c 128,-1,4
 479 -220 479 -220 564.5 -144 c 128,-1,5
 650 -68 650 -68 710 19 c 128,-1,6
 770 106 770 106 807.5 201 c 128,-1,7
 845 296 845 296 866 390 c 0,8,9
 903 551 903 551 903 716 c 128,-1,10
 903 881 903 881 881 1000.5 c 128,-1,11
 859 1120 859 1120 821 1223 c 128,-1,12
 783 1326 783 1326 732 1411.5 c 128,-1,13
 681 1497 681 1497 623 1565 c 0,14,15
 431 1790 431 1790 242 1817 c 0,16,17
 229 1819 229 1819 209 1819 c 128,-1,18
 189 1819 189 1819 164 1806 c 0,19,20
 135 1792 135 1792 135 1759 c 128,-1,21
 135 1726 135 1726 152.5 1707 c 128,-1,22
 170 1688 170 1688 211.5 1672.5 c 128,-1,23
 253 1657 253 1657 307.5 1627.5 c 128,-1,24
 362 1598 362 1598 419.5 1549 c 128,-1,25
 477 1500 477 1500 533 1428.5 c 128,-1,26
 589 1357 589 1357 633 1258 c 0,27,28
 731 1039 731 1039 731 742 c 0,29,30
 731 242 731 242 474 -14 c 0,31,32
 390 -99 390 -99 295 -144 c 1,33,34
 181 -165 181 -165 167 -210 c 0,35,36
 163 -224 163 -224 163 -237 c 0,0,1
EndSplineSet
EndChar

StartChar: asterisk
Encoding: 42 42 32
Width: 1196
GlyphClass: 2
Flags: W
LayerCount: 2
Fore
SplineSet
944 1689 m 0,0,1
 1024 1689 1024 1689 1024 1617 c 0,2,3
 1024 1567 1024 1567 956 1530 c 0,4,5
 940 1522 940 1522 930 1519 c 2,6,-1
 853 1494 l 2,7,8
 812 1480 812 1480 778 1469.5 c 128,-1,9
 744 1459 744 1459 703 1443 c 1,10,11
 711 1428 711 1428 725 1408 c 2,12,-1
 786 1318 l 1,13,14
 846 1227 846 1227 846 1196.5 c 128,-1,15
 846 1166 846 1166 838 1151.5 c 128,-1,16
 830 1137 830 1137 818 1129 c 0,17,18
 798 1115 798 1115 768.5 1115 c 128,-1,19
 739 1115 739 1115 713 1142 c 128,-1,20
 687 1169 687 1169 663 1208.5 c 128,-1,21
 639 1248 639 1248 617.5 1293 c 128,-1,22
 596 1338 596 1338 575 1374 c 1,23,24
 515 1281 515 1281 489 1246 c 1,25,-1
 434 1168 l 2,26,27
 425 1156 425 1156 404 1146 c 128,-1,28
 383 1136 383 1136 354 1136 c 128,-1,29
 325 1136 325 1136 305.5 1151 c 128,-1,30
 286 1166 286 1166 286 1204 c 128,-1,31
 286 1242 286 1242 303 1272 c 128,-1,32
 320 1302 320 1302 345.5 1333 c 128,-1,33
 371 1364 371 1364 399.5 1394.5 c 128,-1,34
 428 1425 428 1425 451 1455 c 1,35,36
 307 1506 307 1506 274 1518.5 c 128,-1,37
 241 1531 241 1531 225.5 1538 c 128,-1,38
 210 1545 210 1545 198 1556 c 0,39,40
 173 1577 173 1577 173 1606.5 c 128,-1,41
 173 1636 173 1636 180.5 1648 c 128,-1,42
 188 1660 188 1660 200 1668 c 0,43,44
 225 1685 225 1685 269.5 1685 c 128,-1,45
 314 1685 314 1685 506 1588 c 1,46,-1
 506 1657 l 1,47,-1
 499 1802 l 1,48,49
 499 1867 499 1867 559 1892 c 0,50,51
 576 1899 576 1899 594 1899 c 0,52,53
 673 1899 673 1899 673 1802 c 0,54,55
 673 1736 673 1736 667 1675 c 128,-1,56
 661 1614 661 1614 660 1584 c 1,57,-1
 755 1621 l 2,58,59
 781 1631 781 1631 806.5 1643 c 128,-1,60
 832 1655 832 1655 856 1665 c 0,61,62
 914 1689 914 1689 944 1689 c 0,0,1
EndSplineSet
EndChar

StartChar: plus
Encoding: 43 43 33
Width: 1196
GlyphClass: 2
Flags: W
LayerCount: 2
Fore
SplineSet
673 436 m 1,0,-1
 686 362 l 1,1,2
 686 314 686 314 639 292 c 0,3,4
 621 283 621 283 585.5 283 c 128,-1,5
 550 283 550 283 524.5 302.5 c 128,-1,6
 499 322 499 322 499 355 c 0,7,8
 499 497 499 497 501 647 c 1,9,-1
 204 650 l 2,10,11
 129 650 129 650 129 754 c 0,12,13
 129 812 129 812 199 818 c 0,14,15
 221 820 221 820 248 820 c 2,16,-1
 327 819 l 1,17,-1
 503 819 l 1,18,-1
 506 1125 l 2,19,20
 506 1200 506 1200 610 1200 c 0,21,22
 668 1200 668 1200 674 1128 c 0,23,24
 676 1106 676 1106 676 1078 c 2,25,-1
 675 1002 l 1,26,-1
 675 920 l 2,27,28
 675 872 675 872 674 818 c 1,29,-1
 894 818 l 1,30,-1
 967 830 l 1,31,32
 1016 830 1016 830 1038 783 c 0,33,34
 1047 765 1047 765 1047 729.5 c 128,-1,35
 1047 694 1047 694 1027 668.5 c 128,-1,36
 1007 643 1007 643 974 643 c 0,37,38
 825 643 825 643 673 645 c 1,39,-1
 673 436 l 1,0,-1
EndSplineSet
EndChar

StartChar: comma
Encoding: 44 44 34
Width: 855
GlyphClass: 2
Flags: W
LayerCount: 2
Fore
SplineSet
403 260 m 0,0,1
 519 260 519 260 519 109 c 0,2,3
 519 -30 519 -30 428 -177 c 1,4,5
 401 -223 401 -223 353 -246 c 0,6,7
 336 -255 336 -255 310.5 -255 c 128,-1,8
 285 -255 285 -255 267 -234.5 c 128,-1,9
 249 -214 249 -214 249 -186 c 0,10,11
 249 -134 249 -134 288 -104 c 1,12,13
 311 -79 311 -79 325 0 c 1,14,15
 299 29 299 29 302.5 79.5 c 128,-1,16
 306 130 306 130 310.5 157.5 c 128,-1,17
 315 185 315 185 325 208 c 0,18,19
 348 260 348 260 403 260 c 0,0,1
EndSplineSet
EndChar

StartChar: hyphen
Encoding: 45 45 35
Width: 1196
GlyphClass: 2
Flags: W
LayerCount: 2
Fore
SplineSet
916 643 m 1,0,-1
 204 650 l 2,1,2
 129 650 129 650 129 754 c 0,3,4
 129 812 129 812 199 818 c 0,5,6
 221 820 221 820 248 820 c 2,7,-1
 327 819 l 1,8,9
 415 819 415 819 502 819 c 2,10,-1
 715 818 l 2,11,12
 804 818 804 818 894 818 c 1,13,-1
 967 830 l 1,14,15
 1016 830 1016 830 1038 783 c 0,16,17
 1047 765 1047 765 1047 729.5 c 128,-1,18
 1047 694 1047 694 1027 668.5 c 128,-1,19
 1007 643 1007 643 978 643 c 2,20,-1
 916 643 l 1,0,-1
EndSplineSet
EndChar

StartChar: period
Encoding: 46 46 36
Width: 853
GlyphClass: 2
Flags: W
LayerCount: 2
Fore
SplineSet
420 -24 m 0,0,1
 333 -24 333 -24 333 79 c 0,2,3
 333 213 333 213 384 262 c 0,4,5
 402 280 402 280 428 280 c 128,-1,6
 454 280 454 280 470 272 c 128,-1,7
 486 264 486 264 496 252 c 0,8,9
 517 228 517 228 518 205 c 0,10,11
 521 168 521 168 521 115.5 c 128,-1,12
 521 63 521 63 499.5 19.5 c 128,-1,13
 478 -24 478 -24 420 -24 c 0,0,1
EndSplineSet
EndChar

StartChar: slash
Encoding: 47 47 37
Width: 1025
GlyphClass: 2
Flags: W
LayerCount: 2
Fore
SplineSet
136 -14 m 1,0,1
 136 -14 136 -14 746 1669 c 0,2,3
 764 1721 764 1721 812 1721 c 128,-1,4
 860 1721 860 1721 884 1699 c 128,-1,5
 908 1677 908 1677 908 1658 c 0,6,7
 908 1630 908 1630 903 1612 c 128,-1,8
 898 1594 898 1594 872 1519 c 1,9,-1
 295 -68 l 2,10,11
 289 -85 289 -85 288.5 -105 c 128,-1,12
 288 -125 288 -125 282 -140.5 c 128,-1,13
 276 -156 276 -156 257.5 -174.5 c 128,-1,14
 239 -193 239 -193 210.5 -193 c 128,-1,15
 182 -193 182 -193 162 -185 c 128,-1,16
 142 -177 142 -177 128 -164 c 0,17,18
 99 -139 99 -139 99 -109 c 0,19,20
 99 -61 99 -61 136 -14 c 1,0,1
EndSplineSet
EndChar

StartChar: zero
Encoding: 48 48 38
Width: 1536
GlyphClass: 2
Flags: W
LayerCount: 2
Fore
SplineSet
754 -20 m 0,0,1
 609 -20 609 -20 499 40.5 c 128,-1,2
 389 101 389 101 316 206 c 0,3,4
 167 420 167 420 167 760 c 0,5,6
 167 1108 167 1108 326 1318 c 1,7,8
 486 1532 486 1532 755 1532 c 0,9,10
 1028 1532 1028 1532 1184 1318 c 0,11,12
 1334 1113 1334 1113 1334 760 c 0,13,14
 1334 420 1334 420 1188 206 c 1,15,16
 1032 -20 1032 -20 754 -20 c 0,0,1
759 145 m 0,17,18
 868 145 868 145 943 196.5 c 128,-1,19
 1018 248 1018 248 1066 334 c 0,20,21
 1156 498 1156 498 1156 760 c 0,22,23
 1156 1028 1156 1028 1060 1190 c 0,24,25
 955 1367 955 1367 760 1367 c 0,26,27
 560 1367 560 1367 452 1204 c 0,28,29
 346 1045 346 1045 346 760 c 0,30,31
 346 500 346 500 444 334 c 1,32,33
 554 145 554 145 759 145 c 0,17,18
EndSplineSet
EndChar

StartChar: one
Encoding: 49 49 39
Width: 1031
GlyphClass: 2
Flags: W
LayerCount: 2
Fore
SplineSet
693 73 m 0,0,1
 693 -6 693 -6 599 -6 c 0,2,3
 534 -6 534 -6 510 13.5 c 128,-1,4
 486 33 486 33 486 62 c 128,-1,5
 486 91 486 91 488.5 112 c 128,-1,6
 491 133 491 133 494 158 c 0,7,8
 501 233 501 233 501 284.5 c 128,-1,9
 501 336 501 336 500.5 386.5 c 128,-1,10
 500 437 500 437 499.5 494 c 128,-1,11
 499 551 499 551 498.5 621.5 c 128,-1,12
 498 692 498 692 497 787 c 128,-1,13
 496 882 496 882 494.5 1007 c 128,-1,14
 493 1132 493 1132 492 1300 c 1,15,-1
 318 1204 l 1,16,17
 211 1143 211 1143 164 1218 c 0,18,19
 150 1239 150 1239 150 1253.5 c 128,-1,20
 150 1268 150 1268 155 1284 c 0,21,22
 165 1321 165 1321 206 1343 c 1,23,-1
 287 1384 l 2,24,25
 375 1428 375 1428 423 1460 c 1,26,-1
 494 1505 l 2,27,28
 538 1533 538 1533 560.5 1533 c 128,-1,29
 583 1533 583 1533 603 1528 c 0,30,31
 651 1514 651 1514 667 1469 c 1,32,33
 681 1447 681 1447 681 1427 c 1,34,-1
 671 1374 l 1,35,36
 668 1244 668 1244 668 1034.5 c 128,-1,37
 668 825 668 825 669 711.5 c 128,-1,38
 670 598 670 598 672 494 c 0,39,40
 676 178 676 178 683 139 c 0,41,42
 693 85 693 85 693 73 c 0,0,1
EndSplineSet
EndChar

StartChar: two
Encoding: 50 50 40
Width: 1539
GlyphClass: 2
Flags: W
LayerCount: 2
Fore
SplineSet
1299 157 m 1,0,-1
 1345 164 l 1,1,2
 1374 164 1374 164 1395.5 143 c 128,-1,3
 1417 122 1417 122 1417 90 c 128,-1,4
 1417 58 1417 58 1409.5 42.5 c 128,-1,5
 1402 27 1402 27 1390 17 c 0,6,7
 1370 0 1370 0 1315.5 0.5 c 128,-1,8
 1261 1 1261 1 1187.5 3.5 c 128,-1,9
 1114 6 1114 6 1038 8 c 1,10,-1
 881 10 l 2,11,12
 801 12 801 12 705 12 c 0,13,14
 472 12 472 12 354.5 6 c 128,-1,15
 237 0 237 0 217 0 c 128,-1,16
 197 0 197 0 172 20.5 c 128,-1,17
 147 41 147 41 147 64 c 0,18,19
 147 105 147 105 180 138 c 1,20,21
 280 186 280 186 366 244 c 1,22,-1
 655 452 l 1,23,24
 907 632 907 632 1010 780 c 1,25,26
 1107 922 1107 922 1107 1071 c 0,27,28
 1107 1216 1107 1216 984 1308 c 0,29,30
 873 1392 873 1392 725 1392 c 0,31,32
 552 1392 552 1392 446 1312 c 0,33,34
 336 1228 336 1228 336 1091 c 0,35,36
 336 1051 336 1051 363 1002 c 1,37,-1
 363 1003 l 1,38,39
 387 958 387 958 387 934.5 c 128,-1,40
 387 911 387 911 379 898 c 128,-1,41
 371 885 371 885 358 876 c 1,42,43
 333 856 333 856 297 856 c 128,-1,44
 261 856 261 856 234.5 883 c 128,-1,45
 208 910 208 910 192 948 c 0,46,47
 162 1019 162 1019 162 1110.5 c 128,-1,48
 162 1202 162 1202 210.5 1286.5 c 128,-1,49
 259 1371 259 1371 339 1428 c 0,50,51
 501 1545 501 1545 733 1545 c 0,52,53
 973 1545 973 1545 1127 1421 c 0,54,55
 1292 1289 1292 1289 1292 1067 c 0,56,57
 1292 795 1292 795 994 510 c 0,58,59
 779 303 779 303 506 161 c 1,60,61
 677 170 677 170 747 170 c 1,62,-1
 1299 157 l 1,0,-1
EndSplineSet
EndChar

StartChar: three
Encoding: 51 51 41
Width: 1704
GlyphClass: 2
Flags: W
LayerCount: 2
Fore
SplineSet
948 935 m 1,0,1
 976 941 976 941 1041.5 941 c 128,-1,2
 1107 941 1107 941 1197 911.5 c 128,-1,3
 1287 882 1287 882 1353 824 c 0,4,5
 1495 699 1495 699 1495 485 c 0,6,7
 1495 253 1495 253 1298 114 c 1,8,9
 1117 -15 1117 -15 852 -15 c 0,10,11
 588 -15 588 -15 414 110 c 0,12,13
 228 244 228 244 228 470.5 c 128,-1,14
 228 697 228 697 340 697 c 0,15,16
 400 697 400 697 428 654 c 0,17,18
 438 637 438 637 438 614 c 128,-1,19
 438 591 438 591 434.5 575.5 c 128,-1,20
 431 560 431 560 426 543 c 0,21,22
 415 500 415 500 415 441.5 c 128,-1,23
 415 383 415 383 447.5 327.5 c 128,-1,24
 480 272 480 272 538 232 c 0,25,26
 663 145 663 145 855 145 c 0,27,28
 1035 145 1035 145 1160 224 c 0,29,30
 1302 315 1302 315 1302 474 c 0,31,32
 1302 637 1302 637 1194 722 c 1,33,34
 1100 794 1100 794 947 794 c 0,35,36
 892 794 892 794 860 785 c 2,37,-1
 814 772 l 2,38,39
 799 768 799 768 766 768 c 128,-1,40
 733 768 733 768 710.5 795.5 c 128,-1,41
 688 823 688 823 688 843 c 128,-1,42
 688 863 688 863 691.5 874 c 128,-1,43
 695 885 695 885 701 896 c 0,44,45
 715 923 715 923 754.5 961.5 c 128,-1,46
 794 1000 794 1000 844 1056 c 2,47,-1
 1030 1266 l 2,48,49
 1075 1316 1075 1316 1131 1367 c 1,50,-1
 439 1367 l 2,51,52
 390 1367 390 1367 364.5 1392 c 128,-1,53
 339 1417 339 1417 339 1439.5 c 128,-1,54
 339 1462 339 1462 344 1476.5 c 128,-1,55
 349 1491 349 1491 360 1503 c 0,56,57
 385 1530 385 1530 427 1530 c 2,58,-1
 1309 1530 l 2,59,60
 1349 1530 1349 1530 1373 1506.5 c 128,-1,61
 1397 1483 1397 1483 1397 1457 c 0,62,63
 1397 1422 1397 1422 1378 1397.5 c 128,-1,64
 1359 1373 1359 1373 1328 1338 c 1,65,66
 1328 1338 1328 1338 948 935 c 1,0,1
EndSplineSet
EndChar

StartChar: four
Encoding: 52 52 42
Width: 1538
GlyphClass: 2
Flags: W
LayerCount: 2
Fore
SplineSet
801 350 m 2,0,1
 438 350 438 350 283 359 c 1,2,3
 217 324 217 324 140 324 c 0,4,5
 72 324 72 324 46 370 c 0,6,7
 37 387 37 387 37 412 c 0,8,9
 37 509 37 509 186 509 c 1,10,11
 244 547 244 547 292 628 c 1,12,-1
 315 664 l 2,13,14
 441 862 441 862 488 1120 c 0,15,16
 503 1206 503 1206 505 1291 c 2,17,-1
 509 1531 l 2,18,19
 509 1571 509 1571 531 1589 c 0,20,21
 566 1618 566 1618 599 1618 c 0,22,23
 670 1618 670 1618 684 1531 c 0,24,25
 693 1475 693 1475 693 1393.5 c 128,-1,26
 693 1312 693 1312 680.5 1212.5 c 128,-1,27
 668 1113 668 1113 645.5 1019.5 c 128,-1,28
 623 926 623 926 593.5 841 c 128,-1,29
 564 756 564 756 530 688 c 0,30,31
 456 542 456 542 386 501 c 1,32,-1
 971 506 l 1,33,34
 970 623 970 623 970 742 c 2,35,-1
 970 991 l 2,36,37
 970 1031 970 1031 990 1049 c 0,38,39
 1024 1078 1024 1078 1048.5 1078 c 128,-1,40
 1073 1078 1073 1078 1089 1072.5 c 128,-1,41
 1105 1067 1105 1067 1118 1056 c 0,42,43
 1146 1031 1146 1031 1146 991 c 2,44,-1
 1146 744 l 2,45,46
 1146 625 1146 625 1147 507 c 1,47,48
 1218 507 1218 507 1267.5 509 c 128,-1,49
 1317 511 1317 511 1333.5 503 c 128,-1,50
 1350 495 1350 495 1362 483 c 0,51,52
 1385 458 1385 458 1385 437.5 c 128,-1,53
 1385 417 1385 417 1380.5 402.5 c 128,-1,54
 1376 388 1376 388 1367 376 c 0,55,56
 1345 347 1345 347 1309 347 c 2,57,-1
 1148 348 l 1,58,-1
 1149 -140 l 2,59,60
 1149 -176 1149 -176 1128 -192 c 0,61,62
 1094 -218 1094 -218 1061 -218 c 0,63,64
 1007 -218 1007 -218 982 -174 c 0,65,66
 973 -160 973 -160 973 -140 c 2,67,-1
 972 350 l 1,68,-1
 801 350 l 2,0,1
225 364 m 2,69,70
 225 364 225 364 226 364 c 2,71,72
 226 364 226 364 225 364 c 2,69,70
EndSplineSet
EndChar

StartChar: five
Encoding: 53 53 43
Width: 1712
GlyphClass: 2
Flags: W
LayerCount: 2
Fore
SplineSet
511 1034 m 1,0,1
 649 1107 649 1107 865 1107 c 0,2,3
 1138 1107 1138 1107 1292 960 c 1,4,5
 1446 815 1446 815 1446 560 c 0,6,7
 1446 360 1446 360 1344 220 c 0,8,9
 1258 101 1258 101 1102 38 c 0,10,11
 967 -17 967 -17 810 -17 c 0,12,13
 627 -17 627 -17 468 81 c 0,14,15
 296 186 296 186 262 340 c 0,16,17
 249 398 249 398 249 435 c 0,18,19
 249 510 249 510 330 519 c 0,20,21
 383 525 383 525 405 453 c 0,22,23
 463 260 463 260 598 185 c 0,24,25
 694 131 694 131 839 131 c 0,26,27
 1014 131 1014 131 1127 224 c 0,28,29
 1261 335 1261 335 1261 543 c 0,30,31
 1261 825 1261 825 1042 914 c 0,32,33
 966 944 966 944 861 944 c 0,34,35
 641 944 641 944 491 863 c 1,36,37
 480 771 480 771 429 746 c 0,38,39
 408 735 408 735 372.5 735 c 128,-1,40
 337 735 337 735 308.5 760.5 c 128,-1,41
 280 786 280 786 280 830 c 0,42,43
 280 891 280 891 326 959 c 1,44,45
 337 1025 337 1025 346 1100 c 2,46,-1
 378 1354 l 2,47,48
 385 1417 385 1417 393 1471 c 1,49,50
 423 1532 423 1532 479 1534 c 1,51,52
 782 1529 782 1529 947 1529 c 128,-1,53
 1112 1529 1112 1529 1262 1532 c 1,54,-1
 1263 1532 l 2,55,56
 1305 1532 1305 1532 1323 1510 c 0,57,58
 1351 1477 1351 1477 1351 1445 c 128,-1,59
 1351 1413 1351 1413 1325.5 1393 c 128,-1,60
 1300 1373 1300 1373 1245 1373 c 128,-1,61
 1190 1373 1190 1373 1107.5 1374 c 128,-1,62
 1025 1375 1025 1375 934 1376 c 2,63,-1
 747 1380 l 1,64,65
 652 1381 652 1381 564 1381 c 1,66,67
 557 1345 557 1345 550 1300 c 2,68,-1
 524 1116 l 2,69,70
 518 1071 518 1071 511 1034 c 1,0,1
EndSplineSet
EndChar

StartChar: six
Encoding: 54 54 44
Width: 1538
GlyphClass: 2
Flags: W
LayerCount: 2
Fore
SplineSet
147 670 m 0,0,1
 147 773 147 773 168 884 c 128,-1,2
 189 995 189 995 231 1093.5 c 128,-1,3
 273 1192 273 1192 335.5 1274.5 c 128,-1,4
 398 1357 398 1357 481 1416 c 0,5,6
 657 1543 657 1543 893 1543 c 0,7,8
 1007 1543 1007 1543 1092 1517 c 128,-1,9
 1177 1491 1177 1491 1205.5 1474 c 128,-1,10
 1234 1457 1234 1457 1246.5 1439.5 c 128,-1,11
 1259 1422 1259 1422 1259 1396.5 c 128,-1,12
 1259 1371 1259 1371 1251.5 1356.5 c 128,-1,13
 1244 1342 1244 1342 1232 1332 c 0,14,15
 1209 1314 1209 1314 1175.5 1314 c 128,-1,16
 1142 1314 1142 1314 1122 1319 c 128,-1,17
 1102 1324 1102 1324 1087 1332 c 128,-1,18
 1072 1340 1072 1340 1058 1348.5 c 128,-1,19
 1044 1357 1044 1357 1023 1365 c 0,20,21
 976 1383 976 1383 889.5 1383 c 128,-1,22
 803 1383 803 1383 733.5 1362 c 128,-1,23
 664 1341 664 1341 607.5 1304 c 128,-1,24
 551 1267 551 1267 507 1218.5 c 128,-1,25
 463 1170 463 1170 430 1114 c 0,26,27
 368 1007 368 1007 340 883 c 1,28,29
 413 978 413 978 554 1034 c 1,30,31
 676 1081 676 1081 798.5 1081 c 128,-1,32
 921 1081 921 1081 1027.5 1047.5 c 128,-1,33
 1134 1014 1134 1014 1210 944 c 0,34,35
 1369 796 1369 796 1369 509 c 0,36,37
 1369 283 1369 283 1228 124 c 0,38,39
 1068 -56 1068 -56 785 -56 c 0,40,41
 456 -56 456 -56 292 164 c 0,42,43
 147 358 147 358 147 670 c 0,0,1
336 540 m 2,44,45
 336 359 336 359 451 232 c 0,46,47
 574 96 574 96 778 96 c 0,48,49
 934 96 934 96 1054 188 c 1,50,51
 1195 298 1195 298 1195 510 c 0,52,53
 1195 734 1195 734 1064 842 c 0,54,55
 960 928 960 928 792 928 c 0,56,57
 648 928 648 928 524 852 c 0,58,59
 383 766 383 766 336 620 c 1,60,-1
 336 540 l 2,44,45
EndSplineSet
EndChar

StartChar: seven
Encoding: 55 55 45
Width: 1196
GlyphClass: 2
Flags: W
LayerCount: 2
Fore
SplineSet
294 1534 m 1,0,-1
 796 1531 l 1,1,-1
 878 1531 l 2,2,3
 919 1531 919 1531 948 1531.5 c 128,-1,4
 977 1532 977 1532 993.5 1527.5 c 128,-1,5
 1010 1523 1010 1523 1024 1512 c 0,6,7
 1056 1485 1056 1485 1056 1435 c 0,8,9
 1056 1400 1056 1400 1025.5 1317 c 128,-1,10
 995 1234 995 1234 947 1084 c 1,11,-1
 652 119 l 1,12,13
 645 -15 645 -15 585 -36 c 0,14,15
 560 -44 560 -44 538 -44 c 128,-1,16
 516 -44 516 -44 498 -38 c 128,-1,17
 480 -32 480 -32 466 -20 c 0,18,19
 432 9 432 9 432 43 c 128,-1,20
 432 77 432 77 437 96.5 c 128,-1,21
 442 116 442 116 449.5 132 c 128,-1,22
 457 148 457 148 465 163 c 128,-1,23
 473 178 473 178 481 191 c 128,-1,24
 489 204 489 204 494 214 c 1,25,26
 542 349 542 349 586 487 c 2,27,-1
 862 1361 l 1,28,-1
 231 1358 l 2,29,30
 166 1358 166 1358 146 1371 c 0,31,32
 109 1394 109 1394 109 1446 c 0,33,34
 109 1507 109 1507 155 1523 c 0,35,36
 186 1534 186 1534 244 1534 c 2,37,-1
 294 1534 l 1,0,-1
EndSplineSet
EndChar

StartChar: eight
Encoding: 56 56 46
Width: 1537
GlyphClass: 2
Flags: W
LayerCount: 2
Fore
SplineSet
180 391 m 0,0,1
 180 464 180 464 208 529 c 128,-1,2
 236 594 236 594 284 646 c 0,3,4
 385 754 385 754 543 791 c 1,5,6
 352 883 352 883 290 1034 c 0,7,8
 269 1087 269 1087 269 1163 c 128,-1,9
 269 1239 269 1239 306 1310.5 c 128,-1,10
 343 1382 343 1382 409 1431 c 0,11,12
 544 1531 544 1531 764 1531 c 0,13,14
 983 1531 983 1531 1112 1434 c 1,15,16
 1247 1331 1247 1331 1247 1143 c 0,17,18
 1247 1037 1247 1037 1172 938 c 0,19,20
 1101 845 1101 845 985 789 c 1,21,22
 1162 724 1162 724 1259.5 627 c 128,-1,23
 1357 530 1357 530 1357 406 c 128,-1,24
 1357 282 1357 282 1308 200 c 128,-1,25
 1259 118 1259 118 1178 62 c 1,26,27
 1012 -50 1012 -50 768 -50 c 0,28,29
 536 -50 536 -50 365 63 c 0,30,31
 180 185 180 185 180 391 c 0,0,1
788 862 m 1,32,33
 907 886 907 886 988 966 c 1,34,35
 1067 1046 1067 1046 1067 1144 c 0,36,37
 1067 1265 1067 1265 972 1327 c 0,38,39
 894 1379 894 1379 765 1379 c 0,40,41
 554 1379 554 1379 478 1259 c 0,42,43
 449 1214 449 1214 449 1157 c 128,-1,44
 449 1100 449 1100 477.5 1058 c 128,-1,45
 506 1016 506 1016 554 979 c 0,46,47
 649 905 649 905 788 862 c 1,32,33
402 515 m 0,48,49
 369 464 369 464 369 397.5 c 128,-1,50
 369 331 369 331 401.5 276 c 128,-1,51
 434 221 434 221 488 184 c 0,52,53
 600 107 600 107 763 107 c 0,54,55
 938 107 938 107 1050 176 c 0,56,57
 1176 253 1176 253 1176 393 c 0,58,59
 1176 561 1176 561 835 677 c 1,60,-1
 740 708 l 1,61,62
 495 661 495 661 402 515 c 0,48,49
EndSplineSet
EndChar

StartChar: nine
Encoding: 57 57 47
Width: 1533
GlyphClass: 2
Flags: W
LayerCount: 2
Fore
SplineSet
316 91 m 0,0,1
 316 116 316 116 323.5 130.5 c 128,-1,2
 331 145 331 145 343 154 c 0,3,4
 366 173 366 173 399 173 c 128,-1,5
 432 173 432 173 451.5 168 c 128,-1,6
 471 163 471 163 487 155 c 2,7,8
 487 155 487 155 518 138 c 0,9,10
 581 104 581 104 678 104 c 128,-1,11
 775 104 775 104 840.5 127.5 c 128,-1,12
 906 151 906 151 959.5 190.5 c 128,-1,13
 1013 230 1013 230 1054 281.5 c 128,-1,14
 1095 333 1095 333 1124 389 c 0,15,16
 1181 500 1181 500 1190 608 c 1,17,18
 1112 513 1112 513 966 456 c 0,19,20
 840 406 840 406 717.5 406 c 128,-1,21
 595 406 595 406 488.5 439.5 c 128,-1,22
 382 473 382 473 306 543 c 0,23,24
 147 689 147 689 147 978 c 0,25,26
 147 1203 147 1203 292 1362 c 0,27,28
 457 1543 457 1543 741 1543 c 0,29,30
 1070 1543 1070 1543 1234 1322 c 1,31,32
 1379 1129 1379 1129 1379 830 c 0,33,34
 1379 477 1379 477 1222 230 c 0,35,36
 1109 52 1109 52 916 -20 c 1,37,38
 816 -56 816 -56 691 -56 c 0,39,40
 502 -56 502 -56 390 3 c 0,41,42
 316 41 316 41 316 91 c 0,0,1
321 1000 m 0,43,44
 321 559 321 559 724 559 c 0,45,46
 870 559 870 559 997 634 c 0,47,48
 1143 721 1143 721 1190 867 c 1,49,-1
 1190 947 l 2,50,51
 1190 1129 1190 1129 1076 1253 c 0,52,53
 953 1387 953 1387 750 1387 c 0,54,55
 595 1387 595 1387 468 1292 c 0,56,57
 321 1182 321 1182 321 1000 c 0,43,44
EndSplineSet
EndChar

StartChar: colon
Encoding: 58 58 48
Width: 853
GlyphClass: 2
Flags: W
LayerCount: 2
Fore
SplineSet
418 -24 m 0,0,1
 331 -24 331 -24 331 79 c 0,2,3
 331 213 331 213 382 262 c 0,4,5
 400 280 400 280 426 280 c 128,-1,6
 452 280 452 280 468 272 c 128,-1,7
 484 264 484 264 494 252 c 0,8,9
 515 228 515 228 516 205 c 0,10,11
 519 168 519 168 519 115.5 c 128,-1,12
 519 63 519 63 497.5 19.5 c 128,-1,13
 476 -24 476 -24 418 -24 c 0,0,1
418 647 m 0,14,15
 331 647 331 647 331 750 c 0,16,17
 331 884 331 884 382 933 c 0,18,19
 400 951 400 951 426 951 c 128,-1,20
 452 951 452 951 468 943 c 128,-1,21
 484 935 484 935 494 923 c 0,22,23
 515 899 515 899 516 876 c 0,24,25
 519 839 519 839 519 786.5 c 128,-1,26
 519 734 519 734 497.5 690.5 c 128,-1,27
 476 647 476 647 418 647 c 0,14,15
EndSplineSet
EndChar

StartChar: semicolon
Encoding: 59 59 49
Width: 920
GlyphClass: 2
Flags: W
LayerCount: 2
Fore
SplineSet
413 647 m 0,0,1
 326 647 326 647 326 750 c 0,2,3
 326 884 326 884 377 933 c 0,4,5
 395 951 395 951 421 951 c 128,-1,6
 447 951 447 951 463 943 c 128,-1,7
 479 935 479 935 489 923 c 0,8,9
 510 899 510 899 511 876 c 0,10,11
 514 839 514 839 514 786.5 c 128,-1,12
 514 734 514 734 492.5 690.5 c 128,-1,13
 471 647 471 647 413 647 c 0,0,1
403 260 m 0,14,15
 519 260 519 260 519 109 c 0,16,17
 519 -30 519 -30 428 -177 c 1,18,19
 401 -223 401 -223 353 -246 c 0,20,21
 336 -255 336 -255 310.5 -255 c 128,-1,22
 285 -255 285 -255 267 -234.5 c 128,-1,23
 249 -214 249 -214 249 -186 c 0,24,25
 249 -134 249 -134 288 -104 c 1,26,27
 311 -79 311 -79 325 0 c 1,28,29
 299 29 299 29 302.5 79.5 c 128,-1,30
 306 130 306 130 310.5 157.5 c 128,-1,31
 315 185 315 185 325 208 c 0,32,33
 348 260 348 260 403 260 c 0,14,15
EndSplineSet
EndChar

StartChar: less
Encoding: 60 60 50
Width: 1196
GlyphClass: 2
Flags: W
LayerCount: 2
Fore
SplineSet
203 521 m 1,0,1
 167 531 167 531 167 617 c 0,2,3
 167 657 167 657 186 673 c 128,-1,4
 205 689 205 689 243 699 c 1,5,-1
 245 700 l 1,6,7
 381 754 381 754 512.5 817 c 128,-1,8
 644 880 644 880 782 939 c 1,9,10
 821 978 821 978 868 978 c 0,11,12
 895 978 895 978 914 954 c 0,13,14
 945 914 945 914 945 886.5 c 128,-1,15
 945 859 945 859 939 846 c 128,-1,16
 933 833 933 833 923 824 c 128,-1,17
 913 815 913 815 900 809 c 2,18,-1
 872 797 l 1,19,20
 758 757 758 757 669 714 c 2,21,-1
 527 645 l 2,22,23
 474 619 474 619 415 593 c 1,24,-1
 638 486 l 1,25,26
 748 432 748 432 861 385 c 1,27,28
 907 385 907 385 936 344 c 0,29,30
 948 328 948 328 948 307.5 c 128,-1,31
 948 287 948 287 943 270 c 128,-1,32
 938 253 938 253 928 240 c 0,33,34
 906 208 906 208 869 208 c 0,35,36
 836 208 836 208 814 221 c 2,37,-1
 778 242 l 2,38,39
 763 251 763 251 743.5 258.5 c 128,-1,40
 724 266 724 266 686 285 c 0,41,42
 272 492 272 492 201 521 c 1,43,-1
 203 521 l 1,0,1
EndSplineSet
EndChar

StartChar: equal
Encoding: 61 61 51
Width: 1196
GlyphClass: 2
Flags: W
LayerCount: 2
Fore
SplineSet
1014 847 m 0,0,1
 785 847 785 847 174 854 c 0,2,3
 99 854 99 854 99 957 c 0,4,5
 99 1016 99 1016 172 1022 c 0,6,7
 194 1024 194 1024 222 1024 c 2,8,-1
 297 1023 l 1,9,-1
 380 1023 l 1,10,-1
 848 1021 l 1,11,-1
 934 1021 l 2,12,13
 956 1021 956 1021 973 1027.5 c 128,-1,14
 990 1034 990 1034 1003.5 1034 c 128,-1,15
 1017 1034 1017 1034 1031 1030 c 128,-1,16
 1045 1026 1045 1026 1058 1016 c 0,17,18
 1087 991 1087 991 1087 944.5 c 128,-1,19
 1087 898 1087 898 1067 872.5 c 128,-1,20
 1047 847 1047 847 1014 847 c 0,0,1
1014 336 m 0,21,22
 698 336 698 336 174 342 c 0,23,24
 99 342 99 342 99 446 c 0,25,26
 99 505 99 505 172 511 c 0,27,28
 194 513 194 513 222 513 c 2,29,-1
 297 512 l 1,30,-1
 380 512 l 1,31,-1
 848 510 l 1,32,-1
 934 510 l 1,33,-1
 1007 522 l 1,34,35
 1056 522 1056 522 1078 475 c 0,36,37
 1087 457 1087 457 1087 421.5 c 128,-1,38
 1087 386 1087 386 1067 361 c 128,-1,39
 1047 336 1047 336 1014 336 c 0,21,22
EndSplineSet
EndChar

StartChar: greater
Encoding: 62 62 52
Width: 1196
GlyphClass: 2
Flags: W
LayerCount: 2
Fore
SplineSet
985 513 m 1,0,1
 1021 523 1021 523 1021 609 c 0,2,3
 1021 649 1021 649 1002 665 c 128,-1,4
 983 681 983 681 945 691 c 1,5,-1
 943 692 l 1,6,7
 807 746 807 746 675.5 809 c 128,-1,8
 544 872 544 872 406 931 c 1,9,10
 367 970 367 970 320 970 c 0,11,12
 293 970 293 970 274 946 c 0,13,14
 243 906 243 906 243 878.5 c 128,-1,15
 243 851 243 851 249 838 c 128,-1,16
 255 825 255 825 265 816 c 128,-1,17
 275 807 275 807 288 801 c 2,18,-1
 316 789 l 1,19,20
 430 749 430 749 519 706 c 2,21,-1
 661 637 l 2,22,23
 714 611 714 611 773 585 c 1,24,-1
 550 478 l 1,25,26
 440 424 440 424 327 377 c 1,27,28
 281 377 281 377 252 336 c 0,29,30
 240 320 240 320 240 299.5 c 128,-1,31
 240 279 240 279 245 262 c 128,-1,32
 250 245 250 245 260 232 c 0,33,34
 282 200 282 200 319 200 c 0,35,36
 352 200 352 200 374 213 c 2,37,-1
 410 234 l 2,38,39
 425 243 425 243 444.5 250.5 c 128,-1,40
 464 258 464 258 502 277 c 0,41,42
 916 484 916 484 987 513 c 1,43,-1
 985 513 l 1,0,1
EndSplineSet
EndChar

StartChar: question
Encoding: 63 63 53
Width: 1368
GlyphClass: 2
Flags: W
LayerCount: 2
Fore
SplineSet
704 572 m 1,0,-1
 707 506 l 1,1,2
 707 463 707 463 681 440.5 c 128,-1,3
 655 418 655 418 612 418 c 0,4,5
 529 418 529 418 529 570 c 0,6,7
 529 716 529 716 604 818 c 0,8,9
 633 857 633 857 673 894 c 1,10,-1
 842 1044 l 1,11,12
 992 1182 992 1182 992 1334 c 0,13,14
 992 1469 992 1469 888 1542 c 0,15,16
 798 1605 798 1605 659 1605 c 0,17,18
 449 1605 449 1605 362 1498 c 0,19,20
 333 1462 333 1462 333 1422.5 c 128,-1,21
 333 1383 333 1383 343 1361.5 c 128,-1,22
 353 1340 353 1340 365 1320 c 0,23,24
 397 1268 397 1268 397 1235.5 c 128,-1,25
 397 1203 397 1203 372.5 1183 c 128,-1,26
 348 1163 348 1163 313.5 1163 c 128,-1,27
 279 1163 279 1163 250 1188 c 128,-1,28
 221 1213 221 1213 200 1250 c 0,29,30
 156 1329 156 1329 156 1411.5 c 128,-1,31
 156 1494 156 1494 198.5 1561.5 c 128,-1,32
 241 1629 241 1629 310 1675 c 0,33,34
 451 1768 451 1768 657 1768 c 0,35,36
 872 1768 872 1768 1014 1659 c 0,37,38
 1169 1541 1169 1541 1169 1336 c 0,39,40
 1169 1116 1169 1116 960 921 c 1,41,42
 921 883 921 883 876 848 c 128,-1,43
 831 813 831 813 792 773 c 0,44,45
 704 681 704 681 704 572 c 1,0,-1
696 172 m 1,46,-1
 695 149 l 1,47,48
 681 -29 681 -29 587 -29 c 0,49,50
 543 -29 543 -29 518 4 c 0,51,52
 500 29 500 29 500 57.5 c 128,-1,53
 500 86 500 86 507 138 c 1,54,55
 521 228 521 228 560 246 c 0,56,57
 575 254 575 254 590.5 254 c 128,-1,58
 606 254 606 254 627.5 252 c 128,-1,59
 649 250 649 250 666 236 c 0,60,61
 696 210 696 210 696 172 c 1,46,-1
EndSplineSet
EndChar

StartChar: at
Encoding: 64 64 54
Width: 2222
GlyphClass: 2
Flags: W
LayerCount: 2
Fore
SplineSet
174 199 m 128,-1,1
 145 315 145 315 145 402.5 c 128,-1,2
 145 490 145 490 152.5 580.5 c 128,-1,3
 160 671 160 671 205.5 795.5 c 128,-1,4
 251 920 251 920 324 1028.5 c 128,-1,5
 397 1137 397 1137 494 1227.5 c 128,-1,6
 591 1318 591 1318 706 1382 c 1,7,8
 946 1518 946 1518 1213 1518 c 0,9,10
 1617 1518 1617 1518 1852 1288 c 0,11,12
 2073 1073 2073 1073 2073 727 c 0,13,14
 2073 449 2073 449 1965 232 c 0,15,16
 1896 92 1896 92 1772 34 c 0,17,18
 1707 3 1707 3 1650 3 c 128,-1,19
 1593 3 1593 3 1552 18.5 c 128,-1,20
 1511 34 1511 34 1473 68 c 0,21,22
 1382 151 1382 151 1377 293 c 1,23,24
 1312 166 1312 166 1253 116 c 0,25,26
 1137 19 1137 19 984 19 c 0,27,28
 828 19 828 19 736 126 c 0,29,30
 642 236 642 236 642 425 c 0,31,32
 642 672 642 672 804 860 c 0,33,34
 899 971 899 971 1037 1018 c 0,35,36
 1107 1041 1107 1041 1186 1041 c 128,-1,37
 1265 1041 1265 1041 1322 1033.5 c 128,-1,38
 1379 1026 1379 1026 1421 1006 c 0,39,40
 1501 968 1501 968 1548 857 c 0,41,42
 1557 834 1557 834 1557 800 c 128,-1,43
 1557 766 1557 766 1553.5 732.5 c 128,-1,44
 1550 699 1550 699 1545 666 c 2,45,-1
 1536 605 l 2,46,47
 1531 576 1531 576 1530 546 c 2,48,-1
 1526 479 l 2,49,50
 1524 442 1524 442 1524 397 c 128,-1,51
 1524 352 1524 352 1529 306 c 128,-1,52
 1534 260 1534 260 1548 227 c 0,53,54
 1576 157 1576 157 1632.5 157 c 128,-1,55
 1689 157 1689 157 1726.5 177.5 c 128,-1,56
 1764 198 1764 198 1793.5 230.5 c 128,-1,57
 1823 263 1823 263 1844 305 c 128,-1,58
 1865 347 1865 347 1879 390 c 0,59,60
 1908 478 1908 478 1909.5 539 c 128,-1,61
 1911 600 1911 600 1911 618 c 0,62,63
 1911 1003 1911 1003 1713 1197 c 0,64,65
 1533 1373 1533 1373 1219 1373 c 0,66,67
 955 1373 955 1373 748 1250 c 0,68,69
 561 1139 561 1139 446 941 c 1,70,71
 318 718 318 718 318 463 c 0,72,73
 318 157 318 157 506 -62 c 0,74,75
 703 -292 703 -292 1014 -292 c 0,76,77
 1119 -292 1119 -292 1161 -284 c 0,78,79
 1238 -268 1238 -268 1320 -224 c 1,80,-1
 1362 -210 l 2,81,82
 1396 -198 1396 -198 1419.5 -217 c 128,-1,83
 1443 -236 1443 -236 1450 -249 c 0,84,85
 1466 -276 1466 -276 1454.5 -306 c 128,-1,86
 1443 -336 1443 -336 1411 -358 c 128,-1,87
 1379 -380 1379 -380 1335.5 -395 c 128,-1,88
 1292 -410 1292 -410 1242 -418 c 128,-1,89
 1192 -426 1192 -426 1143 -430 c 0,90,91
 1070 -436 1070 -436 966 -436 c 128,-1,92
 862 -436 862 -436 754.5 -407 c 128,-1,93
 647 -378 647 -378 554 -323.5 c 128,-1,94
 461 -269 461 -269 385.5 -191 c 128,-1,95
 310 -113 310 -113 256.5 -15 c 128,-1,0
 203 83 203 83 174 199 c 128,-1,1
922 772 m 0,96,97
 811 634 811 634 811 451 c 0,98,99
 811 240 811 240 922 175 c 0,100,101
 958 154 958 154 1008 154 c 128,-1,102
 1058 154 1058 154 1109 183 c 128,-1,103
 1160 212 1160 212 1208 268 c 0,104,105
 1305 382 1305 382 1377 589 c 1,106,107
 1380 617 1380 617 1389.5 660 c 128,-1,108
 1399 703 1399 703 1399 737 c 0,109,110
 1399 862 1399 862 1298 890 c 0,111,112
 1251 904 1251 904 1187 904 c 128,-1,113
 1123 904 1123 904 1078 886 c 1,114,115
 987 852 987 852 922 772 c 0,96,97
EndSplineSet
EndChar

StartChar: A
Encoding: 65 65 55
Width: 1538
GlyphClass: 2
Flags: W
LayerCount: 2
Fore
SplineSet
1121 505 m 1,0,-1
 764 513 l 1,1,2
 657 513 657 513 555.5 509 c 128,-1,3
 454 505 454 505 426 504 c 1,4,-1
 334 280 l 2,5,6
 268 118 268 118 261.5 86 c 128,-1,7
 255 54 255 54 244 36 c 0,8,9
 217 -7 217 -7 161 -7 c 0,10,11
 43 -7 43 -7 43 71 c 0,12,13
 43 134 43 134 84 187 c 1,14,15
 110 224 110 224 164 341 c 1,16,-1
 602 1326 l 1,17,-1
 669 1466 l 1,18,19
 685 1552 685 1552 759 1552 c 0,20,21
 812 1552 812 1552 832.5 1531.5 c 128,-1,22
 853 1511 853 1511 862.5 1487 c 128,-1,23
 872 1463 872 1463 882 1431.5 c 128,-1,24
 892 1400 892 1400 918 1352 c 1,25,26
 918 1352 918 1352 1050 1088 c 1,27,28
 1050 1088 1050 1088 1463 222 c 0,29,30
 1472 204 1472 204 1484.5 187 c 128,-1,31
 1497 170 1497 170 1508 152 c 0,32,33
 1537 109 1537 109 1537 68.5 c 128,-1,34
 1537 28 1537 28 1510 8 c 128,-1,35
 1483 -12 1483 -12 1441.5 -12 c 128,-1,36
 1400 -12 1400 -12 1372 14.5 c 128,-1,37
 1344 41 1344 41 1340 79 c 1,38,-1
 1134 505 l 1,39,-1
 1121 505 l 1,0,-1
735 1331 m 1,40,41
 732 1325 732 1325 737 1325 c 1,42,-1
 735 1331 l 1,40,41
844 667 m 1,43,-1
 982 668 l 1,44,-1
 1056 668 l 1,45,-1
 761 1276 l 1,46,-1
 497 672 l 1,47,48
 537 672 537 672 570 671 c 2,49,-1
 634 669 l 2,50,51
 696 667 696 667 751 667 c 2,52,-1
 844 667 l 1,43,-1
EndSplineSet
EndChar

StartChar: B
Encoding: 66 66 56
Width: 1534
GlyphClass: 2
Flags: W
LayerCount: 2
Fore
SplineSet
368 -34 m 1,0,1
 356 -36 356 -36 342 -36 c 0,2,3
 254 -36 254 -36 241 24 c 1,4,-1
 241 29 l 1,5,6
 244 82 244 82 256 139 c 1,7,-1
 252 1088 l 1,8,-1
 252 1273 l 1,9,-1
 240 1421 l 1,10,11
 240 1492 240 1492 253 1509 c 0,12,13
 273 1535 273 1535 329 1535 c 1,14,-1
 354 1534 l 1,15,-1
 380 1534 l 1,16,-1
 743 1546 l 1,17,18
 1026 1546 1026 1546 1150 1416 c 0,19,20
 1250 1311 1250 1311 1250 1121.5 c 128,-1,21
 1250 932 1250 932 1081 810 c 1,22,23
 1193 785 1193 785 1264 707 c 1,24,25
 1359 593 1359 593 1359 477.5 c 128,-1,26
 1359 362 1359 362 1336 281.5 c 128,-1,27
 1313 201 1313 201 1270 143 c 128,-1,28
 1227 85 1227 85 1166.5 47.5 c 128,-1,29
 1106 10 1106 10 1031 -12 c 0,30,31
 899 -52 899 -52 685 -52 c 2,32,-1
 651 -52 l 2,33,34
 555 -52 555 -52 494 -44 c 1,35,-1
 455 -44 l 2,36,37
 395 -44 395 -44 368 -34 c 1,0,1
429 1241 m 1,38,39
 429 1054 429 1054 427 862 c 1,40,41
 520 847 520 847 627 847 c 128,-1,42
 734 847 734 847 824 864.5 c 128,-1,43
 914 882 914 882 970 916 c 0,44,45
 1075 981 1075 981 1075 1118 c 0,46,47
 1075 1261 1075 1261 996 1326 c 0,48,49
 916 1391 916 1391 739 1391 c 2,50,-1
 711 1391 l 2,51,52
 628 1391 628 1391 427 1385 c 1,53,-1
 428 1328 l 1,54,-1
 429 1241 l 1,38,39
736 700.5 m 128,-1,56
 668 693 668 693 584 693 c 128,-1,57
 500 693 500 693 426 701 c 1,58,-1
 426 319 l 2,59,60
 426 234 426 234 427 130 c 1,61,62
 519 113 519 113 615 113 c 128,-1,63
 711 113 711 113 771 115.5 c 128,-1,64
 831 118 831 118 889.5 128.5 c 128,-1,65
 948 139 948 139 1002 160 c 128,-1,66
 1056 181 1056 181 1097 216 c 0,67,68
 1187 294 1187 294 1187 435 c 0,69,70
 1187 564 1187 564 1079 644 c 1,71,72
 989 712 989 712 881 712 c 1,73,-1
 858 711 l 1,74,-1
 855 711 l 1,75,55
 804 708 804 708 736 700.5 c 128,-1,56
EndSplineSet
EndChar

StartChar: C
Encoding: 67 67 57
Width: 1538
GlyphClass: 2
Flags: W
LayerCount: 2
Fore
SplineSet
175 551 m 128,-1,1
 152 647 152 647 152 768 c 128,-1,2
 152 889 152 889 183.5 1002 c 128,-1,3
 215 1115 215 1115 269.5 1203 c 128,-1,4
 324 1291 324 1291 398 1354.5 c 128,-1,5
 472 1418 472 1418 558 1459 c 0,6,7
 724 1539 724 1539 923 1539 c 0,8,9
 1068 1539 1068 1539 1219 1490 c 0,10,11
 1241 1482 1241 1482 1261 1477.5 c 128,-1,12
 1281 1473 1281 1473 1298.5 1466 c 128,-1,13
 1316 1459 1316 1459 1329 1452 c 128,-1,14
 1342 1445 1342 1445 1352 1436 c 0,15,16
 1375 1415 1375 1415 1375 1384 c 128,-1,17
 1375 1353 1375 1353 1365.5 1334.5 c 128,-1,18
 1356 1316 1356 1316 1342 1305 c 0,19,20
 1315 1285 1315 1285 1290 1285 c 128,-1,21
 1265 1285 1265 1285 1250.5 1289.5 c 128,-1,22
 1236 1294 1236 1294 1220 1300 c 0,23,24
 1188 1314 1188 1314 1163 1333 c 1,25,26
 1059 1375 1059 1375 931 1375 c 2,27,-1
 899 1375 l 2,28,29
 669 1375 669 1375 511 1236 c 0,30,31
 327 1074 327 1074 327 779 c 0,32,33
 327 354 327 354 634 208 c 0,34,35
 758 149 758 149 911 149 c 0,36,37
 1060 149 1060 149 1176 192 c 0,38,39
 1206 204 1206 204 1226 220.5 c 128,-1,40
 1246 237 1246 237 1264.5 250 c 128,-1,41
 1283 263 1283 263 1313 263 c 0,42,43
 1383 263 1383 263 1395 203 c 0,44,45
 1397 194 1397 194 1397 175 c 128,-1,46
 1397 156 1397 156 1375 126.5 c 128,-1,47
 1353 97 1353 97 1288 67 c 1,48,49
 1204 19 1204 19 1030 -8 c 0,50,51
 974 -16 974 -16 886.5 -16 c 128,-1,52
 799 -16 799 -16 694.5 12.5 c 128,-1,53
 590 41 590 41 504.5 92 c 128,-1,54
 419 143 419 143 353 214 c 128,-1,55
 287 285 287 285 242.5 370 c 128,-1,0
 198 455 198 455 175 551 c 128,-1,1
EndSplineSet
EndChar

StartChar: D
Encoding: 68 68 58
Width: 1706
GlyphClass: 2
Flags: W
LayerCount: 2
Fore
SplineSet
662 -2 m 2,0,-1
 571 -2 l 2,1,2
 499 -2 499 -2 428 25 c 1,3,4
 415 21 415 21 382 21 c 128,-1,5
 349 21 349 21 328.5 42.5 c 128,-1,6
 308 64 308 64 308 109 c 1,7,-1
 315 154 l 1,8,9
 316 174 316 174 316 212 c 2,10,-1
 316 305 l 2,11,12
 316 366 316 366 315.5 443.5 c 128,-1,13
 315 521 315 521 314 609 c 1,14,-1
 314 792 l 1,15,16
 312 988 312 988 310 1130.5 c 128,-1,17
 308 1273 308 1273 306.5 1320.5 c 128,-1,18
 305 1368 305 1368 304.5 1373.5 c 128,-1,19
 304 1379 304 1379 304 1386 c 1,20,21
 276 1427 276 1427 276 1473 c 0,22,23
 276 1546 276 1546 355 1546 c 1,24,-1
 476 1534 l 1,25,-1
 714 1545 l 1,26,27
 1254 1545 1254 1545 1438 1177 c 0,28,29
 1515 1023 1515 1023 1515 825 c 0,30,31
 1515 523 1515 523 1330 286 c 0,32,33
 1193 110 1193 110 949 36 c 0,34,35
 823 -2 823 -2 662 -2 c 2,0,-1
482 181 m 1,36,37
 544 167 544 167 600 167 c 2,38,-1
 674 167 l 2,39,40
 919 167 919 167 1083 284 c 0,41,42
 1214 377 1214 377 1282 535 c 0,43,44
 1334 655 1334 655 1334 801 c 128,-1,45
 1334 947 1334 947 1289.5 1064 c 128,-1,46
 1245 1181 1245 1181 1161 1250 c 0,47,48
 1007 1378 1007 1378 676 1378 c 0,49,50
 632 1378 632 1378 580 1375 c 2,51,-1
 476 1369 l 1,52,-1
 482 181 l 1,36,37
EndSplineSet
EndChar

StartChar: E
Encoding: 69 69 59
Width: 1368
GlyphClass: 2
Flags: W
LayerCount: 2
Fore
SplineSet
332 0 m 2,0,1
 238 0 238 0 238 87 c 0,2,3
 238 116 238 116 249.5 149 c 128,-1,4
 261 182 261 182 261 190 c 2,5,-1
 238 1422 l 1,6,7
 238 1521 238 1521 304 1528 c 0,8,9
 323 1530 323 1530 343 1530 c 2,10,-1
 939 1530 l 2,11,12
 945 1530 945 1530 955 1531 c 2,13,14
 955 1531 955 1531 996 1535 c 0,15,16
 1007 1536 1007 1536 1025 1536 c 128,-1,17
 1043 1536 1043 1536 1062 1531 c 128,-1,18
 1081 1526 1081 1526 1092 1516 c 0,19,20
 1110 1500 1110 1500 1110 1462.5 c 128,-1,21
 1110 1425 1110 1425 1101 1406.5 c 128,-1,22
 1092 1388 1092 1388 1078 1378 c 0,23,24
 1056 1363 1056 1363 1009 1366 c 2,25,-1
 947 1369 l 1,26,-1
 418 1368 l 1,27,-1
 421 983 l 1,28,29
 433 982 433 982 478 982 c 2,30,-1
 714 981 l 2,31,32
 862 981 862 981 1010 981 c 1,33,-1
 1162 991 l 1,34,35
 1201 991 1201 991 1220 970 c 0,36,37
 1250 938 1250 938 1250 907 c 0,38,39
 1250 829 1250 829 1148 829 c 2,40,-1
 421 828 l 1,41,-1
 425 237 l 2,42,43
 425 183 425 183 440 162 c 1,44,-1
 472 162 l 1,45,46
 505 161 505 161 555 161 c 0,47,48
 738 161 738 161 845.5 161 c 128,-1,49
 953 161 953 161 979 162 c 128,-1,50
 1005 163 1005 163 1028 164 c 1,51,-1
 1073 168 l 2,52,53
 1095 169 1095 169 1119 169 c 0,54,55
 1237 169 1237 169 1237 94 c 0,56,57
 1237 9 1237 9 1137 2 c 0,58,59
 1108 0 1108 0 1078 0 c 2,60,-1
 332 0 l 2,0,1
EndSplineSet
EndChar

StartChar: F
Encoding: 70 70 60
Width: 1368
GlyphClass: 2
Flags: W
LayerCount: 2
Fore
SplineSet
341 3 m 0,0,1
 256 3 256 3 256 105 c 0,2,3
 256 127 256 127 257 152 c 2,4,-1
 259 199 l 2,5,6
 261 245 261 245 261 274 c 2,7,-1
 238 1426 l 1,8,9
 238 1539 238 1539 303 1539 c 1,10,-1
 448 1531 l 1,11,-1
 1038 1531 l 2,12,13
 1109 1531 1109 1531 1138.5 1514 c 128,-1,14
 1168 1497 1168 1497 1168 1451.5 c 128,-1,15
 1168 1406 1168 1406 1136.5 1389 c 128,-1,16
 1105 1372 1105 1372 1040 1372 c 2,17,-1
 421 1373 l 1,18,-1
 428 925 l 1,19,20
 461 924 461 924 494 924 c 2,21,-1
 563 924 l 1,22,-1
 1162 933 l 2,23,24
 1201 933 1201 933 1220 912 c 0,25,26
 1250 880 1250 880 1250 849 c 0,27,28
 1250 771 1250 771 1148 771 c 2,29,-1
 428 770 l 1,30,-1
 428 256 l 2,31,32
 428 227 428 227 436 189 c 2,33,-1
 449 130 l 2,34,35
 453 111 453 111 453 92.5 c 128,-1,36
 453 74 453 74 448 57 c 128,-1,37
 443 40 443 40 430 28 c 0,38,39
 404 3 404 3 341 3 c 0,0,1
EndSplineSet
EndChar

StartChar: G
Encoding: 71 71 61
Width: 1707
GlyphClass: 2
Flags: W
LayerCount: 2
Fore
SplineSet
1296 682 m 1,0,-1
 1285 833 l 1,1,2
 1285 881 1285 881 1338 903 c 0,3,4
 1358 911 1358 911 1396.5 911 c 128,-1,5
 1435 911 1435 911 1461.5 890 c 128,-1,6
 1488 869 1488 869 1488 842 c 128,-1,7
 1488 815 1488 815 1487 793 c 128,-1,8
 1486 771 1486 771 1485 738 c 2,9,-1
 1482 658 l 1,10,11
 1477 483 1477 483 1477 146 c 1,12,13
 1474 23 1474 23 1383 12 c 0,14,15
 1356 8 1356 8 1331 8 c 128,-1,16
 1306 8 1306 8 1274 6 c 2,17,-1
 1206 0 l 2,18,19
 1109 -8 1109 -8 1067 -8 c 0,20,21
 657 -8 657 -8 416 218 c 0,22,23
 306 322 306 322 249 459.5 c 128,-1,24
 192 597 192 597 192 773.5 c 128,-1,25
 192 950 192 950 250.5 1099.5 c 128,-1,26
 309 1249 309 1249 412 1349 c 0,27,28
 618 1548 618 1548 965 1548 c 0,29,30
 1088 1548 1088 1548 1276 1500 c 1,31,-1
 1386 1473 l 1,32,33
 1417 1459 1417 1459 1434 1439.5 c 128,-1,34
 1451 1420 1451 1420 1451 1387.5 c 128,-1,35
 1451 1355 1451 1355 1443 1334 c 128,-1,36
 1435 1313 1435 1313 1422 1300 c 0,37,38
 1391 1271 1391 1271 1353.5 1289 c 128,-1,39
 1316 1307 1316 1307 1257.5 1324.5 c 128,-1,40
 1199 1342 1199 1342 1136 1354 c 0,41,42
 999 1382 999 1382 926.5 1382 c 128,-1,43
 854 1382 854 1382 791 1367.5 c 128,-1,44
 728 1353 728 1353 667.5 1322.5 c 128,-1,45
 607 1292 607 1292 553 1244 c 128,-1,46
 499 1196 499 1196 458 1130 c 0,47,48
 370 986 370 986 370 788 c 0,49,50
 370 348 370 348 753 208 c 0,51,52
 903 154 903 154 1065 154 c 128,-1,53
 1227 154 1227 154 1304 170 c 1,54,55
 1304 470 1304 470 1296 682 c 1,0,-1
EndSplineSet
EndChar

StartChar: H
Encoding: 72 72 62
Width: 1707
GlyphClass: 2
Flags: W
LayerCount: 2
Fore
SplineSet
493 63 m 0,0,1
 493 -16 493 -16 399 -16 c 0,2,3
 337 -16 337 -16 320 -2 c 0,4,5
 294 20 294 20 294 63 c 1,6,-1
 301 272 l 1,7,8
 301 353 301 353 298 457 c 2,9,-1
 294 638 l 1,10,11
 285 978 285 978 283 1348 c 1,12,13
 283 1348 283 1348 272 1466 c 1,14,15
 272 1509 272 1509 292 1523 c 0,16,17
 326 1547 326 1547 371.5 1547 c 128,-1,18
 417 1547 417 1547 429 1539 c 128,-1,19
 441 1531 441 1531 449 1519 c 0,20,21
 465 1495 465 1495 465 1468 c 2,22,-1
 459 1269 l 1,23,-1
 459 1018 l 1,24,25
 504 1018 504 1018 562 1016 c 2,26,-1
 796 1010 l 2,27,28
 854 1009 854 1009 954 1009 c 128,-1,29
 1054 1009 1054 1009 1112 1014 c 0,30,31
 1199 1022 1199 1022 1233 1023 c 1,32,33
 1234 1068 1234 1068 1234 1114 c 2,34,-1
 1234 1348 l 2,35,36
 1234 1377 1234 1377 1228 1402.5 c 128,-1,37
 1222 1428 1222 1428 1222 1457 c 128,-1,38
 1222 1486 1222 1486 1228 1501.5 c 128,-1,39
 1234 1517 1234 1517 1248 1527 c 0,40,41
 1278 1547 1278 1547 1323 1547 c 128,-1,42
 1368 1547 1368 1547 1380 1539 c 128,-1,43
 1392 1531 1392 1531 1400 1519 c 0,44,45
 1414 1496 1414 1496 1414 1468 c 2,46,-1
 1404 545 l 1,47,48
 1404 283 1404 283 1413.5 215.5 c 128,-1,49
 1423 148 1423 148 1426 128 c 0,50,51
 1434 87 1434 87 1434 63 c 0,52,53
 1434 -16 1434 -16 1340 -16 c 0,54,55
 1275 -16 1275 -16 1251 3.5 c 128,-1,56
 1227 23 1227 23 1227 52 c 128,-1,57
 1227 81 1227 81 1229.5 102 c 128,-1,58
 1232 123 1232 123 1234 148 c 0,59,60
 1242 223 1242 223 1242 272 c 1,61,-1
 1232 749 l 1,62,-1
 1232 856 l 1,63,64
 1219 857 1219 857 1204 857 c 2,65,-1
 1121 857 l 2,66,67
 1105 857 1105 857 1057 856.5 c 128,-1,68
 1009 856 1009 856 943.5 855.5 c 128,-1,69
 878 855 878 855 804 854 c 2,70,-1
 661 852 l 2,71,72
 537 850 537 850 461 847 c 1,73,-1
 461 770 l 2,74,75
 461 337 461 337 486 166 c 0,76,77
 493 113 493 113 493 63 c 0,0,1
EndSplineSet
EndChar

StartChar: I
Encoding: 73 73 63
Width: 856
GlyphClass: 2
Flags: W
LayerCount: 2
Fore
SplineSet
528 73 m 0,0,1
 528 -6 528 -6 434 -6 c 0,2,3
 369 -6 369 -6 345 13.5 c 128,-1,4
 321 33 321 33 321 62 c 128,-1,5
 321 91 321 91 323.5 112 c 128,-1,6
 326 133 326 133 328 158 c 0,7,8
 336 233 336 233 336 285 c 2,9,-1
 336 390 l 1,10,-1
 327 1346 l 2,11,12
 327 1376 327 1376 321 1401 c 128,-1,13
 315 1426 315 1426 315 1455.5 c 128,-1,14
 315 1485 315 1485 321 1500.5 c 128,-1,15
 327 1516 327 1516 342 1526 c 0,16,17
 370 1546 370 1546 415.5 1546 c 128,-1,18
 461 1546 461 1546 474.5 1537.5 c 128,-1,19
 488 1529 488 1529 497 1517 c 0,20,21
 516 1492 516 1492 516 1467 c 1,22,-1
 506 1414 l 1,23,24
 503 1284 503 1284 503 1066 c 128,-1,25
 503 848 503 848 504 730 c 128,-1,26
 505 612 505 612 506 504 c 0,27,28
 511 195 511 195 516 159 c 128,-1,29
 521 123 521 123 523 112 c 0,30,31
 528 84 528 84 528 73 c 0,0,1
EndSplineSet
EndChar

StartChar: J
Encoding: 74 74 64
Width: 1538
GlyphClass: 2
Flags: W
LayerCount: 2
Fore
SplineSet
1221 1094 m 1,0,-1
 1231 605 l 1,1,2
 1231 134 1231 134 906 31 c 0,3,4
 830 7 830 7 753 7 c 128,-1,5
 676 7 676 7 614 13 c 128,-1,6
 552 19 552 19 490.5 35.5 c 128,-1,7
 429 52 429 52 372.5 81 c 128,-1,8
 316 110 316 110 273 156 c 0,9,10
 178 259 178 259 178 424 c 0,11,12
 178 671 178 671 282 688 c 0,13,14
 294 690 294 690 316.5 690 c 128,-1,15
 339 690 339 690 365 669.5 c 128,-1,16
 391 649 391 649 391 616 c 128,-1,17
 391 583 391 583 386 564 c 2,18,-1
 374 522 l 2,19,20
 356 461 356 461 356 413 c 0,21,22
 356 171 356 171 728 171 c 0,23,24
 893 171 893 171 972 280 c 0,25,26
 1055 393 1055 393 1055 648 c 2,27,-1
 1055 1090 l 2,28,29
 1055 1185 1055 1185 1049 1264 c 0,30,31
 1038 1410 1038 1410 1038 1483 c 0,32,33
 1038 1564 1038 1564 1137 1564 c 0,34,35
 1189 1564 1189 1564 1206.5 1534 c 128,-1,36
 1224 1504 1224 1504 1224 1448 c 2,37,-1
 1221 1094 l 1,0,-1
EndSplineSet
EndChar

StartChar: K
Encoding: 75 75 65
Width: 1538
GlyphClass: 2
Flags: W
LayerCount: 2
Fore
SplineSet
478 52 m 0,0,1
 478 -26 478 -26 376 -26 c 0,2,3
 325 -26 325 -26 300 22 c 0,4,5
 290 42 290 42 290 68 c 128,-1,6
 290 94 290 94 296 124 c 1,7,-1
 285 1447 l 1,8,9
 283 1549 283 1549 381 1549 c 0,10,11
 417 1549 417 1549 444.5 1529 c 128,-1,12
 472 1509 472 1509 472 1474 c 2,13,-1
 472 1379 l 2,14,15
 472 1319 472 1319 471.5 1240.5 c 128,-1,16
 471 1162 471 1162 470.5 1069 c 128,-1,17
 470 976 470 976 469 877 c 1,18,-1
 1071 1423 l 1,19,20
 1094 1456 1094 1456 1133 1487 c 0,21,22
 1209 1546 1209 1546 1236 1546 c 128,-1,23
 1263 1546 1263 1546 1279 1541.5 c 128,-1,24
 1295 1537 1295 1537 1308 1527 c 0,25,26
 1335 1505 1335 1505 1335 1470.5 c 128,-1,27
 1335 1436 1335 1436 1326 1417 c 128,-1,28
 1317 1398 1317 1398 1303 1383 c 128,-1,29
 1289 1368 1289 1368 1270 1356 c 2,30,-1
 1232 1333 l 1,31,-1
 1089 1212 l 1,32,-1
 593 805 l 1,33,34
 767 787 767 787 920 582 c 0,35,36
 963 523 963 523 1002 464 c 2,37,-1
 1077 347 l 1,38,39
 1202 149 1202 149 1292 149 c 0,40,41
 1380 149 1380 149 1408 118 c 0,42,43
 1421 103 1421 103 1421 73.5 c 128,-1,44
 1421 44 1421 44 1406 25.5 c 128,-1,45
 1391 7 1391 7 1368 -2 c 0,46,47
 1331 -16 1331 -16 1266.5 -16 c 128,-1,48
 1202 -16 1202 -16 1152.5 13.5 c 128,-1,49
 1103 43 1103 43 1057 91.5 c 128,-1,50
 1011 140 1011 140 968 202 c 2,51,-1
 795 454 l 1,52,53
 639 671 639 671 491 671 c 2,54,-1
 468 671 l 1,55,-1
 467 398 l 1,56,-1
 467 173 l 1,57,58
 478 81 478 81 478 52 c 0,0,1
563 807 m 1,59,60
 563 808 563 808 562.5 808 c 128,-1,61
 562 808 562 808 560 807 c 1,62,-1
 563 807 l 1,59,60
EndSplineSet
EndChar

StartChar: L
Encoding: 76 76 66
Width: 1198
GlyphClass: 2
Flags: W
LayerCount: 2
Fore
SplineSet
972 185 m 0,0,1
 1082 185 1082 185 1082 93 c 0,2,3
 1082 14 1082 14 988 3 c 0,4,5
 962 0 962 0 935 0 c 2,6,-1
 396 0 l 2,7,8
 327 0 327 0 312 45.5 c 128,-1,9
 297 91 297 91 315 142 c 0,10,11
 323 163 323 163 324 186 c 1,12,-1
 299 1423 l 2,13,14
 299 1430 299 1430 299 1447 c 128,-1,15
 299 1464 299 1464 302.5 1485.5 c 128,-1,16
 306 1507 306 1507 316 1521 c 0,17,18
 336 1547 336 1547 375.5 1547 c 128,-1,19
 415 1547 415 1547 433.5 1542 c 128,-1,20
 452 1537 452 1537 462 1526 c 0,21,22
 482 1504 482 1504 482 1467 c 128,-1,23
 482 1430 482 1430 482.5 1368.5 c 128,-1,24
 483 1307 483 1307 483.5 1216.5 c 128,-1,25
 484 1126 484 1126 485 1016 c 2,26,-1
 489 570 l 2,27,28
 490 461 490 461 491 375 c 128,-1,29
 492 289 492 289 492.5 234 c 128,-1,30
 493 179 493 179 494 171 c 1,31,-1
 591 171 l 2,32,33
 781 171 781 171 837.5 175 c 128,-1,34
 894 179 894 179 921 182 c 128,-1,35
 948 185 948 185 972 185 c 0,0,1
EndSplineSet
EndChar

StartChar: M
Encoding: 77 77 67
Width: 2047
GlyphClass: 2
Flags: W
LayerCount: 2
Fore
SplineSet
68 44 m 0,0,1
 57 60 57 60 57 73.5 c 128,-1,2
 57 87 57 87 60 98.5 c 128,-1,3
 63 110 63 110 68 122 c 2,4,-1
 76 146 l 1,5,6
 86 170 86 170 98 206 c 2,7,-1
 478 1353 l 1,8,-1
 502 1442 l 2,9,10
 512 1478 512 1478 524 1490 c 0,11,12
 552 1518 552 1518 601 1518 c 0,13,14
 658 1518 658 1518 680 1484 c 0,15,16
 684 1478 684 1478 694 1452 c 2,17,-1
 736 1330 l 2,18,19
 747 1299 747 1299 752 1283 c 2,20,-1
 990 569 l 1,21,-1
 1021 456 l 1,22,-1
 1047 568 l 1,23,24
 1293 1291 1293 1291 1306 1331 c 2,25,-1
 1322 1382 l 2,26,27
 1326 1393 1326 1393 1333 1412 c 2,28,-1
 1346 1448 l 1,29,30
 1366 1498 1366 1498 1391 1510 c 1,31,32
 1410 1518 1410 1518 1441 1518 c 0,33,34
 1493 1518 1493 1518 1516 1490 c 1,35,-1
 1581 1331 l 2,36,37
 1594 1299 1594 1299 1634 1176 c 2,38,-1
 1932 242 l 2,39,40
 1940 217 1940 217 1948 194 c 1,41,42
 1989 116 1989 116 1989 78 c 128,-1,43
 1989 40 1989 40 1959.5 16.5 c 128,-1,44
 1930 -7 1930 -7 1893 -7 c 0,45,46
 1829 -7 1829 -7 1809 33 c 0,47,48
 1794 62 1794 62 1786.5 102 c 128,-1,49
 1779 142 1779 142 1767 184 c 0,50,51
 1606 714 1606 714 1564 842 c 0,52,53
 1476 1106 1476 1106 1440 1204 c 1,54,55
 1417 1146 1417 1146 1393 1074 c 0,56,57
 1219 538 1219 538 1189 454 c 128,-1,58
 1159 370 1159 370 1142 328 c 0,59,60
 1116 266 1116 266 1116 229 c 128,-1,61
 1116 192 1116 192 1107 179 c 128,-1,62
 1098 166 1098 166 1084 158 c 0,63,64
 1058 143 1058 143 1017 143 c 0,65,66
 954 143 954 143 927 191 c 0,67,68
 918 207 918 207 918 228 c 0,69,70
 918 254 918 254 901 313 c 0,71,72
 843 509 843 509 814 598 c 0,73,74
 690 968 690 968 657 1058 c 2,75,-1
 602 1204 l 1,76,77
 530 1001 530 1001 494 890 c 0,78,79
 351 436 351 436 321 330 c 2,80,-1
 272 157 l 1,81,82
 258 113 258 113 251 84 c 128,-1,83
 244 55 244 55 230 32 c 0,84,85
 207 -7 207 -7 167 -7 c 0,86,87
 100 -7 100 -7 68 44 c 0,0,1
EndSplineSet
EndChar

StartChar: N
Encoding: 78 78 68
Width: 1877
GlyphClass: 2
Flags: W
LayerCount: 2
Fore
SplineSet
473 152 m 2,0,-1
 475 94 l 1,1,2
 475 19 475 19 428 -2 c 0,3,4
 410 -11 410 -11 374.5 -11 c 128,-1,5
 339 -11 339 -11 311 7 c 128,-1,6
 283 25 283 25 283 57 c 1,7,-1
 291 160 l 1,8,-1
 301 611 l 1,9,-1
 301 784 l 2,10,11
 301 1110 301 1110 295 1287 c 1,12,-1
 284 1366 l 2,13,14
 279 1396 279 1396 279 1429.5 c 128,-1,15
 279 1463 279 1463 294.5 1484.5 c 128,-1,16
 310 1506 310 1506 354 1514 c 1,17,18
 385 1543 385 1543 421.5 1543 c 128,-1,19
 458 1543 458 1543 474.5 1530 c 128,-1,20
 491 1517 491 1517 503 1500 c 0,21,22
 522 1473 522 1473 533 1437 c 1,23,24
 554 1402 554 1402 599 1340 c 1,25,-1
 704 1201 l 1,26,-1
 1094 710 l 1,27,-1
 1391 317 l 1,28,-1
 1391 392 l 1,29,-1
 1392 589 l 1,30,-1
 1392 800 l 1,31,-1
 1377 1445 l 1,32,33
 1377 1507 1377 1507 1396 1523 c 0,34,35
 1424 1548 1424 1548 1465 1548 c 128,-1,36
 1506 1548 1506 1548 1523 1534.5 c 128,-1,37
 1540 1521 1540 1521 1549 1500 c 0,38,39
 1562 1470 1562 1470 1562 1435 c 2,40,-1
 1562 1356 l 1,41,-1
 1561 1081 l 1,42,-1
 1561 718 l 1,43,-1
 1562 387 l 1,44,-1
 1562 242 l 1,45,-1
 1570 110 l 1,46,47
 1570 47 1570 47 1550.5 20 c 128,-1,48
 1531 -7 1531 -7 1483 -7 c 0,49,50
 1390 -7 1390 -7 1369 62 c 1,51,-1
 464 1254 l 1,52,53
 465 995 465 995 466 815 c 2,54,-1
 469 516 l 2,55,56
 470 396 470 396 470.5 327.5 c 128,-1,57
 471 259 471 259 471.5 223 c 128,-1,58
 472 187 472 187 472.5 174 c 128,-1,59
 473 161 473 161 473 152 c 2,0,-1
EndSplineSet
EndChar

StartChar: O
Encoding: 79 79 69
Width: 1707
GlyphClass: 2
Flags: W
LayerCount: 2
Fore
SplineSet
199.5 457.5 m 128,-1,1
 151 601 151 601 151 770.5 c 128,-1,2
 151 940 151 940 199.5 1083 c 128,-1,3
 248 1226 248 1226 338 1328 c 0,4,5
 527 1544 527 1544 842 1544 c 0,6,7
 1169 1544 1169 1544 1354 1328 c 0,8,9
 1533 1120 1533 1120 1533 766 c 0,10,11
 1533 428 1533 428 1346 208 c 0,12,13
 1152 -20 1152 -20 842 -20 c 0,14,15
 684 -20 684 -20 556 41 c 128,-1,16
 428 102 428 102 338 208 c 128,-1,0
 248 314 248 314 199.5 457.5 c 128,-1,1
330 776 m 0,17,18
 330 646 330 646 364 533.5 c 128,-1,19
 398 421 398 421 464 333 c 0,20,21
 608 139 608 139 845 139 c 0,22,23
 1088 139 1088 139 1227 333 c 0,24,25
 1352 508 1352 508 1352 766 c 0,26,27
 1352 1034 1352 1034 1229 1201 c 0,28,29
 1095 1383 1095 1383 845 1383 c 0,30,31
 600 1383 600 1383 464 1216 c 0,32,33
 330 1053 330 1053 330 776 c 0,17,18
EndSplineSet
EndChar

StartChar: P
Encoding: 80 80 70
Width: 1534
GlyphClass: 2
Flags: W
LayerCount: 2
Fore
SplineSet
555 1534 m 1,0,-1
 719 1537 l 1,1,2
 1007 1537 1007 1537 1187 1388 c 1,3,4
 1376 1233 1376 1233 1376 966 c 0,5,6
 1376 528 1376 528 972 398 c 0,7,8
 816 347 816 347 610 347 c 2,9,-1
 578 347 l 2,10,11
 563 347 563 347 548 348 c 1,12,-1
 516 348 l 1,13,14
 499 349 499 349 478 350 c 1,15,-1
 478 260 l 2,16,17
 478 179 478 179 481 161 c 2,18,-1
 486 129 l 2,19,20
 493 90 493 90 493 63.5 c 128,-1,21
 493 37 493 37 483.5 23 c 128,-1,22
 474 9 474 9 460 0 c 0,23,24
 397 -36 397 -36 331 3 c 0,25,26
 296 24 296 24 296 57 c 0,27,28
 296 64 296 64 296 70 c 2,29,-1
 306 204 l 1,30,-1
 302 1381 l 1,31,32
 287 1416 287 1416 287 1445.5 c 128,-1,33
 287 1475 287 1475 292 1490 c 128,-1,34
 297 1505 297 1505 308 1517 c 0,35,36
 330 1543 330 1543 369 1543 c 1,37,-1
 555 1534 l 1,0,-1
789.5 1379.5 m 128,-1,39
 737 1385 737 1385 708 1385 c 128,-1,40
 679 1385 679 1385 471 1381 c 1,41,-1
 479 514 l 1,42,43
 501 513 501 513 527.5 511.5 c 128,-1,44
 554 510 554 510 578 509 c 0,45,46
 628 507 628 507 700 507 c 128,-1,47
 772 507 772 507 859 526 c 128,-1,48
 946 545 946 545 1006.5 578.5 c 128,-1,49
 1067 612 1067 612 1103.5 657.5 c 128,-1,50
 1140 703 1140 703 1160 755 c 0,51,52
 1194 840 1194 840 1194 952.5 c 128,-1,53
 1194 1065 1194 1065 1168.5 1130.5 c 128,-1,54
 1143 1196 1143 1196 1101 1241.5 c 128,-1,55
 1059 1287 1059 1287 1006 1315 c 128,-1,56
 953 1343 953 1343 897.5 1358.5 c 128,-1,38
 842 1374 842 1374 789.5 1379.5 c 128,-1,39
EndSplineSet
EndChar

StartChar: Q
Encoding: 81 81 71
Width: 1707
GlyphClass: 2
Flags: W
LayerCount: 2
Fore
SplineSet
1203 93 m 1,0,1
 1046 -1 1046 -1 871 -1 c 128,-1,2
 696 -1 696 -1 568 60 c 128,-1,3
 440 121 440 121 350 227 c 0,4,5
 163 447 163 447 163 785 c 0,6,7
 163 1135 163 1135 350 1348 c 0,8,9
 539 1563 539 1563 854 1563 c 0,10,11
 1181 1563 1181 1563 1366 1348 c 0,12,13
 1545 1139 1545 1139 1545 785 c 0,14,15
 1545 605 1545 605 1488.5 453 c 128,-1,16
 1432 301 1432 301 1328 193 c 1,17,18
 1395 131 1395 131 1411 121 c 0,19,20
 1465 89 1465 89 1502 106 c 0,21,22
 1515 111 1515 111 1528 118 c 0,23,24
 1597 154 1597 154 1640 114 c 1,25,26
 1663 91 1663 91 1663 55 c 128,-1,27
 1663 19 1663 19 1649 -3.5 c 128,-1,28
 1635 -26 1635 -26 1612 -41 c 0,29,30
 1564 -71 1564 -71 1496 -71 c 0,31,32
 1372 -71 1372 -71 1232 65 c 2,33,-1
 1203 93 l 1,0,1
866 363 m 1,34,-1
 819 360 l 1,35,36
 752 360 752 360 722 398 c 0,37,38
 709 415 709 415 709 442 c 0,39,40
 709 528 709 528 817 528 c 0,41,42
 987 528 987 528 1106 419 c 0,43,44
 1143 385 1143 385 1165 361 c 0,45,46
 1200 323 1200 323 1209 314 c 1,47,48
 1364 495 1364 495 1364 785 c 0,49,50
 1364 1053 1364 1053 1241 1220 c 0,51,52
 1107 1402 1107 1402 857 1402 c 0,53,54
 612 1402 612 1402 476 1235 c 0,55,56
 342 1072 342 1072 342 785 c 0,57,58
 342 531 342 531 476 352 c 0,59,60
 620 158 620 158 857 158 c 0,61,62
 988 158 988 158 1089 216 c 1,63,-1
 1037 269 l 1,64,65
 941 363 941 363 866 363 c 1,34,-1
EndSplineSet
EndChar

StartChar: R
Encoding: 82 82 72
Width: 1539
GlyphClass: 2
Flags: W
LayerCount: 2
Fore
SplineSet
412 420 m 1,0,-1
 411 364 l 1,1,-1
 411 309 l 2,2,3
 411 248 411 248 420 191 c 2,4,-1
 432 108 l 2,5,6
 435 83 435 83 435 62 c 0,7,8
 435 24 435 24 402 2 c 0,9,10
 342 -39 342 -39 269 4 c 0,11,12
 225 31 225 31 225 93 c 1,13,-1
 237 229 l 1,14,-1
 233 1381 l 1,15,16
 218 1416 218 1416 218 1453.5 c 128,-1,17
 218 1491 218 1491 238 1515.5 c 128,-1,18
 258 1540 258 1540 299 1540 c 1,19,-1
 487 1534 l 2,20,21
 510 1534 510 1534 540 1534 c 2,22,-1
 600 1536 l 2,23,24
 628 1536 628 1536 650.5 1536.5 c 128,-1,25
 673 1537 673 1537 680 1537 c 0,26,27
 1154 1537 1154 1537 1288 1265 c 0,28,29
 1335 1171 1335 1171 1335 1058.5 c 128,-1,30
 1335 946 1335 946 1314.5 868 c 128,-1,31
 1294 790 1294 790 1259.5 727 c 128,-1,32
 1225 664 1225 664 1180 616 c 128,-1,33
 1135 568 1135 568 1086 534 c 0,34,35
 989 468 989 468 892 448 c 1,36,37
 910 301 910 301 958 233 c 0,38,39
 1018 149 1018 149 1146 149 c 0,40,41
 1233 149 1233 149 1289 194 c 0,42,43
 1295 200 1295 200 1301 210.5 c 128,-1,44
 1307 221 1307 221 1315 232 c 0,45,46
 1347 274 1347 274 1392 266 c 1,47,48
 1442 259 1442 259 1456 210 c 0,49,50
 1460 198 1460 198 1460 184 c 0,51,52
 1460 135 1460 135 1422 94 c 1,53,54
 1384 46 1384 46 1307 15 c 128,-1,55
 1230 -16 1230 -16 1140.5 -16 c 128,-1,56
 1051 -16 1051 -16 992 5 c 128,-1,57
 933 26 933 26 888.5 61 c 128,-1,58
 844 96 844 96 812 141.5 c 128,-1,59
 780 187 780 187 758 235 c 0,60,61
 721 317 721 317 700 417 c 1,62,-1
 478 420 l 1,63,-1
 412 420 l 1,0,-1
658 1385 m 2,64,-1
 406 1381 l 1,65,66
 404 1337 404 1337 403.5 1301.5 c 128,-1,67
 403 1266 403 1266 402 1232 c 128,-1,68
 401 1198 401 1198 401 1164 c 2,69,-1
 401 1088 l 2,70,71
 401 934 401 934 403 852 c 2,72,-1
 406 710 l 2,73,74
 408 650 408 650 411 588 c 1,75,76
 433 586 433 586 472 585 c 128,-1,77
 511 584 511 584 550 582 c 0,78,79
 616 580 616 580 663 580 c 0,80,81
 935 580 935 580 1054 725 c 0,82,83
 1148 840 1148 840 1148 1050 c 0,84,85
 1148 1197 1148 1197 1056 1280 c 0,86,87
 953 1373 953 1373 750 1382 c 0,88,89
 698 1385 698 1385 658 1385 c 2,64,-1
EndSplineSet
EndChar

StartChar: S
Encoding: 83 83 73
Width: 1368
GlyphClass: 2
Flags: W
LayerCount: 2
Fore
SplineSet
377 417 m 1,0,-1
 369 298 l 1,1,2
 369 222 369 222 470 179 c 0,3,4
 557 142 557 142 647 142 c 128,-1,5
 737 142 737 142 798 155.5 c 128,-1,6
 859 169 859 169 908 200 c 0,7,8
 1017 270 1017 270 1017 404 c 0,9,10
 1017 549 1017 549 858 644 c 0,11,12
 758 703 758 703 674 739 c 128,-1,13
 590 775 590 775 533.5 803 c 128,-1,14
 477 831 477 831 427 865 c 128,-1,15
 377 899 377 899 340 945 c 0,16,17
 258 1045 258 1045 258 1194 c 0,18,19
 258 1356 258 1356 408 1463 c 0,20,21
 543 1559 543 1559 719 1559 c 0,22,23
 863 1559 863 1559 992 1496 c 0,24,25
 1149 1419 1149 1419 1149 1281 c 0,26,27
 1149 1237 1149 1237 1123 1214.5 c 128,-1,28
 1097 1192 1097 1192 1066 1192 c 128,-1,29
 1035 1192 1035 1192 1017.5 1202.5 c 128,-1,30
 1000 1213 1000 1213 989.5 1227.5 c 128,-1,31
 979 1242 979 1242 974 1257 c 128,-1,32
 969 1272 969 1272 958 1295 c 128,-1,33
 947 1318 947 1318 918 1341.5 c 128,-1,34
 889 1365 889 1365 854 1378 c 0,35,36
 793 1401 793 1401 730.5 1401 c 128,-1,37
 668 1401 668 1401 620.5 1389 c 128,-1,38
 573 1377 573 1377 532 1352 c 0,39,40
 436 1295 436 1295 436 1198 c 0,41,42
 436 1116 436 1116 461 1083 c 0,43,44
 499 1032 499 1032 586 978.5 c 128,-1,45
 673 925 673 925 739 894 c 1,46,-1
 869 830 l 1,47,48
 1023 750 1023 750 1096 668 c 0,49,50
 1194 557 1194 557 1194 396 c 0,51,52
 1194 193 1194 193 1027 78 c 0,53,54
 878 -25 878 -25 675 -25 c 0,55,56
 481 -25 481 -25 348 58 c 0,57,58
 189 157 189 157 189 347 c 0,59,60
 189 429 189 429 202 452 c 0,61,62
 226 495 226 495 293 495 c 0,63,64
 328 495 328 495 352.5 473 c 128,-1,65
 377 451 377 451 377 417 c 1,0,-1
EndSplineSet
EndChar

StartChar: T
Encoding: 84 84 74
Width: 1364
GlyphClass: 2
Flags: W
LayerCount: 2
Fore
SplineSet
760 82 m 1,0,1
 760 -17 760 -17 663 -17 c 0,2,3
 575 -17 575 -17 571 74 c 0,4,5
 570 98 570 98 570 121 c 2,6,-1
 568 1357 l 1,7,-1
 331 1356 l 1,8,-1
 245 1345 l 1,9,10
 195 1345 195 1345 178 1408 c 0,11,12
 174 1426 174 1426 174 1448.5 c 128,-1,13
 174 1471 174 1471 183.5 1488.5 c 128,-1,14
 193 1506 193 1506 210 1515 c 0,15,16
 240 1530 240 1530 311 1530 c 2,17,-1
 1074 1530 l 2,18,19
 1138 1530 1138 1530 1162 1486 c 0,20,21
 1171 1470 1171 1470 1171 1448 c 128,-1,22
 1171 1426 1171 1426 1165 1408.5 c 128,-1,23
 1159 1391 1159 1391 1148 1378 c 0,24,25
 1126 1350 1126 1350 1094 1350 c 1,26,-1
 1050 1356 l 1,27,-1
 875 1357 l 2,28,29
 800 1357 800 1357 760 1355 c 1,30,-1
 752 180 l 1,31,-1
 760 82 l 1,0,1
EndSplineSet
EndChar

StartChar: U
Encoding: 85 85 75
Width: 1535
GlyphClass: 2
Flags: W
LayerCount: 2
Fore
SplineSet
1340 1464 m 2,0,-1
 1335 1323 l 1,1,2
 1335 1213 1335 1213 1338 1074 c 2,3,-1
 1342 870 l 2,4,5
 1344 804 1344 804 1344 680.5 c 128,-1,6
 1344 557 1344 557 1308.5 415.5 c 128,-1,7
 1273 274 1273 274 1202 175 c 0,8,9
 1054 -29 1054 -29 772 -29 c 0,10,11
 527 -29 527 -29 366 142 c 0,12,13
 212 305 212 305 203 533 c 1,14,15
 201 755 201 755 197 921.5 c 128,-1,16
 193 1088 193 1088 192 1148 c 0,17,18
 190 1266 190 1266 190 1365 c 128,-1,19
 190 1464 190 1464 206.5 1505.5 c 128,-1,20
 223 1547 223 1547 278 1547 c 0,21,22
 380 1547 380 1547 380 1416 c 0,23,24
 380 1409 380 1409 378.5 1398 c 128,-1,25
 377 1387 377 1387 376 1362 c 2,26,-1
 372 1293 l 2,27,28
 361 1108 361 1108 361 887.5 c 128,-1,29
 361 667 361 667 368 594.5 c 128,-1,30
 375 522 375 522 393 454.5 c 128,-1,31
 411 387 411 387 441.5 328.5 c 128,-1,32
 472 270 472 270 519 227 c 0,33,34
 621 134 621 134 784 134 c 0,35,36
 1164 134 1164 134 1164 728 c 2,37,-1
 1164 806 l 1,38,-1
 1162 1222 l 1,39,-1
 1162 1283 l 1,40,-1
 1152 1449 l 1,41,42
 1152 1546 1152 1546 1244 1546 c 0,43,44
 1319 1546 1319 1546 1336 1494 c 0,45,46
 1340 1479 1340 1479 1340 1464 c 2,0,-1
EndSplineSet
EndChar

StartChar: V
Encoding: 86 86 76
Width: 1371
GlyphClass: 2
Flags: W
LayerCount: 2
Fore
SplineSet
781 54 m 0,0,1
 781 -19 781 -19 679 -19 c 0,2,3
 614 -19 614 -19 596 55 c 0,4,5
 591 75 591 75 564 150 c 1,6,-1
 368 655 l 1,7,-1
 89 1347 l 1,8,9
 60 1422 60 1422 55.5 1441.5 c 128,-1,10
 51 1461 51 1461 51 1473 c 128,-1,11
 51 1485 51 1485 58.5 1500 c 128,-1,12
 66 1515 66 1515 81 1526 c 0,13,14
 108 1546 108 1546 137 1546 c 0,15,16
 194 1546 194 1546 215 1497 c 0,17,18
 228 1468 228 1468 257 1396 c 2,19,20
 257 1396 257 1396 687 290 c 1,21,22
 1085 1334 1085 1334 1114 1417 c 1,23,24
 1116 1459 1116 1459 1136 1491 c 0,25,26
 1173 1549 1173 1549 1222 1549 c 0,27,28
 1284 1549 1284 1549 1312 1493 c 0,29,30
 1320 1476 1320 1476 1320 1456 c 128,-1,31
 1320 1436 1320 1436 1313.5 1415.5 c 128,-1,32
 1307 1395 1307 1395 1298.5 1377 c 128,-1,33
 1290 1359 1290 1359 1281 1344 c 2,34,-1
 1266 1321 l 1,35,36
 1145 1039 1145 1039 1098 922 c 1,37,-1
 776 90 l 1,38,39
 781 70 781 70 781 54 c 0,0,1
EndSplineSet
EndChar

StartChar: W
Encoding: 87 87 77
Width: 2054
GlyphClass: 2
Flags: W
LayerCount: 2
Fore
SplineSet
564 99 m 1,0,1
 142 1235 142 1235 116 1302 c 0,2,3
 68 1422 68 1422 68 1462.5 c 128,-1,4
 68 1503 68 1503 89 1524 c 128,-1,5
 110 1545 110 1545 166 1545 c 0,6,7
 223 1545 223 1545 247 1467 c 1,8,9
 611 456 611 456 663 297 c 1,10,11
 815 726 815 726 848 808 c 2,12,-1
 911 962 l 1,13,-1
 794 1266 l 2,14,15
 777 1308 777 1308 763 1334 c 0,16,17
 724 1408 724 1408 724 1452 c 0,18,19
 724 1539 724 1539 820 1539 c 0,20,21
 862 1539 862 1539 894 1476 c 1,22,23
 903 1463 903 1463 915 1434 c 2,24,-1
 1011 1181 l 1,25,-1
 1039 1240 l 2,26,27
 1054 1271 1054 1271 1073 1322 c 2,28,-1
 1106 1412 l 2,29,30
 1112 1428 1112 1428 1115.5 1451 c 128,-1,31
 1119 1474 1119 1474 1128 1495 c 0,32,33
 1152 1546 1152 1546 1203.5 1546 c 128,-1,34
 1255 1546 1255 1546 1282.5 1520.5 c 128,-1,35
 1310 1495 1310 1495 1310 1464 c 128,-1,36
 1310 1433 1310 1433 1304.5 1414.5 c 128,-1,37
 1299 1396 1299 1396 1290 1376 c 128,-1,38
 1281 1356 1281 1356 1268 1332 c 2,39,-1
 1241 1280 l 1,40,-1
 1146 1056 l 1,41,-1
 1119 985 l 1,42,-1
 1367 297 l 1,43,-1
 1468 576 l 1,44,-1
 1622 1030 l 2,45,46
 1656 1131 1656 1131 1692 1225 c 2,47,-1
 1763 1409 l 1,48,49
 1778 1476 1778 1476 1793 1498 c 0,50,51
 1822 1542 1822 1542 1869 1542 c 128,-1,52
 1916 1542 1916 1542 1939.5 1519.5 c 128,-1,53
 1963 1497 1963 1497 1963 1470 c 128,-1,54
 1963 1443 1963 1443 1961.5 1430 c 128,-1,55
 1960 1417 1960 1417 1956 1404 c 128,-1,56
 1952 1391 1952 1391 1946 1376 c 0,57,58
 1781 962 1781 962 1713 775 c 1,59,-1
 1465 81 l 1,60,61
 1467 75 1467 75 1467 70 c 2,62,-1
 1467 62 l 2,63,64
 1467 29 1467 29 1439.5 5 c 128,-1,65
 1412 -19 1412 -19 1370 -19 c 128,-1,66
 1328 -19 1328 -19 1314 -8.5 c 128,-1,67
 1300 2 1300 2 1292.5 18.5 c 128,-1,68
 1285 35 1285 35 1281 55 c 128,-1,69
 1277 75 1277 75 1244 165 c 1,70,-1
 1008 783 l 1,71,72
 988 735 988 735 966 675 c 1,73,74
 777 129 777 129 759 81 c 1,75,76
 761 75 761 75 761 62 c 2,77,-1
 761 46 l 2,78,79
 761 -1 761 -1 696 -15 c 0,80,81
 678 -19 678 -19 654.5 -19 c 128,-1,82
 631 -19 631 -19 614 -6.5 c 128,-1,83
 597 6 597 6 587 24 c 0,84,85
 574 48 574 48 564 99 c 1,0,1
EndSplineSet
EndChar

StartChar: X
Encoding: 88 88 78
Width: 1540
GlyphClass: 2
Flags: W
LayerCount: 2
Fore
SplineSet
220 54.5 m 128,-1,1
 209 74 209 74 209 101 c 128,-1,2
 209 128 209 128 225.5 146.5 c 128,-1,3
 242 165 242 165 298 246 c 1,4,5
 565 642 565 642 606 709 c 2,6,7
 606 709 606 709 671 815 c 1,8,9
 671 815 671 815 539 1011 c 1,10,-1
 312 1334 l 2,11,12
 241 1436 241 1436 241 1453 c 128,-1,13
 241 1470 241 1470 244 1482 c 0,14,15
 251 1509 251 1509 277 1525 c 128,-1,16
 303 1541 303 1541 335 1541 c 128,-1,17
 367 1541 367 1541 387 1514.5 c 128,-1,18
 407 1488 407 1488 436 1446 c 1,19,20
 741 969 741 969 764 936 c 1,21,-1
 884 1123 l 2,22,23
 964 1247 964 1247 1079 1446 c 1,24,25
 1109 1513 1109 1513 1142 1528 c 0,26,27
 1155 1535 1155 1535 1172 1535 c 0,28,29
 1211 1535 1211 1535 1241.5 1514.5 c 128,-1,30
 1272 1494 1272 1494 1272 1460 c 0,31,32
 1272 1402 1272 1402 1207 1333 c 1,33,-1
 851 805 l 1,34,-1
 1198 276 l 1,35,-1
 1248 204 l 2,36,37
 1255 194 1255 194 1268.5 180.5 c 128,-1,38
 1282 167 1282 167 1295 152 c 0,39,40
 1327 115 1327 115 1327 91.5 c 128,-1,41
 1327 68 1327 68 1322 51.5 c 128,-1,42
 1317 35 1317 35 1304 24 c 0,43,44
 1277 0 1277 0 1210 0 c 0,45,46
 1182 0 1182 0 1152 43 c 0,47,48
 1140 59 1140 59 1134 74.5 c 128,-1,49
 1128 90 1128 90 1106 126 c 2,50,-1
 757 677 l 1,51,-1
 644 493 l 1,52,53
 392 63 392 63 372 31.5 c 128,-1,54
 352 0 352 0 331.5 0 c 128,-1,55
 311 0 311 0 289 5.5 c 128,-1,56
 267 11 267 11 249 23 c 128,-1,0
 231 35 231 35 220 54.5 c 128,-1,1
EndSplineSet
EndChar

StartChar: Y
Encoding: 89 89 79
Width: 1364
GlyphClass: 2
Flags: W
LayerCount: 2
Fore
SplineSet
770 42 m 0,0,1
 770 -36 770 -36 677 -36 c 0,2,3
 636 -36 636 -36 609.5 -13.5 c 128,-1,4
 583 9 583 9 583 29.5 c 128,-1,5
 583 50 583 50 583.5 60.5 c 128,-1,6
 584 71 584 71 585 83.5 c 128,-1,7
 586 96 586 96 588 112 c 2,8,-1
 591 153 l 1,9,10
 592 183 592 183 592 225 c 2,11,-1
 592 460 l 1,12,-1
 589 686 l 1,13,14
 304 1148 304 1148 258 1217 c 0,15,16
 167 1353 167 1353 144.5 1382.5 c 128,-1,17
 122 1412 122 1412 110 1430 c 0,18,19
 87 1464 87 1464 87 1498.5 c 128,-1,20
 87 1533 87 1533 115 1555.5 c 128,-1,21
 143 1578 143 1578 173.5 1578 c 128,-1,22
 204 1578 204 1578 218.5 1566.5 c 128,-1,23
 233 1555 233 1555 246.5 1536.5 c 128,-1,24
 260 1518 260 1518 272 1495 c 2,25,-1
 294 1449 l 2,26,27
 314 1409 314 1409 352 1348 c 2,28,-1
 621 929 l 2,29,30
 635 908 635 908 647 886.5 c 128,-1,31
 659 865 659 865 676 842 c 1,32,-1
 708 898 l 2,33,34
 713 908 713 908 719 916 c 2,35,-1
 733 936 l 1,36,-1
 733 935 l 1,37,-1
 932 1250 l 1,38,39
 1015 1387 1015 1387 1059 1467 c 1,40,-1
 1078 1511 l 1,41,42
 1111 1582 1111 1582 1157 1582 c 0,43,44
 1222 1582 1222 1582 1246 1536 c 0,45,46
 1255 1520 1255 1520 1255 1496 c 1,47,-1
 1256 1477 l 1,48,49
 1256 1440 1256 1440 1204 1391 c 1,50,-1
 902 920 l 1,51,-1
 824 794 l 2,52,53
 787 733 787 733 760 683 c 1,54,55
 757 638 757 638 757 561 c 2,56,-1
 757 387 l 2,57,58
 757 348 757 348 757.5 308 c 128,-1,59
 758 268 758 268 758.5 228 c 128,-1,60
 759 188 759 188 763 146 c 0,61,62
 770 74 770 74 770 42 c 0,0,1
EndSplineSet
EndChar

StartChar: Z
Encoding: 90 90 80
Width: 1541
GlyphClass: 2
Flags: W
LayerCount: 2
Fore
SplineSet
1305 84 m 0,0,1
 1305 -1 1305 -1 1108 -1 c 2,2,-1
 342 0 l 2,3,4
 280 0 280 0 246 37 c 0,5,6
 220 66 220 66 220 88.5 c 128,-1,7
 220 111 220 111 226 127 c 128,-1,8
 232 143 232 143 242 158 c 0,9,10
 262 189 262 189 293 216 c 1,11,-1
 1041 1376 l 1,12,-1
 383 1369 l 2,13,14
 321 1369 321 1369 298 1387.5 c 128,-1,15
 275 1406 275 1406 275 1456.5 c 128,-1,16
 275 1507 275 1507 297 1526.5 c 128,-1,17
 319 1546 319 1546 373 1546 c 2,18,-1
 901 1539 l 1,19,-1
 1102 1541 l 1,20,-1
 1153 1541 l 1,21,22
 1179 1567 1179 1567 1197 1567 c 128,-1,23
 1215 1567 1215 1567 1233.5 1566.5 c 128,-1,24
 1252 1566 1252 1566 1276 1548 c 0,25,26
 1311 1520 1311 1520 1311 1476 c 0,27,28
 1311 1436 1311 1436 1244 1350 c 1,29,-1
 472 160 l 1,30,-1
 1071 160 l 1,31,32
 1111 172 1111 172 1178.5 172 c 128,-1,33
 1246 172 1246 172 1275.5 152 c 128,-1,34
 1305 132 1305 132 1305 84 c 0,0,1
EndSplineSet
EndChar

StartChar: bracketleft
Encoding: 91 91 81
Width: 857
GlyphClass: 2
Flags: W
LayerCount: 2
Fore
SplineSet
286 -307 m 1,0,1
 178 -307 178 -307 178 -165 c 1,2,3
 191 391 191 391 191 691 c 2,4,-1
 191 793 l 1,5,-1
 179 1676 l 1,6,7
 179 1807 179 1807 273 1807 c 2,8,-1
 505 1807 l 1,9,-1
 607 1813 l 1,10,11
 679 1813 679 1813 679 1736 c 0,12,13
 679 1685 679 1685 636 1662 c 0,14,15
 617 1651 617 1651 566 1651 c 1,16,-1
 490 1653 l 1,17,-1
 357 1653 l 1,18,19
 357 1597 357 1597 358 1528 c 2,20,-1
 360 1384 l 2,21,22
 361 1308 361 1308 363 1228.5 c 128,-1,23
 365 1149 365 1149 366 1073 c 2,24,-1
 368 928 l 2,25,26
 369 859 369 859 369 810 c 2,27,-1
 369 711 l 2,28,29
 369 606 369 606 367.5 517 c 128,-1,30
 366 428 366 428 366 372 c 0,31,32
 364 181 364 181 359 59 c 128,-1,33
 354 -63 354 -63 354 -138 c 1,34,-1
 429 -138 l 1,35,-1
 549 -134 l 1,36,37
 611 -134 611 -134 632 -192 c 0,38,39
 637 -208 637 -208 637 -221 c 128,-1,40
 637 -234 637 -234 634 -247.5 c 128,-1,41
 631 -261 631 -261 624 -274 c 0,42,43
 599 -315 599 -315 521 -315 c 1,44,-1
 397 -309 l 1,45,-1
 286 -307 l 1,0,1
EndSplineSet
EndChar

StartChar: backslash
Encoding: 92 92 82
Width: 1020
GlyphClass: 2
Flags: W
LayerCount: 2
Fore
SplineSet
718 -105.5 m 128,-1,1
 717 -84 717 -84 710 -63 c 2,2,-1
 123 1550 l 2,3,4
 97 1624 97 1624 97 1651 c 128,-1,5
 97 1678 97 1678 118.5 1701 c 128,-1,6
 140 1724 140 1724 178 1724 c 128,-1,7
 216 1724 216 1724 232.5 1708 c 128,-1,8
 249 1692 249 1692 262.5 1658.5 c 128,-1,9
 276 1625 276 1625 304 1548 c 0,10,11
 906 -97 906 -97 906 -110 c 128,-1,12
 906 -123 906 -123 898.5 -137.5 c 128,-1,13
 891 -152 891 -152 877 -164 c 0,14,15
 845 -193 845 -193 804.5 -193 c 128,-1,16
 764 -193 764 -193 748 -179.5 c 128,-1,17
 732 -166 732 -166 725.5 -146.5 c 128,-1,0
 719 -127 719 -127 718 -105.5 c 128,-1,1
EndSplineSet
EndChar

StartChar: bracketright
Encoding: 93 93 83
Width: 857
GlyphClass: 2
Flags: W
LayerCount: 2
Fore
SplineSet
570 -307 m 1,0,1
 678 -307 678 -307 678 -165 c 1,2,3
 665 391 665 391 665 691 c 2,4,-1
 665 793 l 1,5,-1
 677 1676 l 1,6,7
 677 1807 677 1807 583 1807 c 2,8,-1
 351 1807 l 1,9,-1
 249 1813 l 1,10,11
 177 1813 177 1813 177 1736 c 0,12,13
 177 1685 177 1685 220 1662 c 0,14,15
 239 1651 239 1651 290 1651 c 1,16,-1
 366 1653 l 1,17,-1
 499 1653 l 1,18,19
 499 1597 499 1597 498 1528 c 2,20,-1
 496 1384 l 2,21,22
 495 1308 495 1308 493 1228.5 c 128,-1,23
 491 1149 491 1149 490 1073 c 2,24,-1
 488 928 l 2,25,26
 487 859 487 859 487 810 c 2,27,-1
 487 711 l 2,28,29
 487 606 487 606 488.5 517 c 128,-1,30
 490 428 490 428 490 372 c 0,31,32
 492 181 492 181 497 59 c 128,-1,33
 502 -63 502 -63 502 -138 c 1,34,-1
 427 -138 l 1,35,-1
 307 -134 l 1,36,37
 245 -134 245 -134 224 -192 c 0,38,39
 219 -208 219 -208 219 -221 c 128,-1,40
 219 -234 219 -234 222 -247.5 c 128,-1,41
 225 -261 225 -261 232 -274 c 0,42,43
 257 -315 257 -315 335 -315 c 1,44,-1
 459 -309 l 1,45,-1
 570 -307 l 1,0,1
EndSplineSet
EndChar

StartChar: asciicircum
Encoding: 94 94 84
Width: 1561
GlyphClass: 2
Flags: W
LayerCount: 2
Fore
SplineSet
419 479 m 1,0,1
 385 438 385 438 344.5 438 c 128,-1,2
 304 438 304 438 278.5 457 c 128,-1,3
 253 476 253 476 253 512 c 2,4,-1
 253 524 l 2,5,6
 253 533 253 533 286 598 c 1,7,8
 410 862 410 862 471 1003 c 2,9,-1
 688 1511 l 1,10,11
 715 1562 715 1562 773 1562 c 0,12,13
 829 1562 829 1562 858 1511 c 1,14,-1
 956 1291 l 1,15,16
 1203 756 1203 756 1257 632 c 1,17,18
 1287 602 1287 602 1295 561 c 128,-1,19
 1303 520 1303 520 1303 498 c 128,-1,20
 1303 476 1303 476 1278 457 c 128,-1,21
 1253 438 1253 438 1220.5 438 c 128,-1,22
 1188 438 1188 438 1166 454 c 128,-1,23
 1144 470 1144 470 1128 495 c 0,24,25
 1107 530 1107 530 1082 610 c 1,26,27
 1010 778 1010 778 926.5 945 c 128,-1,28
 843 1112 843 1112 771 1280 c 1,29,-1
 419 479 l 1,0,1
EndSplineSet
EndChar

StartChar: underscore
Encoding: 95 95 85
Width: 854
GlyphClass: 2
Flags: W
LayerCount: 2
Fore
SplineSet
858 -180 m 2,0,1
 929 -180 929 -180 955 -187 c 0,2,3
 1011 -203 1011 -203 1011 -253.5 c 128,-1,4
 1011 -304 1011 -304 986 -327 c 128,-1,5
 961 -350 961 -350 893 -350 c 2,6,-1
 -28 -350 l 2,7,8
 -91 -350 -91 -350 -113 -337 c 0,9,10
 -153 -312 -153 -312 -153 -261.5 c 128,-1,11
 -153 -211 -153 -211 -119 -195.5 c 128,-1,12
 -85 -180 -85 -180 1 -180 c 2,13,-1
 858 -180 l 2,0,1
EndSplineSet
EndChar

StartChar: grave
Encoding: 96 96 86
Width: 683
GlyphClass: 2
Flags: W
LayerCount: 2
Fore
SplineSet
511.5 1463 m 128,-1,1
 486 1438 486 1438 452.5 1438 c 128,-1,2
 419 1438 419 1438 401 1446.5 c 128,-1,3
 383 1455 383 1455 363.5 1473.5 c 128,-1,4
 344 1492 344 1492 316 1522.5 c 128,-1,5
 288 1553 288 1553 250.5 1589 c 128,-1,6
 213 1625 213 1625 180 1654 c 2,7,-1
 121 1705 l 2,8,9
 76 1745 76 1745 76 1793 c 0,10,11
 76 1839 76 1839 124 1863 c 0,12,13
 138 1870 138 1870 156 1870 c 0,14,15
 200 1870 200 1870 238 1834 c 2,16,-1
 418 1663 l 2,17,18
 445 1637 445 1637 469 1617 c 1,19,20
 509 1597 509 1597 523 1572.5 c 128,-1,21
 537 1548 537 1548 537 1518 c 128,-1,0
 537 1488 537 1488 511.5 1463 c 128,-1,1
EndSplineSet
EndChar

StartChar: a
Encoding: 97 97 87
Width: 1703
GlyphClass: 2
Flags: W
LayerCount: 2
Fore
SplineSet
1346 452 m 1,0,1
 1346 202 1346 202 1359 179 c 1,2,3
 1378 179 1378 179 1406 189 c 2,4,-1
 1444 202 l 2,5,6
 1457 206 1457 206 1468 212.5 c 128,-1,7
 1479 219 1479 219 1490 224 c 0,8,9
 1517 238 1517 238 1537 238 c 128,-1,10
 1557 238 1557 238 1570.5 229.5 c 128,-1,11
 1584 221 1584 221 1593 208 c 0,12,13
 1611 184 1611 184 1611 156 c 0,14,15
 1611 96 1611 96 1565 79 c 0,16,17
 1555 75 1555 75 1540 70 c 2,18,-1
 1440 35 l 2,19,20
 1325 -5 1325 -5 1291 -5 c 128,-1,21
 1257 -5 1257 -5 1235.5 12 c 128,-1,22
 1214 29 1214 29 1203 54 c 0,23,24
 1186 94 1186 94 1186 169 c 2,25,-1
 1186 217 l 1,26,27
 1064 54 1064 54 876 2 c 0,28,29
 809 -16 809 -16 706.5 -16 c 128,-1,30
 604 -16 604 -16 497 30 c 128,-1,31
 390 76 390 76 313 158 c 0,32,33
 150 330 150 330 150 594 c 0,34,35
 150 857 150 857 322 1032 c 0,36,37
 491 1204 491 1204 741 1204 c 0,38,39
 1033 1204 1033 1204 1187 992 c 1,40,-1
 1187 1004 l 1,41,-1
 1176 1122 l 1,42,43
 1176 1160 1176 1160 1199.5 1188 c 128,-1,44
 1223 1216 1223 1216 1260 1216 c 128,-1,45
 1297 1216 1297 1216 1314 1208 c 128,-1,46
 1331 1200 1331 1200 1342 1188 c 0,47,48
 1365 1164 1365 1164 1365 1147 c 128,-1,49
 1365 1130 1365 1130 1363.5 1112 c 128,-1,50
 1362 1094 1362 1094 1360 1074 c 1,51,-1
 1358 1033 l 1,52,53
 1356 1013 1356 1013 1356 999 c 2,54,-1
 1346 452 l 1,0,1
333 598 m 0,55,56
 333 505 333 505 360.5 424.5 c 128,-1,57
 388 344 388 344 440 283 c 0,58,59
 556 149 556 149 739 149 c 0,60,61
 927 149 927 149 1053 272 c 0,62,63
 1168 383 1168 383 1187 545 c 1,64,-1
 1187 641 l 1,65,66
 1169 796 1169 796 1062 908 c 1,67,68
 939 1039 939 1039 748 1039 c 0,69,70
 565 1039 565 1039 449 913.5 c 128,-1,71
 333 788 333 788 333 598 c 0,55,56
EndSplineSet
EndChar

StartChar: b
Encoding: 98 98 88
Width: 1535
GlyphClass: 2
Flags: W
LayerCount: 2
Fore
SplineSet
392 55 m 2,0,1
 392 -7 392 -7 294 -7 c 0,2,3
 262 -7 262 -7 244.5 4.5 c 128,-1,4
 227 16 227 16 227 56.5 c 128,-1,5
 227 97 227 97 226 156 c 0,6,7
 224 468 224 468 224 514 c 2,8,-1
 224 599 l 2,9,10
 224 637 224 637 224.5 686.5 c 128,-1,11
 225 736 225 736 226 794 c 1,12,-1
 226 914 l 1,13,14
 227 976 227 976 227 1038 c 2,15,-1
 227 1256 l 2,16,17
 227 1307 227 1307 226 1356 c 2,18,-1
 224 1450 l 2,19,20
 223 1495 223 1495 220 1532 c 1,21,22
 150 1522 150 1522 126.5 1522 c 128,-1,23
 103 1522 103 1522 88.5 1528 c 128,-1,24
 74 1534 74 1534 62 1546 c 0,25,26
 36 1572 36 1572 36 1614.5 c 128,-1,27
 36 1657 36 1657 57 1677.5 c 128,-1,28
 78 1698 78 1698 107 1698 c 1,29,-1
 173 1690 l 1,30,31
 192 1690 192 1690 233 1692 c 2,32,-1
 300 1696 l 2,33,34
 324 1698 324 1698 348.5 1698 c 128,-1,35
 373 1698 373 1698 393 1677.5 c 128,-1,36
 413 1657 413 1657 413 1627 c 128,-1,37
 413 1597 413 1597 412.5 1554.5 c 128,-1,38
 412 1512 412 1512 411 1460 c 128,-1,39
 410 1408 410 1408 409 1350 c 2,40,-1
 407 1238 l 2,41,42
 405 1128 405 1128 405 1052 c 2,43,-1
 405 1018 l 1,44,45
 456 1092 456 1092 576 1146 c 0,46,47
 704 1204 704 1204 838 1204 c 128,-1,48
 972 1204 972 1204 1079.5 1158.5 c 128,-1,49
 1187 1113 1187 1113 1262 1032 c 1,50,51
 1420 865 1420 865 1420 606 c 0,52,53
 1420 323 1420 323 1248 153 c 0,54,55
 1078 -16 1078 -16 797 -16 c 0,56,57
 612 -16 612 -16 464 98 c 0,58,59
 420 132 420 132 392 170 c 1,60,-1
 392 55 l 2,0,1
383 590 m 0,61,62
 383 489 383 489 417 407 c 128,-1,63
 451 325 451 325 508 268 c 1,64,65
 624 149 624 149 790 149 c 0,66,67
 1107 149 1107 149 1208 398 c 0,68,69
 1242 483 1242 483 1242 595 c 128,-1,70
 1242 707 1242 707 1212.5 788 c 128,-1,71
 1183 869 1183 869 1128 925 c 0,72,73
 1015 1039 1015 1039 813 1039 c 0,74,75
 640 1039 640 1039 514 914 c 0,76,77
 383 785 383 785 383 590 c 0,61,62
EndSplineSet
EndChar

StartChar: c
Encoding: 99 99 89
Width: 1368
GlyphClass: 2
Flags: W
LayerCount: 2
Fore
SplineSet
1197 1175 m 1,0,-1
 1190 1080 l 1,1,2
 1190 989 1190 989 1201 949.5 c 128,-1,3
 1212 910 1212 910 1212 884.5 c 128,-1,4
 1212 859 1212 859 1193 833 c 128,-1,5
 1174 807 1174 807 1135 807 c 128,-1,6
 1096 807 1096 807 1077.5 824 c 128,-1,7
 1059 841 1059 841 1044 867 c 2,8,-1
 1012 923 l 2,9,10
 945 1039 945 1039 714 1039 c 0,11,12
 510 1039 510 1039 393 904 c 0,13,14
 284 777 284 777 284 587 c 0,15,16
 284 435 284 435 390 302 c 0,17,18
 464 209 464 209 584 170 c 0,19,20
 646 149 646 149 705.5 149 c 128,-1,21
 765 149 765 149 812.5 159 c 128,-1,22
 860 169 860 169 905 190 c 0,23,24
 1005 235 1005 235 1055 317 c 0,25,26
 1086 368 1086 368 1135 368 c 0,27,28
 1198 368 1198 368 1214 319 c 0,29,30
 1219 306 1219 306 1219 280 c 0,31,32
 1219 224 1219 224 1169.5 167 c 128,-1,33
 1120 110 1120 110 1065.5 76.5 c 128,-1,34
 1011 43 1011 43 952 22 c 0,35,36
 840 -16 840 -16 731 -16 c 128,-1,37
 622 -16 622 -16 542 5.5 c 128,-1,38
 462 27 462 27 394 67 c 128,-1,39
 326 107 326 107 272 162 c 128,-1,40
 218 217 218 217 180 285 c 0,41,42
 102 427 102 427 102 592 c 0,43,44
 102 825 102 825 255 1002 c 0,45,46
 430 1204 430 1204 749 1204 c 0,47,48
 892 1204 892 1204 982 1148 c 0,49,50
 1008 1132 1008 1132 1021 1113 c 1,51,-1
 1021 1130 l 2,52,53
 1021 1244 1021 1244 1119 1244 c 0,54,55
 1168 1244 1168 1244 1190 1203 c 0,56,57
 1197 1190 1197 1190 1197 1175 c 1,0,-1
EndSplineSet
EndChar

StartChar: d
Encoding: 100 100 90
Width: 1537
GlyphClass: 2
Flags: W
LayerCount: 2
Fore
SplineSet
1254 -5 m 0,0,1
 1173 -5 1173 -5 1146 203 c 1,2,3
 1029 46 1029 46 812 -1 c 0,4,5
 743 -16 743 -16 642 -16 c 128,-1,6
 541 -16 541 -16 435 31.5 c 128,-1,7
 329 79 329 79 253 162 c 0,8,9
 93 335 93 335 93 594 c 0,10,11
 93 857 93 857 268 1032 c 0,12,13
 440 1204 440 1204 698 1204 c 0,14,15
 823 1204 823 1204 952 1141 c 0,16,17
 1083 1078 1083 1078 1129 991 c 1,18,-1
 1129 1034 l 1,19,-1
 1125 1531 l 1,20,-1
 1008 1531 l 1,21,-1
 912 1521 l 1,22,23
 862 1521 862 1521 840 1576 c 0,24,25
 833 1594 833 1594 833 1626 c 128,-1,26
 833 1658 833 1658 854 1679 c 128,-1,27
 875 1700 875 1700 895 1700 c 128,-1,28
 915 1700 915 1700 950 1692 c 1,29,-1
 1250 1699 l 1,30,31
 1314 1694 1314 1694 1316 1619 c 1,32,33
 1315 1601 1315 1601 1307 1565 c 1,34,35
 1303 1440 1303 1440 1302 1275 c 2,36,-1
 1299 1006 l 2,37,38
 1297 796 1297 796 1297 686 c 2,39,-1
 1297 541 l 2,40,41
 1297 246 1297 246 1314 195 c 1,42,43
 1331 201 1331 201 1347 210 c 2,44,-1
 1378 229 l 2,45,46
 1446 270 1446 270 1490 233 c 0,47,48
 1517 210 1517 210 1517 173 c 0,49,50
 1517 113 1517 113 1464 92 c 0,51,52
 1438 82 1438 82 1409 66 c 2,53,-1
 1352 34 l 2,54,55
 1282 -5 1282 -5 1254 -5 c 0,0,1
268 602 m 0,56,57
 268 508 268 508 297.5 428 c 128,-1,58
 327 348 327 348 382 286 c 0,59,60
 504 149 504 149 687 149 c 0,61,62
 846 149 846 149 972 256 c 1,63,64
 1105 367 1105 367 1128 531 c 1,65,-1
 1127 674 l 1,66,67
 1098 836 1098 836 970 940 c 1,68,69
 850 1039 850 1039 705 1039 c 0,70,71
 517 1039 517 1039 394 918 c 0,72,73
 268 793 268 793 268 602 c 0,56,57
EndSplineSet
EndChar

StartChar: e
Encoding: 101 101 91
Width: 1537
GlyphClass: 2
Flags: W
LayerCount: 2
Fore
SplineSet
363 464 m 1,0,1
 398 304 398 304 528 219 c 0,2,3
 636 149 636 149 774 149 c 0,4,5
 928 149 928 149 1044 199 c 0,6,7
 1132 237 1132 237 1156 275 c 0,8,9
 1203 348 1203 348 1245.5 348 c 128,-1,10
 1288 348 1288 348 1309.5 325 c 128,-1,11
 1331 302 1331 302 1331 275 c 128,-1,12
 1331 248 1331 248 1321 225 c 128,-1,13
 1311 202 1311 202 1273 172 c 1,14,15
 1080 -16 1080 -16 773 -16 c 0,16,17
 581 -16 581 -16 436 79 c 0,18,19
 311 161 311 161 238 306 c 0,20,21
 173 435 173 435 173 578 c 128,-1,22
 173 721 173 721 222 837 c 128,-1,23
 271 953 271 953 358 1034 c 1,24,25
 537 1204 537 1204 818 1204 c 0,26,27
 1015 1204 1015 1204 1156 1100 c 0,28,29
 1295 997 1295 997 1333 828 c 1,30,31
 1372 800 1372 800 1372 755 c 128,-1,32
 1372 710 1372 710 1350 687 c 128,-1,33
 1328 664 1328 664 1280 652.5 c 128,-1,34
 1232 641 1232 641 1164 626 c 1,35,-1
 363 464 l 1,0,1
1174 794 m 1,36,37
 1103 1039 1103 1039 810 1039 c 0,38,39
 602 1039 602 1039 480 931 c 0,40,41
 359 823 359 823 351 618 c 1,42,-1
 1174 794 l 1,36,37
EndSplineSet
EndChar

StartChar: f
Encoding: 102 102 92
Width: 1023
GlyphClass: 2
Flags: W
LayerCount: 2
Fore
SplineSet
689 1025 m 1,0,-1
 476 1031 l 1,1,2
 476 967 476 967 477 883 c 2,3,-1
 481 528 l 2,4,5
 482 438 482 438 484 363 c 2,6,-1
 486 234 l 2,7,8
 487 180 487 180 488 161 c 1,9,10
 530 167 530 167 573.5 182 c 128,-1,11
 617 197 617 197 653 202.5 c 128,-1,12
 689 208 689 208 711.5 189.5 c 128,-1,13
 734 171 734 171 739 138.5 c 128,-1,14
 744 106 744 106 724.5 79 c 128,-1,15
 705 52 705 52 664 42.5 c 128,-1,16
 623 33 623 33 586 24 c 2,17,-1
 514 5 l 2,18,19
 410 -22 410 -22 382.5 -15 c 128,-1,20
 355 -8 355 -8 342 2 c 0,21,22
 311 26 311 26 311 78 c 1,23,-1
 315 240 l 2,24,25
 315 260 315 260 313.5 330 c 128,-1,26
 312 400 312 400 310 505.5 c 128,-1,27
 308 611 308 611 305 745 c 2,28,-1
 299 1026 l 1,29,30
 285 1025 285 1025 270 1025 c 2,31,-1
 238 1025 l 2,32,33
 183 1025 183 1025 162 1068 c 0,34,35
 155 1083 155 1083 155 1115 c 128,-1,36
 155 1147 155 1147 176.5 1167.5 c 128,-1,37
 198 1188 198 1188 225 1188 c 1,38,-1
 265 1181 l 1,39,-1
 267 1181 l 1,40,-1
 292 1182 l 1,41,42
 283 1287 283 1287 283 1364.5 c 128,-1,43
 283 1442 283 1442 310.5 1516.5 c 128,-1,44
 338 1591 338 1591 388 1639 c 0,45,46
 485 1732 485 1732 666 1732 c 0,47,48
 845 1732 845 1732 938 1608 c 1,49,50
 972 1565 972 1565 972 1524 c 0,51,52
 972 1449 972 1449 903 1434 c 1,53,54
 848 1424 848 1424 790 1503 c 0,55,56
 764 1540 764 1540 732.5 1555.5 c 128,-1,57
 701 1571 701 1571 645 1571 c 0,58,59
 549 1571 549 1571 503 1500.5 c 128,-1,60
 457 1430 457 1430 457 1284 c 0,61,62
 457 1246 457 1246 467 1186 c 1,63,-1
 710 1187 l 2,64,65
 748 1187 748 1187 766.5 1164.5 c 128,-1,66
 785 1142 785 1142 785 1119.5 c 128,-1,67
 785 1097 785 1097 779 1081 c 128,-1,68
 773 1065 773 1065 761 1052 c 0,69,70
 735 1025 735 1025 689 1025 c 1,0,-1
EndSplineSet
EndChar

StartChar: g
Encoding: 103 103 93
Width: 1537
GlyphClass: 2
Flags: W
LayerCount: 2
Fore
SplineSet
1347 1052 m 1,0,-1
 1338 960 l 1,1,2
 1338 729 1338 729 1335.5 496.5 c 128,-1,3
 1333 264 1333 264 1331 23 c 0,4,5
 1328 -350 1328 -350 1004 -455 c 0,6,7
 888 -493 888 -493 783 -493 c 128,-1,8
 678 -493 678 -493 616 -482 c 128,-1,9
 554 -471 554 -471 498 -451 c 0,10,11
 385 -411 385 -411 303 -345 c 0,12,13
 269 -318 269 -318 269 -288 c 128,-1,14
 269 -258 269 -258 276.5 -239.5 c 128,-1,15
 284 -221 284 -221 296 -206 c 0,16,17
 324 -173 324 -173 356 -173 c 128,-1,18
 388 -173 388 -173 415.5 -196.5 c 128,-1,19
 443 -220 443 -220 474 -244 c 128,-1,20
 505 -268 505 -268 544 -288 c 1,21,22
 633 -331 633 -331 752 -331 c 0,23,24
 879 -331 879 -331 939.5 -310 c 128,-1,25
 1000 -289 1000 -289 1039 -258 c 128,-1,26
 1078 -227 1078 -227 1106 -176 c 0,27,28
 1167 -66 1167 -66 1167 135 c 2,29,-1
 1167 172 l 1,30,31
 1001 -16 1001 -16 722 -16 c 0,32,33
 466 -16 466 -16 302 158 c 1,34,35
 137 330 137 330 137 594 c 0,36,37
 137 860 137 860 307 1032 c 128,-1,38
 477 1204 477 1204 732 1204 c 0,39,40
 1026 1204 1026 1204 1174 1037 c 1,41,42
 1174 1139 1174 1139 1261 1139 c 0,43,44
 1347 1139 1347 1139 1347 1052 c 1,0,-1
312 594 m 256,45,46
 312 398 312 398 426 274 c 0,47,48
 540 149 540 149 729 149 c 0,49,50
 939 149 939 149 1057 274 c 0,51,52
 1170 395 1170 395 1170 594 c 0,53,54
 1170 906 1170 906 936 1005 c 0,55,56
 856 1039 856 1039 752 1039 c 128,-1,57
 648 1039 648 1039 568.5 1006 c 128,-1,58
 489 973 489 973 432 914 c 0,59,60
 312 790 312 790 312 594 c 256,45,46
EndSplineSet
EndChar

StartChar: h
Encoding: 104 104 94
Width: 1533
GlyphClass: 2
Flags: W
LayerCount: 2
Fore
SplineSet
410 166 m 1,0,-1
 505 186 l 1,1,2
 591 186 591 186 591 107 c 0,3,4
 591 25 591 25 470 10 c 0,5,6
 448 8 448 8 428.5 6.5 c 128,-1,7
 409 5 409 5 390 0 c 0,8,9
 327 -16 327 -16 294 -16 c 0,10,11
 228 -16 228 -16 228 59 c 0,12,13
 228 77 228 77 230.5 97 c 128,-1,14
 233 117 233 117 236 142 c 0,15,16
 243 215 243 215 243 271.5 c 128,-1,17
 243 328 243 328 242.5 420.5 c 128,-1,18
 242 513 242 513 241 623.5 c 128,-1,19
 240 734 240 734 239 856.5 c 128,-1,20
 238 979 238 979 236 1100 c 2,21,-1
 234 1336 l 1,22,23
 232 1449 232 1449 230 1542 c 1,24,25
 160 1532 160 1532 136.5 1532 c 128,-1,26
 113 1532 113 1532 98.5 1536.5 c 128,-1,27
 84 1541 84 1541 72 1550 c 0,28,29
 46 1572 46 1572 46 1614.5 c 128,-1,30
 46 1657 46 1657 67 1677.5 c 128,-1,31
 88 1698 88 1698 117 1698 c 1,32,-1
 183 1690 l 1,33,34
 202 1690 202 1690 243 1692 c 2,35,-1
 310 1696 l 2,36,37
 334 1698 334 1698 358.5 1698 c 128,-1,38
 383 1698 383 1698 403 1677.5 c 128,-1,39
 423 1657 423 1657 423 1634.5 c 128,-1,40
 423 1612 423 1612 422.5 1576.5 c 128,-1,41
 422 1541 422 1541 421.5 1490.5 c 128,-1,42
 421 1440 421 1440 420 1379 c 0,43,44
 415 1099 415 1099 414 1039 c 1,45,46
 538 1149 538 1149 707 1190 c 0,47,48
 765 1204 765 1204 824 1204 c 0,49,50
 1346 1204 1346 1204 1346 614 c 0,51,52
 1346 441 1346 441 1274 273 c 0,53,54
 1252 220 1252 220 1225 176 c 1,55,-1
 1342 208 l 2,56,57
 1358 213 1358 213 1380 218 c 1,58,59
 1423 218 1423 218 1444 186 c 0,60,61
 1458 164 1458 164 1458 136 c 0,62,63
 1458 83 1458 83 1392 58 c 1,64,65
 1271 16 1271 16 1189 -0.5 c 128,-1,66
 1107 -17 1107 -17 1071.5 -17 c 128,-1,67
 1036 -17 1036 -17 1013 7.5 c 128,-1,68
 990 32 990 32 990 64 c 0,69,70
 990 125 990 125 1037 174 c 1,71,72
 1170 332 1170 332 1170 614 c 0,73,74
 1170 932 1170 932 976 1011 c 0,75,76
 908 1039 908 1039 828.5 1039 c 128,-1,77
 749 1039 749 1039 690 1021 c 128,-1,78
 631 1003 631 1003 578 974 c 0,79,80
 476 916 476 916 413 833 c 1,81,82
 411 673 411 673 409 611 c 0,83,84
 405 483 405 483 405 416 c 2,85,-1
 404 304 l 2,86,87
 404 224 404 224 410 166 c 1,0,-1
EndSplineSet
EndChar

StartChar: i
Encoding: 105 105 95
Width: 853
GlyphClass: 2
Flags: W
LayerCount: 2
Fore
SplineSet
486 1412 m 128,-1,1
 472 1404 472 1404 452.5 1404 c 128,-1,2
 433 1404 433 1404 417.5 1410 c 128,-1,3
 402 1416 402 1416 390 1426 c 0,4,5
 361 1450 361 1450 361 1479 c 128,-1,6
 361 1508 361 1508 367.5 1523.5 c 128,-1,7
 374 1539 374 1539 384.5 1552 c 128,-1,8
 395 1565 395 1565 407 1578 c 128,-1,9
 419 1591 419 1591 432 1610 c 128,-1,10
 445 1629 445 1629 453.5 1646 c 128,-1,11
 462 1663 462 1663 472 1675 c 0,12,13
 493 1700 493 1700 532 1700 c 128,-1,14
 571 1700 571 1700 598 1677.5 c 128,-1,15
 625 1655 625 1655 625 1627.5 c 128,-1,16
 625 1600 625 1600 620.5 1584.5 c 128,-1,17
 616 1569 616 1569 607.5 1555.5 c 128,-1,18
 599 1542 599 1542 586 1528 c 2,19,-1
 558 1498 l 2,20,21
 542 1480 542 1480 531.5 1463 c 128,-1,22
 521 1446 521 1446 510.5 1433 c 128,-1,0
 500 1420 500 1420 486 1412 c 128,-1,1
504 946 m 2,23,-1
 500 488 l 1,24,25
 500 358 500 358 502 274.5 c 128,-1,26
 504 191 504 191 504 156 c 1,27,-1
 592 173 l 2,28,29
 630 180 630 180 658 180 c 128,-1,30
 686 180 686 180 703.5 156.5 c 128,-1,31
 721 133 721 133 721 102 c 0,32,33
 721 31 721 31 655 17 c 0,34,35
 630 12 630 12 597 4.5 c 128,-1,36
 564 -3 564 -3 530 -10 c 0,37,38
 451 -26 451 -26 404.5 -26 c 128,-1,39
 358 -26 358 -26 341.5 -7.5 c 128,-1,40
 325 11 325 11 325 39 c 128,-1,41
 325 67 325 67 327.5 87 c 128,-1,42
 330 107 330 107 332 132 c 0,43,44
 340 205 340 205 340 257 c 2,45,-1
 340 374 l 2,46,47
 340 451 340 451 339 554.5 c 128,-1,48
 338 658 338 658 337 780.5 c 128,-1,49
 336 903 336 903 333 1034 c 1,50,51
 318 1032 318 1032 274 1029 c 1,52,-1
 202 1026 l 2,53,54
 174 1024 174 1024 157 1024 c 128,-1,55
 140 1024 140 1024 125.5 1028.5 c 128,-1,56
 111 1033 111 1033 100 1042 c 0,57,58
 73 1064 73 1064 73 1106.5 c 128,-1,59
 73 1149 73 1149 94 1169.5 c 128,-1,60
 115 1190 115 1190 144 1190 c 1,61,-1
 210 1182 l 1,62,63
 228 1182 228 1182 262 1183.5 c 128,-1,64
 296 1185 296 1185 322 1186 c 2,65,-1
 372 1188 l 2,66,67
 420 1190 420 1190 450 1190 c 128,-1,68
 480 1190 480 1190 499.5 1169.5 c 128,-1,69
 519 1149 519 1149 519 1122 c 128,-1,70
 519 1095 519 1095 516 1074 c 2,71,-1
 506 986 l 2,72,73
 504 964 504 964 504 946 c 2,23,-1
EndSplineSet
EndChar

StartChar: j
Encoding: 106 106 96
Width: 853
GlyphClass: 2
Flags: W
LayerCount: 2
Fore
SplineSet
486 1413 m 128,-1,1
 472 1405 472 1405 452.5 1405 c 128,-1,2
 433 1405 433 1405 417.5 1411 c 128,-1,3
 402 1417 402 1417 390 1428 c 1,4,5
 361 1451 361 1451 361 1480 c 128,-1,6
 361 1509 361 1509 367.5 1524.5 c 128,-1,7
 374 1540 374 1540 384.5 1553 c 128,-1,8
 395 1566 395 1566 407 1579 c 128,-1,9
 419 1592 419 1592 432 1611 c 128,-1,10
 445 1630 445 1630 453.5 1647 c 128,-1,11
 462 1664 462 1664 472 1676 c 0,12,13
 493 1701 493 1701 532 1701 c 128,-1,14
 571 1701 571 1701 598 1678.5 c 128,-1,15
 625 1656 625 1656 625 1628.5 c 128,-1,16
 625 1601 625 1601 620.5 1585.5 c 128,-1,17
 616 1570 616 1570 607.5 1556.5 c 128,-1,18
 599 1543 599 1543 586 1530 c 2,19,-1
 558 1499 l 2,20,21
 542 1481 542 1481 531.5 1464 c 128,-1,22
 521 1447 521 1447 510.5 1434 c 128,-1,0
 500 1421 500 1421 486 1413 c 128,-1,1
587 1112 m 2,23,-1
 574 959 l 1,24,-1
 574 -165 l 1,25,26
 577 -178 577 -178 581 -187.5 c 128,-1,27
 585 -197 585 -197 588 -207 c 0,28,29
 597 -231 597 -231 597 -253.5 c 128,-1,30
 597 -276 597 -276 592.5 -291.5 c 128,-1,31
 588 -307 588 -307 576 -320 c 0,32,33
 548 -349 548 -349 486 -358 c 1,34,35
 284 -464 284 -464 241.5 -480.5 c 128,-1,36
 199 -497 199 -497 184 -506 c 1,37,-1
 153 -522 l 2,38,39
 116 -540 116 -540 88 -540 c 128,-1,40
 60 -540 60 -540 36 -516.5 c 128,-1,41
 12 -493 12 -493 12 -457 c 0,42,43
 12 -380 12 -380 118 -356 c 1,44,45
 167 -331 167 -331 244.5 -295 c 128,-1,46
 322 -259 322 -259 410 -211 c 1,47,-1
 410 1034 l 1,48,-1
 155 1027 l 1,49,50
 101 1027 101 1027 80 1070 c 0,51,52
 73 1085 73 1085 73 1117 c 128,-1,53
 73 1149 73 1149 94.5 1170 c 128,-1,54
 116 1191 116 1191 145 1191 c 1,55,-1
 190 1185 l 1,56,-1
 506 1190 l 1,57,58
 574 1190 574 1190 584 1136 c 0,59,60
 587 1122 587 1122 587 1112 c 2,23,-1
EndSplineSet
EndChar

StartChar: k
Encoding: 107 107 97
Width: 1536
GlyphClass: 2
Flags: W
LayerCount: 2
Fore
SplineSet
410 166 m 1,0,-1
 505 186 l 1,1,2
 591 186 591 186 591 107 c 0,3,4
 591 25 591 25 470 10 c 0,5,6
 448 8 448 8 428.5 6.5 c 128,-1,7
 409 5 409 5 390 0 c 0,8,9
 327 -16 327 -16 294 -16 c 0,10,11
 228 -16 228 -16 228 59 c 0,12,13
 228 77 228 77 230.5 97 c 128,-1,14
 233 117 233 117 236 142 c 0,15,16
 243 215 243 215 243 271.5 c 128,-1,17
 243 328 243 328 242.5 420.5 c 128,-1,18
 242 513 242 513 241 623.5 c 128,-1,19
 240 734 240 734 239 856.5 c 128,-1,20
 238 979 238 979 236 1100 c 2,21,-1
 234 1336 l 1,22,23
 232 1449 232 1449 230 1542 c 1,24,25
 160 1532 160 1532 136.5 1532 c 128,-1,26
 113 1532 113 1532 98.5 1536.5 c 128,-1,27
 84 1541 84 1541 72 1550 c 0,28,29
 46 1572 46 1572 46 1614.5 c 128,-1,30
 46 1657 46 1657 67 1677.5 c 128,-1,31
 88 1698 88 1698 117 1698 c 1,32,-1
 183 1690 l 1,33,34
 202 1690 202 1690 243 1692 c 2,35,-1
 310 1696 l 2,36,37
 334 1698 334 1698 358.5 1698 c 128,-1,38
 383 1698 383 1698 403 1677.5 c 128,-1,39
 423 1657 423 1657 423 1621 c 2,40,-1
 414 960 l 1,41,-1
 414 931 l 1,42,43
 486 1043 486 1043 608 1120 c 0,44,45
 742 1204 742 1204 856.5 1204 c 128,-1,46
 971 1204 971 1204 1045.5 1180 c 128,-1,47
 1120 1156 1120 1156 1171 1114 c 0,48,49
 1275 1027 1275 1027 1275 885 c 0,50,51
 1275 749 1275 749 1192 641 c 0,52,53
 1118 545 1118 545 1020 510 c 1,54,55
 1094 490 1094 490 1138 388 c 2,56,-1
 1155 348 l 2,57,58
 1164 328 1164 328 1171 296 c 128,-1,59
 1178 264 1178 264 1190 234 c 0,60,61
 1219 159 1219 159 1274 159 c 0,62,63
 1288 159 1288 159 1315 166 c 0,64,65
 1365 179 1365 179 1392 179 c 128,-1,66
 1419 179 1419 179 1442 152.5 c 128,-1,67
 1465 126 1465 126 1465 87 c 0,68,69
 1465 -16 1465 -16 1249 -16 c 0,70,71
 1099 -16 1099 -16 1040 126 c 0,72,73
 1023 166 1023 166 1010 208 c 2,74,-1
 985 290 l 2,75,76
 959 377 959 377 912 412 c 0,77,78
 887 431 887 431 835 431 c 128,-1,79
 783 431 783 431 751.5 448.5 c 128,-1,80
 720 466 720 466 720 510 c 0,81,82
 720 596 720 596 822 596 c 0,83,84
 842 596 842 596 875 589 c 1,85,86
 1096 672 1096 672 1096 855 c 0,87,88
 1096 1000 1096 1000 966 1030 c 0,89,90
 925 1039 925 1039 861 1039 c 128,-1,91
 797 1039 797 1039 725 1007 c 128,-1,92
 653 975 653 975 590 920 c 0,93,94
 458 805 458 805 409 645 c 1,95,96
 405 515 405 515 405 416 c 2,97,-1
 404 304 l 2,98,99
 404 224 404 224 410 166 c 1,0,-1
EndSplineSet
EndChar

StartChar: l
Encoding: 108 108 98
Width: 853
GlyphClass: 2
Flags: W
LayerCount: 2
Fore
SplineSet
482 162 m 1,0,1
 595 195 595 195 622 195 c 0,2,3
 703 195 703 195 703 112 c 0,4,5
 703 77 703 77 678 58 c 128,-1,6
 653 39 653 39 613 30 c 128,-1,7
 573 21 573 21 544 14 c 2,8,-1
 488 0 l 2,9,10
 428 -16 428 -16 405 -16 c 128,-1,11
 382 -16 382 -16 364 -6 c 128,-1,12
 346 4 346 4 334 20 c 0,13,14
 311 49 311 49 311 92 c 2,15,-1
 318 401 l 2,16,17
 318 432 318 432 317.5 493 c 128,-1,18
 317 554 317 554 316.5 634 c 128,-1,19
 316 714 316 714 315 807 c 2,20,-1
 311 1184 l 2,21,22
 310 1277 310 1277 309 1356 c 2,23,-1
 305 1542 l 1,24,25
 197 1542 197 1542 157 1538 c 128,-1,26
 117 1534 117 1534 106 1534 c 128,-1,27
 95 1534 95 1534 80.5 1538.5 c 128,-1,28
 66 1543 66 1543 54 1552 c 0,29,30
 28 1574 28 1574 28 1616.5 c 128,-1,31
 28 1659 28 1659 49 1679.5 c 128,-1,32
 70 1700 70 1700 99 1700 c 1,33,-1
 195 1692 l 1,34,-1
 436 1700 l 1,35,36
 467 1700 467 1700 486.5 1680 c 128,-1,37
 506 1660 506 1660 506 1629.5 c 128,-1,38
 506 1599 506 1599 502 1579 c 2,39,-1
 494 1538 l 1,40,41
 482 1484 482 1484 482 1459 c 2,42,43
 482 1459 482 1459 481 1384 c 1,44,45
 481 1384 481 1384 481 856 c 1,46,-1
 482 478 l 1,47,-1
 482 162 l 1,0,1
EndSplineSet
EndChar

StartChar: m
Encoding: 109 109 99
Width: 2391
GlyphClass: 2
Flags: W
LayerCount: 2
Fore
SplineSet
496 165 m 1,0,-1
 592 185 l 1,1,2
 678 185 678 185 678 106 c 0,3,4
 678 36 678 36 600 18 c 0,5,6
 560 9 560 9 528 6.5 c 128,-1,7
 496 4 496 4 476 -1 c 0,8,9
 414 -17 414 -17 381 -17 c 0,10,11
 315 -17 315 -17 315 58 c 0,12,13
 315 76 315 76 317.5 96 c 128,-1,14
 320 116 320 116 322 140 c 0,15,16
 330 214 330 214 330 270.5 c 128,-1,17
 330 327 330 327 329.5 383 c 128,-1,18
 329 439 329 439 328 494 c 2,19,-1
 326 609 l 2,20,21
 325 668 325 668 323.5 734.5 c 128,-1,22
 322 801 322 801 320.5 878 c 128,-1,23
 319 955 319 955 317 1048 c 1,24,25
 247 1038 247 1038 223.5 1038 c 128,-1,26
 200 1038 200 1038 185.5 1042.5 c 128,-1,27
 171 1047 171 1047 160 1056 c 0,28,29
 133 1078 133 1078 133 1120.5 c 128,-1,30
 133 1163 133 1163 154 1183.5 c 128,-1,31
 175 1204 175 1204 204 1204 c 1,32,-1
 270 1196 l 1,33,34
 289 1196 289 1196 330 1198 c 2,35,-1
 396 1202 l 2,36,37
 421 1204 421 1204 445.5 1204 c 128,-1,38
 470 1204 470 1204 490 1183.5 c 128,-1,39
 510 1163 510 1163 510 1140 c 2,40,-1
 510 1109 l 2,41,42
 510 1100 510 1100 509 1089 c 1,43,44
 658 1204 658 1204 831 1204 c 0,45,46
 1071 1204 1071 1204 1218 1053 c 1,47,48
 1350 1162 1350 1162 1537 1194 c 0,49,50
 1591 1204 1591 1204 1636 1204 c 0,51,52
 1885 1204 1885 1204 2031.5 1044 c 128,-1,53
 2178 884 2178 884 2178 612 c 128,-1,54
 2178 340 2178 340 2076 178 c 1,55,-1
 2165 194 l 1,56,57
 2211 194 2211 194 2233 160 c 0,58,59
 2247 138 2247 138 2247 108.5 c 128,-1,60
 2247 79 2247 79 2232.5 62 c 128,-1,61
 2218 45 2218 45 2190 34 c 0,62,63
 2144 15 2144 15 2079 5.5 c 128,-1,64
 2014 -4 2014 -4 1991.5 -11 c 128,-1,65
 1969 -18 1969 -18 1927 -18 c 128,-1,66
 1885 -18 1885 -18 1862 7.5 c 128,-1,67
 1839 33 1839 33 1839 64 c 0,68,69
 1839 125 1839 125 1885 173 c 1,70,71
 2008 319 2008 319 2008 614 c 0,72,73
 2008 799 2008 799 1917 914 c 0,74,75
 1817 1040 1817 1040 1631 1040 c 0,76,77
 1476 1040 1476 1040 1374 977 c 0,78,79
 1340 956 1340 956 1307 928 c 1,80,81
 1375 792 1375 792 1375 614 c 0,82,83
 1375 331 1375 331 1268 163 c 1,84,85
 1289 164 1289 164 1305 169 c 0,86,87
 1376 191 1376 191 1394 191 c 0,88,89
 1472 191 1472 191 1472 94 c 0,90,91
 1472 37 1472 37 1374 19 c 0,92,93
 1346 14 1346 14 1318 10 c 0,94,95
 1225 -1 1225 -1 1205 -8.5 c 128,-1,96
 1185 -16 1185 -16 1161 -16 c 128,-1,97
 1137 -16 1137 -16 1119 -7.5 c 128,-1,98
 1101 1 1101 1 1089 16 c 0,99,100
 1066 43 1066 43 1066 76 c 0,101,102
 1066 136 1066 136 1091 173 c 1,103,104
 1204 351 1204 351 1204 614 c 0,105,106
 1204 800 1204 800 1112 914 c 0,107,108
 1011 1040 1011 1040 826 1040 c 0,109,110
 727 1040 727 1040 669 1016 c 0,111,112
 575 976 575 976 501 910 c 1,113,-1
 492 425 l 1,114,-1
 491 294 l 2,115,116
 491 223 491 223 496 165 c 1,0,-1
EndSplineSet
EndChar

StartChar: n
Encoding: 110 110 100
Width: 1700
GlyphClass: 2
Flags: W
LayerCount: 2
Fore
SplineSet
497 166 m 1,0,-1
 592 186 l 1,1,2
 678 186 678 186 678 107 c 0,3,4
 678 25 678 25 556 10 c 0,5,6
 535 8 535 8 515.5 6.5 c 128,-1,7
 496 5 496 5 476 0 c 0,8,9
 414 -16 414 -16 381 -16 c 0,10,11
 315 -16 315 -16 315 59 c 0,12,13
 315 77 315 77 317.5 97 c 128,-1,14
 320 117 320 117 322 142 c 0,15,16
 330 215 330 215 330 271.5 c 128,-1,17
 330 328 330 328 329.5 383.5 c 128,-1,18
 329 439 329 439 328 495 c 2,19,-1
 326 610 l 2,20,21
 325 668 325 668 323.5 734.5 c 128,-1,22
 322 801 322 801 320.5 878 c 128,-1,23
 319 955 319 955 317 1048 c 1,24,25
 247 1038 247 1038 223.5 1038 c 128,-1,26
 200 1038 200 1038 185.5 1042.5 c 128,-1,27
 171 1047 171 1047 160 1056 c 0,28,29
 133 1078 133 1078 133 1120.5 c 128,-1,30
 133 1163 133 1163 154 1183.5 c 128,-1,31
 175 1204 175 1204 204 1204 c 1,32,-1
 270 1196 l 1,33,34
 289 1196 289 1196 330 1198 c 2,35,-1
 396 1202 l 2,36,37
 421 1204 421 1204 445.5 1204 c 128,-1,38
 470 1204 470 1204 490 1183.5 c 128,-1,39
 510 1163 510 1163 510 1135 c 128,-1,40
 510 1107 510 1107 508 1081 c 128,-1,41
 506 1055 506 1055 504 1029 c 1,42,43
 632 1146 632 1146 817 1189 c 0,44,45
 882 1204 882 1204 980 1204 c 128,-1,46
 1078 1204 1078 1204 1170.5 1164.5 c 128,-1,47
 1263 1125 1263 1125 1324 1050 c 0,48,49
 1447 901 1447 901 1447 614 c 0,50,51
 1447 364 1447 364 1346 186 c 1,52,53
 1367 192 1367 192 1388 199 c 2,54,-1
 1426 212 l 2,55,56
 1470 226 1470 226 1483 226 c 0,57,58
 1572 226 1572 226 1572 150 c 0,59,60
 1572 78 1572 78 1509 60 c 1,61,-1
 1444 40 l 2,62,63
 1259 -16 1259 -16 1220 -16 c 128,-1,64
 1181 -16 1181 -16 1167.5 -7.5 c 128,-1,65
 1154 1 1154 1 1146 14 c 0,66,67
 1128 41 1128 41 1128 71.5 c 128,-1,68
 1128 102 1128 102 1130.5 127 c 128,-1,69
 1133 152 1133 152 1160 182.5 c 128,-1,70
 1187 213 1187 213 1210.5 262.5 c 128,-1,71
 1234 312 1234 312 1248 369 c 0,72,73
 1276 477 1276 477 1276 570 c 128,-1,74
 1276 663 1276 663 1269 713.5 c 128,-1,75
 1262 764 1262 764 1246 811.5 c 128,-1,76
 1230 859 1230 859 1204.5 900 c 128,-1,77
 1179 941 1179 941 1142 972 c 0,78,79
 1060 1039 1060 1039 940 1039 c 0,80,81
 802 1039 802 1039 673 968 c 0,82,83
 564 907 564 907 500 818 c 1,84,85
 499 753 499 753 497.5 698 c 128,-1,86
 496 643 496 643 495 594 c 2,87,-1
 493 502 l 2,88,89
 492 458 492 458 492 416 c 2,90,-1
 491 304 l 2,91,92
 491 224 491 224 497 166 c 1,0,-1
EndSplineSet
EndChar

StartChar: o
Encoding: 111 111 101
Width: 1535
GlyphClass: 2
Flags: W
LayerCount: 2
Fore
SplineSet
199.5 342 m 128,-1,1
 150 455 150 455 150 567 c 128,-1,2
 150 679 150 679 172 757 c 128,-1,3
 194 835 194 835 234 903 c 128,-1,4
 274 971 274 971 330.5 1026.5 c 128,-1,5
 387 1082 387 1082 456 1122 c 0,6,7
 599 1204 599 1204 753 1204 c 128,-1,8
 907 1204 907 1204 1021 1156.5 c 128,-1,9
 1135 1109 1135 1109 1216 1026 c 0,10,11
 1384 854 1384 854 1384 594 c 0,12,13
 1384 322 1384 322 1200 150 c 1,14,15
 1025 -16 1025 -16 767 -16 c 256,16,17
 509 -16 509 -16 334 150 c 1,18,0
 249 229 249 229 199.5 342 c 128,-1,1
333 588 m 0,19,20
 333 491 333 491 363 408.5 c 128,-1,21
 393 326 393 326 450 268 c 0,22,23
 567 149 567 149 766 149 c 0,24,25
 954 149 954 149 1072 261 c 0,26,27
 1201 382 1201 382 1201 594 c 0,28,29
 1201 784 1201 784 1086 908 c 1,30,31
 967 1039 967 1039 766 1039 c 0,32,33
 566 1039 566 1039 446 908 c 0,34,35
 333 785 333 785 333 588 c 0,19,20
EndSplineSet
EndChar

StartChar: p
Encoding: 112 112 102
Width: 1533
GlyphClass: 2
Flags: W
LayerCount: 2
Fore
SplineSet
393 -449 m 0,0,1
 393 -510 393 -510 305 -510 c 0,2,3
 273 -510 273 -510 250.5 -498.5 c 128,-1,4
 228 -487 228 -487 228 -446.5 c 128,-1,5
 228 -406 228 -406 227.5 -336 c 128,-1,6
 227 -266 227 -266 226 -188 c 1,7,-1
 226 -33 l 1,8,9
 225 44 225 44 225 89.5 c 128,-1,10
 225 135 225 135 225.5 202.5 c 128,-1,11
 226 270 226 270 226 356 c 2,12,-1
 228 538 l 1,13,14
 228 634 228 634 228 817 c 128,-1,15
 228 1000 228 1000 219 1056 c 1,16,-1
 129 1046 l 1,17,18
 76 1046 76 1046 56 1090 c 0,19,20
 48 1106 48 1106 48 1137.5 c 128,-1,21
 48 1169 48 1169 69 1190 c 128,-1,22
 90 1211 90 1211 119 1211 c 1,23,-1
 165 1205 l 1,24,-1
 322 1211 l 1,25,26
 369 1211 369 1211 388 1165 c 0,27,28
 393 1153 393 1153 393 1125 c 128,-1,29
 393 1097 393 1097 386 1051.5 c 128,-1,30
 379 1006 379 1006 379 958 c 1,31,32
 429 1060 429 1060 542 1128 c 0,33,34
 669 1204 669 1204 813.5 1204 c 128,-1,35
 958 1204 958 1204 1061 1166 c 128,-1,36
 1164 1128 1164 1128 1236 1052 c 1,37,38
 1387 896 1387 896 1387 604 c 0,39,40
 1387 330 1387 330 1242 162 c 0,41,42
 1087 -16 1087 -16 812 -16 c 0,43,44
 503 -16 503 -16 385 178 c 1,45,46
 393 -414 393 -414 393 -449 c 0,0,1
379 514 m 1,47,48
 399 348 399 348 514 247 c 0,49,50
 625 149 625 149 775 149 c 0,51,52
 997 149 997 149 1100.5 261 c 128,-1,53
 1204 373 1204 373 1204 604 c 0,54,55
 1204 799 1204 799 1104 917 c 1,56,57
 999 1039 999 1039 814 1039 c 0,58,59
 646 1039 646 1039 520 919 c 0,60,61
 389 794 389 794 379 611 c 1,62,-1
 379 514 l 1,47,48
EndSplineSet
EndChar

StartChar: q
Encoding: 113 113 103
Width: 1533
GlyphClass: 2
Flags: W
LayerCount: 2
Fore
SplineSet
1307 -510 m 0,0,1
 1170 -510 1170 -510 1170 -372 c 2,2,-1
 1170 201 l 1,3,4
 1070 50 1070 50 850 0 c 0,5,6
 781 -16 781 -16 679.5 -16 c 128,-1,7
 578 -16 578 -16 469.5 27 c 128,-1,8
 361 70 361 70 282 150 c 0,9,10
 115 319 115 319 115 594 c 0,11,12
 115 848 115 848 289 1024 c 0,13,14
 467 1204 467 1204 737.5 1204 c 128,-1,15
 1008 1204 1008 1204 1168 1024 c 1,16,-1
 1181 1057 l 2,17,18
 1199 1102 1199 1102 1221 1121 c 128,-1,19
 1243 1140 1243 1140 1277 1140 c 128,-1,20
 1311 1140 1311 1140 1335 1113 c 128,-1,21
 1359 1086 1359 1086 1359 1046 c 128,-1,22
 1359 1006 1359 1006 1352.5 977 c 128,-1,23
 1346 948 1346 948 1346 923.5 c 128,-1,24
 1346 899 1346 899 1345 845 c 2,25,-1
 1341 618 l 2,26,27
 1340 561 1340 561 1340 510 c 2,28,-1
 1340 -310 l 1,29,30
 1357 -304 1357 -304 1372 -290 c 2,31,-1
 1400 -264 l 1,32,33
 1435 -230 1435 -230 1454 -230 c 128,-1,34
 1473 -230 1473 -230 1487.5 -234 c 128,-1,35
 1502 -238 1502 -238 1514 -248 c 0,36,37
 1544 -272 1544 -272 1544 -308 c 0,38,39
 1544 -365 1544 -365 1498 -392 c 0,40,41
 1481 -402 1481 -402 1457 -422 c 128,-1,42
 1433 -442 1433 -442 1406 -462 c 0,43,44
 1341 -510 1341 -510 1307 -510 c 0,0,1
288 586 m 0,45,46
 288 493 288 493 321 411 c 128,-1,47
 354 329 354 329 412 271 c 0,48,49
 534 149 534 149 713 149 c 0,50,51
 887 149 887 149 1010 244 c 0,52,53
 1137 343 1137 343 1167 509 c 1,54,-1
 1163 696 l 1,55,56
 1131 849 1131 849 1022 941 c 0,57,58
 905 1039 905 1039 723 1039 c 0,59,60
 525 1039 525 1039 402 902 c 0,61,62
 288 774 288 774 288 586 c 0,45,46
EndSplineSet
EndChar

StartChar: r
Encoding: 114 114 104
Width: 1193
GlyphClass: 2
Flags: W
LayerCount: 2
Fore
SplineSet
854 941 m 1,0,-1
 854 967 l 2,1,2
 854 971 854 971 853.5 975.5 c 128,-1,3
 853 980 853 980 853 989 c 1,4,5
 423 896 423 896 353 879 c 1,6,-1
 353 158 l 1,7,8
 387 160 387 160 427 171.5 c 128,-1,9
 467 183 467 183 486 190 c 0,10,11
 532 209 532 209 565.5 181.5 c 128,-1,12
 599 154 599 154 599 115 c 128,-1,13
 599 76 599 76 582 58 c 0,14,15
 552 25 552 25 526.5 23 c 128,-1,16
 501 21 501 21 464 14 c 2,17,-1
 388 0 l 1,18,19
 287 -20 287 -20 256 -20 c 128,-1,20
 225 -20 225 -20 197 4 c 128,-1,21
 169 28 169 28 169 73 c 2,22,-1
 172 222 l 1,23,-1
 172 1009 l 2,24,25
 172 1037 172 1037 166 1062.5 c 128,-1,26
 160 1088 160 1088 160 1128 c 128,-1,27
 160 1168 160 1168 191.5 1190.5 c 128,-1,28
 223 1213 223 1213 261 1213 c 128,-1,29
 299 1213 299 1213 316 1204 c 128,-1,30
 333 1195 333 1195 344 1182 c 0,31,32
 366 1156 366 1156 366 1129 c 1,33,-1
 357 1076 l 1,34,35
 355 1054 355 1054 355 1031 c 1,36,37
 754 1126 754 1126 851 1157 c 1,38,39
 874 1204 874 1204 927 1204 c 0,40,41
 1030 1204 1030 1204 1030 1136 c 1,42,-1
 1025 1037 l 1,43,44
 1025 912 1025 912 1028 860 c 1,45,-1
 1034 786 l 2,46,47
 1035 764 1035 764 1035 740 c 128,-1,48
 1035 716 1035 716 1025 702.5 c 128,-1,49
 1015 689 1015 689 1000 680 c 0,50,51
 969 660 969 660 939.5 660 c 128,-1,52
 910 660 910 660 894.5 668 c 128,-1,53
 879 676 879 676 869 689 c 0,54,55
 851 712 851 712 851 751 c 2,56,-1
 854 941 l 1,0,-1
EndSplineSet
EndChar

StartChar: s
Encoding: 115 115 105
Width: 1363
GlyphClass: 2
Flags: W
LayerCount: 2
Fore
SplineSet
1121 973 m 0,0,1
 1121 890 1121 890 1032 890 c 0,2,3
 976 890 976 890 951 959 c 1,4,5
 903 1010 903 1010 729 1043 c 0,6,7
 681 1052 681 1052 632.5 1052 c 128,-1,8
 584 1052 584 1052 534 1043 c 128,-1,9
 484 1034 484 1034 447 1016 c 0,10,11
 369 976 369 976 369 912.5 c 128,-1,12
 369 849 369 849 403 814 c 128,-1,13
 437 779 437 779 492.5 755 c 128,-1,14
 548 731 548 731 619 714 c 1,15,-1
 764 676 l 2,16,17
 949 628 949 628 1020 575.5 c 128,-1,18
 1091 523 1091 523 1125 463 c 128,-1,19
 1159 403 1159 403 1159 323.5 c 128,-1,20
 1159 244 1159 244 1136.5 191.5 c 128,-1,21
 1114 139 1114 139 1076.5 102 c 128,-1,22
 1039 65 1039 65 990 41 c 128,-1,23
 941 17 941 17 887 3 c 0,24,25
 648 -59 648 -59 422 24 c 0,26,27
 247 88 247 88 186 188 c 0,28,29
 167 219 167 219 167 241.5 c 128,-1,30
 167 264 167 264 175.5 278.5 c 128,-1,31
 184 293 184 293 198 304 c 0,32,33
 225 325 225 325 255 325 c 128,-1,34
 285 325 285 325 302 314 c 128,-1,35
 319 303 319 303 332 286 c 2,36,-1
 359 249 l 2,37,38
 373 230 373 230 408.5 201.5 c 128,-1,39
 444 173 444 173 521 152 c 128,-1,40
 598 131 598 131 678 131 c 128,-1,41
 758 131 758 131 810.5 142 c 128,-1,42
 863 153 863 153 903 174 c 0,43,44
 989 221 989 221 989 291.5 c 128,-1,45
 989 362 989 362 955 401.5 c 128,-1,46
 921 441 921 441 865 467 c 128,-1,47
 809 493 809 493 738 510 c 2,48,-1
 592 546 l 1,49,50
 404 594 404 594 333.5 644 c 128,-1,51
 263 694 263 694 229 754 c 128,-1,52
 195 814 195 814 195 886.5 c 128,-1,53
 195 959 195 959 214 1003 c 128,-1,54
 233 1047 233 1047 266 1080.5 c 128,-1,55
 299 1114 299 1114 343.5 1137.5 c 128,-1,56
 388 1161 388 1161 438 1176 c 0,57,58
 538 1204 538 1204 619.5 1204 c 128,-1,59
 701 1204 701 1204 742.5 1199 c 128,-1,60
 784 1194 784 1194 820 1186 c 0,61,62
 875 1173 875 1173 961 1137 c 1,63,64
 966 1200 966 1200 1000 1226 c 0,65,66
 1013 1237 1013 1237 1034 1237 c 0,67,68
 1120 1237 1120 1237 1118 1167 c 2,69,-1
 1112 1019 l 1,70,71
 1121 1005 1121 1005 1121 973 c 0,0,1
EndSplineSet
EndChar

StartChar: t
Encoding: 116 116 106
Width: 1022
GlyphClass: 2
Flags: W
LayerCount: 2
Fore
SplineSet
886 1100 m 0,0,1
 886 1008 886 1008 805 1008 c 0,2,3
 788 1008 788 1008 753 1010 c 2,4,-1
 698 1014 l 2,5,6
 679 1016 679 1016 672 1016 c 2,7,-1
 503 1015 l 1,8,-1
 509 171 l 1,9,10
 587 185 587 185 666 208 c 1,11,-1
 826 257 l 1,12,13
 862 274 862 274 897.5 274 c 128,-1,14
 933 274 933 274 954.5 247 c 128,-1,15
 976 220 976 220 976 193.5 c 128,-1,16
 976 167 976 167 971 154 c 128,-1,17
 966 141 966 141 955 128 c 0,18,19
 929 98 929 98 900 92 c 128,-1,20
 871 86 871 86 838 78 c 2,21,-1
 672 38 l 1,22,23
 502 -4 502 -4 467.5 -4 c 128,-1,24
 433 -4 433 -4 415 -1 c 128,-1,25
 397 2 397 2 381 11 c 0,26,27
 342 33 342 33 342 76 c 2,28,-1
 334 1014 l 1,29,-1
 179 1013 l 2,30,31
 132 1013 132 1013 116 1072 c 0,32,33
 112 1088 112 1088 112 1111 c 128,-1,34
 112 1134 112 1134 119.5 1150 c 128,-1,35
 127 1166 127 1166 142 1173 c 0,36,37
 161 1182 161 1182 230 1182 c 2,38,-1
 333 1182 l 1,39,40
 331 1308 331 1308 331 1349 c 0,41,42
 331 1366 331 1366 329 1379 c 128,-1,43
 327 1392 327 1392 325 1405 c 0,44,45
 320 1438 320 1438 320 1472 c 0,46,47
 320 1547 320 1547 418 1547 c 128,-1,48
 516 1547 516 1547 516 1469 c 0,49,50
 516 1426 516 1426 509 1385 c 128,-1,51
 502 1344 502 1344 502 1294 c 2,52,-1
 502 1182 l 1,53,-1
 812 1190 l 2,54,55
 841 1190 841 1190 863.5 1169.5 c 128,-1,56
 886 1149 886 1149 886 1100 c 0,0,1
EndSplineSet
EndChar

StartChar: u
Encoding: 117 117 107
Width: 1538
GlyphClass: 2
Flags: W
LayerCount: 2
Fore
SplineSet
1269 186 m 1,0,-1
 1276 69 l 1,1,2
 1276 24 1276 24 1262 12 c 0,3,4
 1236 -10 1236 -10 1189.5 -11 c 128,-1,5
 1143 -12 1143 -12 1127 -4 c 128,-1,6
 1111 4 1111 4 1101 16 c 0,7,8
 1082 37 1082 37 1082 67 c 0,9,10
 1082 79 1082 79 1085 93 c 128,-1,11
 1088 107 1088 107 1090 132 c 1,12,13
 988 30 988 30 806 -4 c 0,14,15
 755 -14 755 -14 712 -14 c 0,16,17
 410 -14 410 -14 286 116 c 0,18,19
 169 239 169 239 169 519 c 0,20,21
 169 717 169 717 234 890 c 0,22,23
 256 951 256 951 288 1000 c 1,24,25
 201 974 201 974 192 974 c 0,26,27
 114 974 114 974 114 1061 c 0,28,29
 114 1095 114 1095 133.5 1111.5 c 128,-1,30
 153 1128 153 1128 188.5 1138.5 c 128,-1,31
 224 1149 224 1149 273.5 1159.5 c 128,-1,32
 323 1170 323 1170 356 1184 c 0,33,34
 407 1204 407 1204 444.5 1204 c 128,-1,35
 482 1204 482 1204 505 1178.5 c 128,-1,36
 528 1153 528 1153 528 1123 c 0,37,38
 528 1065 528 1065 487.5 1021 c 128,-1,39
 447 977 447 977 420.5 918.5 c 128,-1,40
 394 860 394 860 376 792 c 0,41,42
 340 658 340 658 340 537.5 c 128,-1,43
 340 417 340 417 361 345.5 c 128,-1,44
 382 274 382 274 428 230 c 1,45,46
 514 145 514 145 717 145 c 0,47,48
 949 145 949 145 1096 341 c 1,49,50
 1101 574 1101 574 1101 663 c 0,51,52
 1101 848 1101 848 1094 1011 c 1,53,54
 1076 1005 1076 1005 1056 1000 c 2,55,-1
 1018 990 l 2,56,57
 980 981 980 981 955 981 c 128,-1,58
 930 981 930 981 904.5 1007 c 128,-1,59
 879 1033 879 1033 879 1070.5 c 128,-1,60
 879 1108 879 1108 892.5 1124 c 128,-1,61
 906 1140 906 1140 930.5 1150 c 128,-1,62
 955 1160 955 1160 990 1166 c 2,63,-1
 1137 1195 l 2,64,65
 1150 1197 1150 1197 1162.5 1200.5 c 128,-1,66
 1175 1204 1175 1204 1196.5 1204 c 128,-1,67
 1218 1204 1218 1204 1232 1197 c 128,-1,68
 1246 1190 1246 1190 1253 1176 c 0,69,70
 1262 1159 1262 1159 1262 1095 c 2,71,-1
 1269 186 l 1,0,-1
EndSplineSet
EndChar

StartChar: v
Encoding: 118 118 108
Width: 1363
GlyphClass: 2
Flags: W
LayerCount: 2
Fore
SplineSet
1031 1187 m 2,0,-1
 1200 1190 l 2,1,2
 1255 1190 1255 1190 1280 1150 c 0,3,4
 1288 1137 1288 1137 1288 1109 c 128,-1,5
 1288 1081 1288 1081 1257.5 1058 c 128,-1,6
 1227 1035 1227 1035 1163 1035 c 0,7,8
 1158 1035 1158 1035 1152 1035 c 1,9,10
 1181 1006 1181 1006 1190 874 c 0,11,12
 1192 844 1192 844 1192 804 c 128,-1,13
 1192 764 1192 764 1174 707 c 128,-1,14
 1156 650 1156 650 1127 600 c 128,-1,15
 1098 550 1098 550 1060.5 505 c 128,-1,16
 1023 460 1023 460 984 418 c 2,17,-1
 906 334 l 2,18,19
 773 190 773 190 768 62 c 0,20,21
 766 10 766 10 736 -14 c 1,22,23
 701 -40 701 -40 650 -22 c 0,24,25
 615 -10 615 -10 602 11 c 128,-1,26
 589 32 589 32 589 47 c 0,27,28
 588 113 588 113 556 169.5 c 128,-1,29
 524 226 524 226 477 281.5 c 128,-1,30
 430 337 430 337 375.5 394.5 c 128,-1,31
 321 452 321 452 274 519 c 0,32,33
 166 675 166 675 166 847 c 0,34,35
 166 884 166 884 175.5 949 c 128,-1,36
 185 1014 185 1014 188 1024 c 1,37,-1
 131 1024 l 2,38,39
 74 1024 74 1024 45 1072 c 0,40,41
 35 1089 35 1089 35 1122.5 c 128,-1,42
 35 1156 35 1156 60.5 1175.5 c 128,-1,43
 86 1195 86 1195 116 1195 c 2,44,-1
 274 1191 l 1,45,-1
 353 1194 l 1,46,47
 402 1194 402 1194 424 1152 c 0,48,49
 430 1140 430 1140 430 1129 c 0,50,51
 430 1038 430 1038 363 1028 c 1,52,53
 350 988 350 988 343 921.5 c 128,-1,54
 336 855 336 855 336 804.5 c 128,-1,55
 336 754 336 754 361.5 694.5 c 128,-1,56
 387 635 387 635 427 585 c 128,-1,57
 467 535 467 535 516 487 c 128,-1,58
 565 439 565 439 593.5 403.5 c 128,-1,59
 622 368 622 368 630.5 352.5 c 128,-1,60
 639 337 639 337 647 320 c 2,61,-1
 662 288 l 2,62,63
 669 273 669 273 676 262 c 1,64,65
 683 275 683 275 691.5 292.5 c 128,-1,66
 700 310 700 310 708 328 c 0,67,68
 726 364 726 364 758.5 405 c 128,-1,69
 791 446 791 446 840 492 c 128,-1,70
 889 538 889 538 930 587 c 0,71,72
 1022 699 1022 699 1022 837 c 0,73,74
 1022 957 1022 957 978 1017 c 2,75,-1
 957 1046 l 2,76,77
 934 1078 934 1078 934 1104.5 c 128,-1,78
 934 1131 934 1131 938 1144 c 128,-1,79
 942 1157 942 1157 953 1166 c 0,80,81
 977 1187 977 1187 1031 1187 c 2,0,-1
EndSplineSet
EndChar

StartChar: w
Encoding: 119 119 109
Width: 1704
GlyphClass: 2
Flags: W
LayerCount: 2
Fore
SplineSet
410 173 m 2,0,1
 410 173 410 173 139 818 c 1,2,-1
 84 938 l 2,3,4
 60 990 60 990 44 1018 c 0,5,6
 2 1087 2 1087 2 1117.5 c 128,-1,7
 2 1148 2 1148 11 1162.5 c 128,-1,8
 20 1177 20 1177 34 1187 c 0,9,10
 59 1206 59 1206 91.5 1206 c 128,-1,11
 124 1206 124 1206 138.5 1198 c 128,-1,12
 153 1190 153 1190 162 1178 c 128,-1,13
 171 1166 171 1166 176 1151.5 c 128,-1,14
 181 1137 181 1137 191 1114 c 2,15,-1
 212 1068 l 2,16,17
 222 1045 222 1045 232 1022 c 2,18,-1
 550 264 l 1,19,-1
 767 815 l 1,20,-1
 711 938 l 2,21,22
 685 993 685 993 668 1022 c 0,23,24
 637 1076 637 1076 637 1109.5 c 128,-1,25
 637 1143 637 1143 644 1158.5 c 128,-1,26
 651 1174 651 1174 663 1184 c 0,27,28
 688 1206 688 1206 718 1206 c 128,-1,29
 748 1206 748 1206 762.5 1198 c 128,-1,30
 777 1190 777 1190 786 1178 c 128,-1,31
 795 1166 795 1166 800 1151.5 c 128,-1,32
 805 1137 805 1137 815 1115 c 0,33,34
 841 1056 841 1056 853 1027 c 1,35,36
 863 1050 863 1050 871.5 1080.5 c 128,-1,37
 880 1111 880 1111 893 1138 c 0,38,39
 924 1204 924 1204 981 1204 c 0,40,41
 1042 1204 1042 1204 1069 1162 c 0,42,43
 1078 1148 1078 1148 1078 1132 c 128,-1,44
 1078 1116 1078 1116 1072.5 1097.5 c 128,-1,45
 1067 1079 1067 1079 1059 1062 c 0,46,47
 1041 1022 1041 1022 1034 1015 c 128,-1,48
 1027 1008 1027 1008 1024 1002.5 c 128,-1,49
 1021 997 1021 997 1012 976 c 2,50,-1
 941 812 l 1,51,-1
 1174 264 l 1,52,-1
 1468 1009 l 2,53,54
 1477 1034 1477 1034 1485.5 1068 c 128,-1,55
 1494 1102 1494 1102 1508 1132 c 0,56,57
 1542 1204 1542 1204 1605 1204 c 0,58,59
 1649 1204 1649 1204 1675.5 1181.5 c 128,-1,60
 1702 1159 1702 1159 1702 1133.5 c 128,-1,61
 1702 1108 1702 1108 1693 1086.5 c 128,-1,62
 1684 1065 1684 1065 1673 1046 c 128,-1,63
 1662 1027 1662 1027 1651 1012.5 c 128,-1,64
 1640 998 1640 998 1634 984 c 0,65,66
 1354 304 1354 304 1325 238.5 c 128,-1,67
 1296 173 1296 173 1285 132 c 128,-1,68
 1274 91 1274 91 1262 62 c 0,69,70
 1236 0 1236 0 1172 0 c 0,71,72
 1107 0 1107 0 1043 157 c 2,73,-1
 855 612 l 1,74,-1
 707 253 l 1,75,-1
 698 232 l 1,76,77
 673 178 673 178 659.5 131.5 c 128,-1,78
 646 85 646 85 634.5 57 c 128,-1,79
 623 29 623 29 605 15 c 128,-1,80
 587 1 587 1 558.5 1 c 128,-1,81
 530 1 530 1 514 9 c 128,-1,82
 498 17 498 17 483 35 c 0,83,84
 452 72 452 72 410 173 c 2,0,1
EndSplineSet
EndChar

StartChar: x
Encoding: 120 120 110
Width: 1364
GlyphClass: 2
Flags: W
LayerCount: 2
Fore
SplineSet
1191 47 m 0,0,1
 1191 -21 1191 -21 1096 -21 c 0,2,3
 1082 -21 1082 -21 1054 -2.5 c 128,-1,4
 1026 16 1026 16 1015.5 27 c 128,-1,5
 1005 38 1005 38 992.5 53 c 128,-1,6
 980 68 980 68 965 88 c 2,7,-1
 875 209 l 1,8,-1
 792 314 l 1,9,-1
 671 461 l 1,10,-1
 381 74 l 1,11,12
 347 -27 347 -27 276 -27 c 0,13,14
 245 -27 245 -27 220 -10 c 0,15,16
 171 23 171 23 171 73 c 0,17,18
 171 108 171 108 193.5 135.5 c 128,-1,19
 216 163 216 163 244 192.5 c 128,-1,20
 272 222 272 222 316 272 c 1,21,-1
 420 400 l 2,22,23
 481 476 481 476 564 590 c 1,24,-1
 211 986 l 1,25,26
 150 1045 150 1045 150 1109 c 0,27,28
 150 1141 150 1141 172 1157 c 1,29,30
 207 1185 207 1185 230.5 1185 c 128,-1,31
 254 1185 254 1185 268.5 1176.5 c 128,-1,32
 283 1168 283 1168 296 1156 c 1,33,34
 329 1129 329 1129 333 1113 c 1,35,-1
 657 715 l 1,36,-1
 942 1084 l 1,37,-1
 963 1120 l 2,38,39
 1004 1189 1004 1189 1063 1189 c 0,40,41
 1113 1189 1113 1189 1145 1130 c 0,42,43
 1164 1097 1164 1097 1147 1064.5 c 128,-1,44
 1130 1032 1130 1032 1111 1006 c 0,45,46
 1076 958 1076 958 1040 919 c 1,47,-1
 767 586 l 1,48,49
 931 388 931 388 976 338 c 1,50,-1
 1090 216 l 1,51,-1
 1122 184 l 2,52,53
 1160 146 1160 146 1169 127.5 c 128,-1,54
 1178 109 1178 109 1182 94 c 0,55,56
 1191 66 1191 66 1191 47 c 0,0,1
EndSplineSet
EndChar

StartChar: y
Encoding: 121 121 111
Width: 1535
GlyphClass: 2
Flags: W
LayerCount: 2
Fore
SplineSet
1284 248 m 1,0,-1
 1291 49 l 1,1,2
 1291 -395 1291 -395 949 -482 c 0,3,4
 842 -510 842 -510 732 -510 c 128,-1,5
 622 -510 622 -510 534 -491 c 128,-1,6
 446 -472 446 -472 377 -438 c 0,7,8
 224 -363 224 -363 224 -255 c 0,9,10
 224 -201 224 -201 276 -175 c 0,11,12
 295 -166 295 -166 314 -166 c 128,-1,13
 333 -166 333 -166 344 -171.5 c 128,-1,14
 355 -177 355 -177 365 -186 c 0,15,16
 383 -202 383 -202 409 -235 c 128,-1,17
 435 -268 435 -268 472 -292.5 c 128,-1,18
 509 -317 509 -317 549 -330 c 0,19,20
 608 -348 608 -348 710.5 -348 c 128,-1,21
 813 -348 813 -348 886.5 -329.5 c 128,-1,22
 960 -311 960 -311 1012 -265 c 0,23,24
 1121 -169 1121 -169 1121 56 c 1,25,-1
 1120 93 l 2,26,27
 1120 108 1120 108 1119.5 125.5 c 128,-1,28
 1119 143 1119 143 1119 158 c 1,29,30
 1032 47 1032 47 852 2 c 0,31,32
 794 -12 794 -12 725 -12 c 128,-1,33
 656 -12 656 -12 581.5 2 c 128,-1,34
 507 16 507 16 441.5 45.5 c 128,-1,35
 376 75 376 75 321 122.5 c 128,-1,36
 266 170 266 170 226 236 c 0,37,38
 143 377 143 377 143 588 c 0,39,40
 143 746 143 746 222 896 c 0,41,42
 250 948 250 948 289 992 c 1,43,-1
 235 971 l 2,44,45
 217 964 217 964 198.5 964 c 128,-1,46
 180 964 180 964 165 970.5 c 128,-1,47
 150 977 150 977 139 987 c 0,48,49
 115 1009 115 1009 115 1032 c 128,-1,50
 115 1055 115 1055 121 1072 c 128,-1,51
 127 1089 127 1089 144 1102 c 0,52,53
 176 1128 176 1128 266 1145 c 1,54,-1
 454 1191 l 1,55,56
 478 1203 478 1203 509.5 1203 c 128,-1,57
 541 1203 541 1203 563.5 1182.5 c 128,-1,58
 586 1162 586 1162 586 1135 c 128,-1,59
 586 1108 586 1108 581 1089 c 128,-1,60
 576 1070 576 1070 550 1052 c 1,61,62
 396 922 396 922 336 720 c 0,63,64
 316 653 316 653 316 557 c 128,-1,65
 316 461 316 461 349.5 377.5 c 128,-1,66
 383 294 383 294 440 243 c 0,67,68
 545 149 545 149 729 149 c 0,69,70
 925 149 925 149 1056 282 c 0,71,72
 1095 323 1095 323 1119 371 c 1,73,-1
 1119 474 l 1,74,-1
 1118 777 l 1,75,-1
 1118 1010 l 1,76,77
 1107 1006 1107 1006 1086 1000 c 2,78,-1
 1044 986 l 1,79,80
 986 970 986 970 967.5 970 c 128,-1,81
 949 970 949 970 932.5 974 c 128,-1,82
 916 978 916 978 903 986 c 0,83,84
 873 1006 873 1006 873 1044 c 0,85,86
 873 1122 873 1122 962 1137 c 1,87,-1
 1128 1183 l 1,88,89
 1163 1203 1163 1203 1190 1203 c 128,-1,90
 1217 1203 1217 1203 1231 1201.5 c 128,-1,91
 1245 1200 1245 1200 1259 1192 c 0,92,93
 1294 1174 1294 1174 1294 1113 c 1,94,-1
 1283 1032 l 1,95,-1
 1284 248 l 1,0,-1
EndSplineSet
EndChar

StartChar: z
Encoding: 122 122 112
Width: 1193
GlyphClass: 2
Flags: W
LayerCount: 2
Fore
SplineSet
296 0 m 2,0,1
 146 0 146 0 146 96 c 0,2,3
 146 138 146 138 172 190 c 1,4,-1
 463 597 l 1,5,6
 676 904 676 904 754 1027 c 1,7,-1
 693 1027 l 1,8,-1
 246 1021 l 2,9,10
 187 1021 187 1021 162 1067 c 0,11,12
 154 1082 154 1082 154 1097.5 c 128,-1,13
 154 1113 154 1113 157 1128.5 c 128,-1,14
 160 1144 160 1144 170 1158 c 0,15,16
 192 1189 192 1189 248 1189 c 2,17,-1
 885 1190 l 2,18,19
 986 1190 986 1190 990 1094 c 1,20,21
 990 1054 990 1054 918 948 c 2,22,-1
 507 350 l 1,23,-1
 378 157 l 1,24,-1
 801 164 l 2,25,26
 844 164 844 164 869 170 c 0,27,28
 916 181 916 181 943 181 c 0,29,30
 1055 181 1055 181 1055 87 c 0,31,32
 1055 39 1055 39 1028 19.5 c 128,-1,33
 1001 0 1001 0 952 0 c 2,34,-1
 296 0 l 2,0,1
EndSplineSet
EndChar

StartChar: braceleft
Encoding: 123 123 113
Width: 1024
GlyphClass: 2
Flags: W
LayerCount: 2
Fore
SplineSet
654 1688 m 0,0,1
 569 1688 569 1688 569 1522 c 0,2,3
 569 1353 569 1353 576.5 1265.5 c 128,-1,4
 584 1178 584 1178 586 1146 c 0,5,6
 593 1061 593 1061 593 1009.5 c 128,-1,7
 593 958 593 958 589 918.5 c 128,-1,8
 585 879 585 879 574 846 c 0,9,10
 553 780 553 780 497 751 c 1,11,12
 547 723 547 723 578.5 669 c 128,-1,13
 610 615 610 615 610 542.5 c 128,-1,14
 610 470 610 470 606 399 c 128,-1,15
 602 328 602 328 597 258 c 0,16,17
 584 74 584 74 584 10 c 128,-1,18
 584 -54 584 -54 584.5 -74 c 128,-1,19
 585 -94 585 -94 589 -112 c 0,20,21
 598 -152 598 -152 628 -152 c 0,22,23
 654 -152 654 -152 683 -144 c 0,24,25
 732 -131 732 -131 773 -128 c 1,26,27
 809 -134 809 -134 824 -154 c 0,28,29
 849 -187 849 -187 849 -217.5 c 128,-1,30
 849 -248 849 -248 828.5 -269 c 128,-1,31
 808 -290 808 -290 778 -301 c 0,32,33
 728 -320 728 -320 666.5 -320 c 128,-1,34
 605 -320 605 -320 559 -312.5 c 128,-1,35
 513 -305 513 -305 480 -280 c 0,36,37
 408 -228 408 -228 408 -87 c 0,38,39
 408 -75 408 -75 410 -41 c 2,40,-1
 415 42 l 2,41,42
 418 90 418 90 421 150 c 2,43,-1
 427 272 l 2,44,45
 434 419 434 419 434 518 c 0,46,47
 434 669 434 669 305 669 c 1,48,-1
 239 665 l 1,49,50
 200 665 200 665 171.5 688 c 128,-1,51
 143 711 143 711 143 756 c 128,-1,52
 143 801 143 801 167.5 822.5 c 128,-1,53
 192 844 192 844 213.5 844 c 128,-1,54
 235 844 235 844 247 843 c 2,55,-1
 270 841 l 2,56,57
 283 840 283 840 294 838 c 1,58,59
 356 838 356 838 394.5 877 c 128,-1,60
 433 916 433 916 433 1003 c 0,61,62
 433 1052 433 1052 422 1161 c 0,63,64
 401 1369 401 1369 401 1451.5 c 128,-1,65
 401 1534 401 1534 415.5 1617 c 128,-1,66
 430 1700 430 1700 460 1750 c 0,67,68
 516 1843 516 1843 652 1843 c 0,69,70
 795 1843 795 1843 854 1788 c 1,71,72
 878 1767 878 1767 878 1733 c 0,73,74
 878 1657 878 1657 804 1657 c 0,75,76
 773 1657 773 1657 746 1668 c 0,77,78
 692 1688 692 1688 654 1688 c 0,0,1
EndSplineSet
EndChar

StartChar: bar
Encoding: 124 124 114
Width: 854
GlyphClass: 2
Flags: W
LayerCount: 2
Fore
SplineSet
504 -43 m 1,0,-1
 517 -116 l 1,1,2
 517 -164 517 -164 470 -186 c 0,3,4
 452 -195 452 -195 416.5 -195 c 128,-1,5
 381 -195 381 -195 355.5 -175.5 c 128,-1,6
 330 -156 330 -156 330 -124 c 2,7,-1
 330 -32 l 1,8,-1
 331 295 l 2,9,10
 331 396 331 396 332 507 c 0,11,12
 335 1370 335 1370 336 1495.5 c 128,-1,13
 337 1621 337 1621 337 1665 c 0,14,15
 337 1741 337 1741 440 1741 c 0,16,17
 487 1741 487 1741 500 1692 c 0,18,19
 507 1669 507 1669 507 1329 c 2,20,-1
 507 876 l 2,21,22
 507 762 507 762 506 652 c 1,23,-1
 506 438 l 1,24,25
 505 335 505 335 504.5 244.5 c 128,-1,26
 504 154 504 154 504 80 c 2,27,-1
 504 -43 l 1,0,-1
EndSplineSet
EndChar

StartChar: braceright
Encoding: 125 125 115
Width: 1024
GlyphClass: 2
Flags: W
LayerCount: 2
Fore
SplineSet
357 1674 m 0,0,1
 442 1674 442 1674 442 1508 c 0,2,3
 442 1339 442 1339 434.5 1251.5 c 128,-1,4
 427 1164 427 1164 425 1132 c 0,5,6
 418 1047 418 1047 418 995.5 c 128,-1,7
 418 944 418 944 422 904.5 c 128,-1,8
 426 865 426 865 437 832 c 0,9,10
 458 766 458 766 514 737 c 1,11,12
 464 709 464 709 432.5 655 c 128,-1,13
 401 601 401 601 401 528.5 c 128,-1,14
 401 456 401 456 405 385 c 128,-1,15
 409 314 409 314 414 244 c 0,16,17
 427 60 427 60 427 -4 c 128,-1,18
 427 -68 427 -68 426.5 -88 c 128,-1,19
 426 -108 426 -108 422 -126 c 0,20,21
 413 -166 413 -166 383 -166 c 0,22,23
 357 -166 357 -166 328 -158 c 0,24,25
 279 -145 279 -145 238 -142 c 1,26,27
 202 -148 202 -148 187 -168 c 0,28,29
 162 -201 162 -201 162 -231.5 c 128,-1,30
 162 -262 162 -262 182.5 -283 c 128,-1,31
 203 -304 203 -304 233 -315 c 0,32,33
 283 -334 283 -334 344.5 -334 c 128,-1,34
 406 -334 406 -334 452 -326.5 c 128,-1,35
 498 -319 498 -319 531 -294 c 0,36,37
 603 -242 603 -242 603 -101 c 0,38,39
 603 -89 603 -89 601 -55 c 2,40,-1
 596 28 l 2,41,42
 593 76 593 76 590 136 c 2,43,-1
 584 258 l 2,44,45
 577 405 577 405 577 504 c 0,46,47
 577 655 577 655 706 655 c 1,48,-1
 772 651 l 1,49,50
 811 651 811 651 839.5 674 c 128,-1,51
 868 697 868 697 868 742 c 128,-1,52
 868 787 868 787 843.5 808.5 c 128,-1,53
 819 830 819 830 797.5 830 c 128,-1,54
 776 830 776 830 764 829 c 2,55,-1
 741 827 l 2,56,57
 728 826 728 826 717 824 c 1,58,59
 655 824 655 824 616.5 863 c 128,-1,60
 578 902 578 902 578 989 c 0,61,62
 578 1038 578 1038 589 1147 c 0,63,64
 610 1355 610 1355 610 1437.5 c 128,-1,65
 610 1520 610 1520 595.5 1603 c 128,-1,66
 581 1686 581 1686 551 1736 c 0,67,68
 495 1829 495 1829 359 1829 c 0,69,70
 216 1829 216 1829 157 1774 c 1,71,72
 133 1753 133 1753 133 1719 c 0,73,74
 133 1643 133 1643 207 1643 c 0,75,76
 238 1643 238 1643 265 1654 c 0,77,78
 319 1674 319 1674 357 1674 c 0,0,1
EndSplineSet
EndChar

StartChar: asciitilde
Encoding: 126 126 116
Width: 1536
GlyphClass: 2
Flags: W
LayerCount: 2
Fore
SplineSet
1242 742 m 0,0,1
 1337 742 1337 742 1337 647 c 0,2,3
 1337 504 1337 504 1248 412 c 0,4,5
 1167 327 1167 327 1044 327 c 0,6,7
 872 327 872 327 726 468 c 1,8,9
 635 558 635 558 584.5 584 c 128,-1,10
 534 610 534 610 492 610 c 128,-1,11
 450 610 450 610 427 594.5 c 128,-1,12
 404 579 404 579 390 554 c 1,13,14
 365 513 365 513 356.5 455 c 128,-1,15
 348 397 348 397 323.5 379.5 c 128,-1,16
 299 362 299 362 276.5 362 c 128,-1,17
 254 362 254 362 238.5 366.5 c 128,-1,18
 223 371 223 371 210 380 c 0,19,20
 180 401 180 401 176.5 424.5 c 128,-1,21
 173 448 173 448 173 462 c 128,-1,22
 173 476 173 476 176 500 c 128,-1,23
 179 524 179 524 188 553 c 0,24,25
 229 694 229 694 350 744 c 1,26,27
 415 772 415 772 483 772 c 0,28,29
 637 772 637 772 782 632 c 1,30,31
 875 544 875 544 924.5 518 c 128,-1,32
 974 492 974 492 1010 492 c 128,-1,33
 1046 492 1046 492 1068 503 c 128,-1,34
 1090 514 1090 514 1107 534 c 0,35,36
 1143 575 1143 575 1147 640 c 1,37,38
 1154 714 1154 714 1196 734 c 0,39,40
 1214 742 1214 742 1242 742 c 0,0,1
EndSplineSet
EndChar

StartChar: exclamdown
Encoding: 161 161 118
Width: 599
GlyphClass: 2
Flags: W
LayerCount: 2
Fore
SplineSet
207 1092 m 1,0,1
 207 1163 207 1163 299 1163 c 0,2,3
 357 1163 357 1163 382 1121 c 0,4,5
 391 1107 391 1107 391 1088.5 c 128,-1,6
 391 1070 391 1070 390 1047 c 2,7,-1
 388 1003 l 2,8,9
 387 981 387 981 386 962.5 c 128,-1,10
 385 944 385 944 385 912 c 128,-1,11
 385 880 385 880 385.5 808 c 128,-1,12
 386 736 386 736 387 657 c 2,13,-1
 391 333 l 2,14,15
 393 179 393 179 393 74 c 1,16,-1
 399 -106 l 1,17,18
 399 -137 399 -137 375.5 -161 c 128,-1,19
 352 -185 352 -185 315 -185 c 128,-1,20
 278 -185 278 -185 261 -180.5 c 128,-1,21
 244 -176 244 -176 231 -166 c 0,22,23
 202 -144 202 -144 202 -101 c 1,24,-1
 212 98 l 1,25,-1
 212 203 l 2,26,27
 212 266 212 266 212 341 c 2,28,-1
 214 659 l 2,29,30
 215 739 215 739 215 811 c 2,31,-1
 215 940 l 1,32,-1
 207 1092 l 1,0,1
208 1425 m 1,33,-1
 209 1448 l 1,34,35
 223 1626 223 1626 317 1626 c 0,36,37
 361 1626 361 1626 386 1593 c 0,38,39
 404 1568 404 1568 404 1539.5 c 128,-1,40
 404 1511 404 1511 397 1459 c 1,41,42
 383 1369 383 1369 344 1351 c 0,43,44
 329 1343 329 1343 313.5 1343 c 128,-1,45
 298 1343 298 1343 276.5 1345 c 128,-1,46
 255 1347 255 1347 238 1361 c 0,47,48
 208 1387 208 1387 208 1425 c 1,33,-1
EndSplineSet
EndChar

StartChar: cent
Encoding: 162 162 119
Width: 1401
GlyphClass: 2
Flags: W
LayerCount: 2
Fore
SplineSet
729 -10 m 2,0,-1
 694 -9 l 1,1,2
 685 -107 685 -107 681 -162.5 c 128,-1,3
 677 -218 677 -218 668 -232.5 c 128,-1,4
 659 -247 659 -247 646 -256 c 0,5,6
 620 -274 620 -274 596.5 -274 c 128,-1,7
 573 -274 573 -274 556.5 -268 c 128,-1,8
 540 -262 540 -262 528 -250 c 1,9,10
 498 -224 498 -224 504 -181 c 2,11,-1
 528 21 l 1,12,13
 355 78 355 78 251 222 c 0,14,15
 144 369 144 369 144 570 c 0,16,17
 144 830 144 830 281 990 c 0,18,19
 420 1153 420 1153 668 1173 c 1,20,-1
 698 1433 l 1,21,22
 692 1423 692 1423 688 1409 c 1,23,24
 705 1527 705 1527 707 1527 c 0,25,26
 708 1527 708 1527 698 1433 c 1,27,28
 724 1470 724 1470 777 1470 c 0,29,30
 834 1470 834 1470 858 1426 c 0,31,32
 865 1412 865 1412 863 1393 c 2,33,-1
 836 1167 l 1,34,35
 967 1145 967 1145 1073 1070 c 1,36,37
 1093 1125 1093 1125 1147 1125 c 0,38,39
 1179 1125 1179 1125 1202 1105 c 0,40,41
 1242 1069 1242 1069 1242 1032 c 128,-1,42
 1242 995 1242 995 1239.5 954 c 128,-1,43
 1237 913 1237 913 1226 878 c 0,44,45
 1202 794 1202 794 1136 794 c 0,46,47
 1077 794 1077 794 1052 843 c 0,48,49
 981 980 981 980 815 1006 c 1,50,51
 815 1006 815 1006 735 368 c 0,52,53
 722 259 722 259 711 154 c 1,54,-1
 721 154 l 2,55,56
 879 154 879 154 988 246 c 0,57,58
 1025 278 1025 278 1042 314 c 0,59,60
 1073 378 1073 378 1133 378 c 0,61,62
 1165 378 1165 378 1190 362 c 1,63,64
 1239 333 1239 333 1235 302 c 0,65,66
 1222 197 1222 197 1112 118 c 0,67,68
 985 27 985 27 798 -3 c 0,69,70
 753 -10 753 -10 729 -10 c 2,0,-1
648 1006 m 1,71,72
 320 964 320 964 320 577 c 0,73,74
 320 368 320 368 457 251 c 0,75,76
 499 215 499 215 548 192 c 1,77,-1
 648 1006 l 1,71,72
EndSplineSet
EndChar

StartChar: sterling
Encoding: 163 163 120
Width: 1198
GlyphClass: 2
Flags: W
LayerCount: 2
Fore
SplineSet
551 647 m 1,0,1
 580 553 580 553 580 450.5 c 128,-1,2
 580 348 580 348 536 262 c 1,3,4
 634 252 634 252 699 226.5 c 128,-1,5
 764 201 764 201 799 190 c 0,6,7
 882 164 882 164 927.5 164 c 128,-1,8
 973 164 973 164 995.5 167.5 c 128,-1,9
 1018 171 1018 171 1038 180 c 0,10,11
 1082 200 1082 200 1099 236 c 0,12,13
 1130 301 1130 301 1189 301 c 0,14,15
 1221 301 1221 301 1246.5 279.5 c 128,-1,16
 1272 258 1272 258 1272 219 c 0,17,18
 1272 160 1272 160 1225 109.5 c 128,-1,19
 1178 59 1178 59 1136 38 c 0,20,21
 1057 -2 1057 -2 944 -2 c 0,22,23
 860 -2 860 -2 798.5 17.5 c 128,-1,24
 737 37 737 37 701 50 c 2,25,-1
 628 75 l 1,26,27
 546 102 546 102 502 102 c 0,28,29
 446 102 446 102 403 97 c 1,30,31
 292 1 292 1 205 1 c 0,32,33
 135 1 135 1 104 52 c 0,34,35
 93 71 93 71 93 103.5 c 128,-1,36
 93 136 93 136 118 163 c 128,-1,37
 143 190 143 190 178 208 c 0,38,39
 238 237 238 237 317 249 c 1,40,41
 404 347 404 347 404 469 c 0,42,43
 404 547 404 547 369 645 c 1,44,45
 322 644 322 644 278 644 c 2,46,-1
 187 644 l 2,47,48
 138 644 138 644 113 669.5 c 128,-1,49
 88 695 88 695 88 717 c 128,-1,50
 88 739 88 739 93 753.5 c 128,-1,51
 98 768 98 768 109 780 c 0,52,53
 135 808 135 808 176 808 c 2,54,-1
 306 808 l 1,55,56
 249 966 249 966 249 1091.5 c 128,-1,57
 249 1217 249 1217 288.5 1301.5 c 128,-1,58
 328 1386 328 1386 396 1442 c 0,59,60
 533 1556 533 1556 756 1556 c 0,61,62
 1035 1556 1035 1556 1138 1388 c 0,63,64
 1175 1327 1175 1327 1175 1264 c 128,-1,65
 1175 1201 1175 1201 1162 1157 c 128,-1,66
 1149 1113 1149 1113 1124 1076 c 0,67,68
 1068 989 1068 989 982 989 c 0,69,70
 938 989 938 989 913 1013 c 128,-1,71
 888 1037 888 1037 888 1076.5 c 128,-1,72
 888 1116 888 1116 909.5 1144 c 128,-1,73
 931 1172 931 1172 968 1172 c 0,74,75
 971 1172 971 1172 974 1172 c 128,-1,76
 977 1172 977 1172 982 1170 c 1,77,78
 999 1202 999 1202 999 1241.5 c 128,-1,79
 999 1281 999 1281 979 1309 c 128,-1,80
 959 1337 959 1337 925 1356 c 0,81,82
 858 1392 858 1392 774 1392 c 128,-1,83
 690 1392 690 1392 630 1375.5 c 128,-1,84
 570 1359 570 1359 524 1324 c 0,85,86
 424 1250 424 1250 424 1105 c 0,87,88
 424 1025 424 1025 446.5 950.5 c 128,-1,89
 469 876 469 876 493 810 c 1,90,91
 651 812 651 812 735.5 812 c 128,-1,92
 820 812 820 812 837 804 c 128,-1,93
 854 796 854 796 864 784 c 0,94,95
 886 759 886 759 886 729 c 128,-1,96
 886 699 886 699 860.5 673.5 c 128,-1,97
 835 648 835 648 794 648 c 0,98,99
 731 648 731 648 686 648 c 128,-1,100
 641 648 641 648 612.5 647.5 c 128,-1,101
 584 647 584 647 551 647 c 1,0,1
EndSplineSet
EndChar

StartChar: currency
Encoding: 164 164 121
Width: 1368
GlyphClass: 2
Flags: W
LayerCount: 2
Fore
SplineSet
966 321 m 1,0,1
 847 230 847 230 684.5 230 c 128,-1,2
 522 230 522 230 404 309 c 1,3,4
 382 290 382 290 368 276 c 2,5,-1
 301 208 l 2,6,7
 243 150 243 150 210.5 121.5 c 128,-1,8
 178 93 178 93 154 93 c 0,9,10
 101 93 101 93 72 141 c 0,11,12
 62 159 62 159 62 185 c 128,-1,13
 62 211 62 211 74.5 227 c 128,-1,14
 87 243 87 243 106.5 256.5 c 128,-1,15
 126 270 126 270 149.5 284.5 c 128,-1,16
 173 299 173 299 202 324 c 2,17,-1
 298 411 l 1,18,19
 215 527 215 527 215 671.5 c 128,-1,20
 215 816 215 816 281 925 c 1,21,-1
 239 969 l 2,22,23
 189 1021 189 1021 150.5 1048 c 128,-1,24
 112 1075 112 1075 93 1090 c 0,25,26
 50 1126 50 1126 50 1159 c 128,-1,27
 50 1192 50 1192 60.5 1208.5 c 128,-1,28
 71 1225 71 1225 86 1234 c 0,29,30
 108 1248 108 1248 136.5 1248 c 128,-1,31
 165 1248 165 1248 185 1230 c 2,32,-1
 230 1189 l 2,33,34
 263 1158 263 1158 284 1136 c 2,35,-1
 347 1066 l 2,36,37
 360 1052 360 1052 377 1036 c 1,38,39
 504 1140 504 1140 681 1140 c 128,-1,40
 858 1140 858 1140 979 1042 c 1,41,42
 994 1056 994 1056 1006 1068 c 2,43,-1
 1031 1096 l 2,44,45
 1045 1111 1045 1111 1066 1132 c 2,46,-1
 1164 1224 l 2,47,48
 1184 1243 1184 1243 1201.5 1242.5 c 128,-1,49
 1219 1242 1219 1242 1234.5 1239.5 c 128,-1,50
 1250 1237 1250 1237 1265 1228 c 0,51,52
 1302 1206 1302 1206 1302 1170 c 128,-1,53
 1302 1134 1302 1134 1288.5 1116 c 128,-1,54
 1275 1098 1275 1098 1254.5 1081.5 c 128,-1,55
 1234 1065 1234 1065 1210 1049.5 c 128,-1,56
 1186 1034 1186 1034 1160 1012 c 2,57,-1
 1112 970 l 2,58,59
 1090 950 1090 950 1073 933 c 1,60,61
 1138 823 1138 823 1138 681 c 128,-1,62
 1138 539 1138 539 1065 426 c 1,63,-1
 1179 321 l 1,64,65
 1204 300 1204 300 1229 283 c 0,66,67
 1288 243 1288 243 1300.5 223.5 c 128,-1,68
 1313 204 1313 204 1313 193.5 c 128,-1,69
 1313 183 1313 183 1311 166.5 c 128,-1,70
 1309 150 1309 150 1298 133.5 c 128,-1,71
 1287 117 1287 117 1274 108 c 1,72,73
 1252 95 1252 95 1225 95 c 0,74,75
 1180 95 1180 95 1136.5 139 c 128,-1,76
 1093 183 1093 183 1070 208 c 1,77,78
 996 294 996 294 966 321 c 1,0,1
558 417 m 0,79,80
 611 397 611 397 676 397 c 128,-1,81
 741 397 741 397 793 415 c 128,-1,82
 845 433 845 433 884 469 c 0,83,84
 965 545 965 545 965 685 c 0,85,86
 965 811 965 811 893 889 c 0,87,88
 815 973 815 973 680 973 c 0,89,90
 544 973 544 973 466 889 c 0,91,92
 394 811 394 811 394 685 c 0,93,94
 394 479 394 479 558 417 c 0,79,80
EndSplineSet
EndChar

StartChar: yen
Encoding: 165 165 122
Width: 1370
GlyphClass: 2
Flags: W
LayerCount: 2
Fore
SplineSet
425 291 m 2,0,-1
 298 292 l 2,1,2
 243 292 243 292 228 334 c 0,3,4
 222 353 222 353 222 377.5 c 128,-1,5
 222 402 222 402 229 414 c 128,-1,6
 236 426 236 426 247 434 c 0,7,8
 266 447 266 447 287.5 448.5 c 128,-1,9
 309 450 309 450 339 451 c 128,-1,10
 369 452 369 452 410 452 c 0,11,12
 533 454 533 454 606 454 c 1,13,-1
 606 457 l 2,14,15
 606 497 606 497 605 535 c 2,16,-1
 603 610 l 1,17,18
 512 610 512 610 422 610 c 2,19,-1
 294 611 l 2,20,21
 259 611 259 611 245 623 c 0,22,23
 219 647 219 647 219 684.5 c 128,-1,24
 219 722 219 722 226 733.5 c 128,-1,25
 233 745 233 745 244 752 c 1,26,27
 262 766 262 766 289 768 c 0,28,29
 323 771 323 771 546 773 c 1,30,31
 470 893 470 893 408 982 c 1,32,33
 271 1170 271 1170 224 1230 c 128,-1,34
 177 1290 177 1290 154 1323 c 2,35,-1
 116 1378 l 2,36,37
 100 1401 100 1401 100 1421 c 0,38,39
 100 1507 100 1507 200 1507 c 0,40,41
 243 1507 243 1507 310 1402 c 1,42,-1
 615 951 l 1,43,44
 674 852 674 852 689 832 c 1,45,46
 766 958 766 958 807 1020 c 2,47,-1
 1039 1369 l 2,48,49
 1058 1399 1058 1399 1076 1433 c 0,50,51
 1116 1508 1116 1508 1167 1508 c 0,52,53
 1229 1508 1229 1508 1258 1463 c 0,54,55
 1269 1447 1269 1447 1269 1423.5 c 128,-1,56
 1269 1400 1269 1400 1252 1380 c 1,57,58
 1093 1169 1093 1169 1052 1111 c 1,59,-1
 898 884 l 2,60,61
 861 828 861 828 829 774 c 1,62,-1
 998 774 l 1,63,-1
 1072 787 l 1,64,65
 1119 787 1119 787 1142 740 c 0,66,67
 1151 722 1151 722 1151 695 c 0,68,69
 1151 610 1151 610 1078 610 c 2,70,-1
 770 610 l 1,71,-1
 770 455 l 1,72,-1
 1002 455 l 1,73,-1
 1075 467 l 1,74,75
 1124 467 1124 467 1146 420 c 0,76,77
 1155 402 1155 402 1155 375 c 0,78,79
 1155 291 1155 291 1082 291 c 2,80,-1
 770 291 l 1,81,-1
 773 148 l 1,82,83
 776 122 776 122 778 107 c 128,-1,84
 780 92 780 92 781 82 c 128,-1,85
 782 72 782 72 782 66 c 2,86,-1
 782 52 l 2,87,88
 782 -7 782 -7 735 -28 c 0,89,90
 717 -36 717 -36 693 -36 c 128,-1,91
 669 -36 669 -36 652 -28.5 c 128,-1,92
 635 -21 635 -21 623 -9 c 0,93,94
 597 17 597 17 597 37.5 c 128,-1,95
 597 58 597 58 597.5 66 c 128,-1,96
 598 74 598 74 598 84 c 0,97,98
 599 100 599 100 602.5 136 c 128,-1,99
 606 172 606 172 606 211 c 2,100,-1
 606 291 l 1,101,102
 516 291 516 291 425 291 c 2,0,-1
EndSplineSet
EndChar

StartChar: brokenbar
Encoding: 166 166 123
Width: 859
GlyphClass: 2
Flags: W
LayerCount: 2
Fore
SplineSet
504 1017 m 1,0,-1
 517 943 l 1,1,2
 517 895 517 895 470 872 c 0,3,4
 452 864 452 864 416.5 864 c 128,-1,5
 381 864 381 864 355.5 883.5 c 128,-1,6
 330 903 330 903 330 937 c 0,7,8
 330 1142 330 1142 333 1291 c 1,9,-1
 333 1604 l 2,10,11
 333 1698 333 1698 386 1721 c 0,12,13
 406 1730 406 1730 444.5 1730 c 128,-1,14
 483 1730 483 1730 497 1706.5 c 128,-1,15
 511 1683 511 1683 511 1646 c 0,16,17
 511 1594 511 1594 508 1535 c 0,18,19
 503 1437 503 1437 503 1301 c 2,20,-1
 503 1116 l 2,21,22
 503 1066 503 1066 504 1017 c 1,0,-1
504 -43 m 1,23,-1
 517 -116 l 1,24,25
 517 -164 517 -164 470 -186 c 0,26,27
 452 -195 452 -195 416.5 -195 c 128,-1,28
 381 -195 381 -195 355.5 -175.5 c 128,-1,29
 330 -156 330 -156 330 -123 c 0,30,31
 330 71 330 71 333 206 c 1,32,-1
 335 561 l 2,33,34
 335 637 335 637 440 637 c 0,35,36
 501 637 501 637 508 562 c 0,37,38
 511 537 511 537 511 514 c 2,39,-1
 511 472 l 2,40,41
 511 455 511 455 510 419.5 c 128,-1,42
 509 384 509 384 508 322 c 2,43,-1
 506 198 l 2,44,45
 504 70 504 70 504 -43 c 1,23,-1
EndSplineSet
EndChar

StartChar: section
Encoding: 167 167 124
Width: 1196
GlyphClass: 2
Flags: W
LayerCount: 2
Fore
SplineSet
840 385 m 1,0,1
 968 287 968 287 968 93 c 0,2,3
 968 -38 968 -38 831 -120 c 0,4,5
 709 -193 709 -193 569 -193 c 0,6,7
 418 -193 418 -193 312 -132 c 0,8,9
 184 -57 184 -57 184 79 c 0,10,11
 184 118 184 118 206 136 c 0,12,13
 241 164 241 164 266 164 c 128,-1,14
 291 164 291 164 306.5 158.5 c 128,-1,15
 322 153 322 153 335 142 c 0,16,17
 364 119 364 119 367.5 82.5 c 128,-1,18
 371 46 371 46 391 24 c 128,-1,19
 411 2 411 2 440 -11 c 0,20,21
 520 -47 520 -47 634 -27 c 0,22,23
 722 -12 722 -12 764 41 c 0,24,25
 787 69 787 69 787 117 c 128,-1,26
 787 165 787 165 768 201.5 c 128,-1,27
 749 238 749 238 717 264 c 128,-1,28
 685 290 685 290 644 308 c 2,29,-1
 558 345 l 1,30,31
 354 425 354 425 288 472.5 c 128,-1,32
 222 520 222 520 192 568.5 c 128,-1,33
 162 617 162 617 162 674 c 128,-1,34
 162 731 162 731 176 773.5 c 128,-1,35
 190 816 190 816 214 852 c 0,36,37
 259 923 259 923 335 975 c 1,38,39
 206 1087 206 1087 206 1257 c 0,40,41
 206 1393 206 1393 338 1477 c 0,42,43
 456 1552 456 1552 611 1552 c 0,44,45
 762 1552 762 1552 868 1486 c 0,46,47
 991 1409 991 1409 991 1270 c 0,48,49
 991 1234 991 1234 968 1219 c 0,50,51
 932 1195 932 1195 900.5 1195 c 128,-1,52
 869 1195 869 1195 841.5 1212 c 128,-1,53
 814 1229 814 1229 807 1265 c 128,-1,54
 800 1301 800 1301 782 1325 c 128,-1,55
 764 1349 764 1349 738 1364 c 0,56,57
 689 1392 689 1392 633 1392 c 128,-1,58
 577 1392 577 1392 537.5 1385 c 128,-1,59
 498 1378 498 1378 466 1362 c 0,60,61
 390 1323 390 1323 390 1258 c 128,-1,62
 390 1193 390 1193 417.5 1152.5 c 128,-1,63
 445 1112 445 1112 490 1080.5 c 128,-1,64
 535 1049 535 1049 592 1024 c 2,65,-1
 706 975 l 1,66,67
 858 913 858 913 912 869 c 0,68,69
 1013 789 1013 789 1013 672 c 0,70,71
 1013 516 1013 516 840 385 c 1,0,1
483 883 m 1,72,73
 344 814 344 814 344 678 c 0,74,75
 344 600 344 600 483 544 c 0,76,77
 521 528 521 528 558 515 c 2,78,-1
 627 491 l 2,79,80
 659 480 659 480 678 470 c 1,81,82
 829 550 829 550 829 675 c 0,83,84
 829 768 829 768 552 860 c 2,85,-1
 483 883 l 1,72,73
EndSplineSet
EndChar

StartChar: dieresis
Encoding: 168 168 125
Width: 1019
GlyphClass: 2
Flags: W
LayerCount: 2
Fore
SplineSet
293.5 1449 m 128,-1,1
 266 1429 266 1429 247 1429 c 128,-1,2
 228 1429 228 1429 212.5 1435 c 128,-1,3
 197 1441 197 1441 184 1452 c 0,4,5
 156 1475 156 1475 156 1507.5 c 128,-1,6
 156 1540 156 1540 170.5 1574 c 128,-1,7
 185 1608 185 1608 207 1638 c 0,8,9
 258 1706 258 1706 305 1706 c 0,10,11
 342 1706 342 1706 363 1685 c 0,12,13
 400 1648 400 1648 400 1619 c 128,-1,14
 400 1590 400 1590 384 1558.5 c 128,-1,15
 368 1527 368 1527 344.5 1498 c 128,-1,0
 321 1469 321 1469 293.5 1449 c 128,-1,1
734.5 1440.5 m 128,-1,17
 706 1422 706 1422 687 1422 c 128,-1,18
 668 1422 668 1422 653 1428 c 128,-1,19
 638 1434 638 1434 626 1444 c 0,20,21
 598 1469 598 1469 598 1501 c 128,-1,22
 598 1533 598 1533 615.5 1566 c 128,-1,23
 633 1599 633 1599 658 1628 c 1,24,25
 718 1694 718 1694 766 1694 c 0,26,27
 800 1694 800 1694 818 1672 c 0,28,29
 850 1635 850 1635 849 1604 c 128,-1,30
 848 1573 848 1573 830.5 1543 c 128,-1,31
 813 1513 813 1513 788 1486 c 128,-1,16
 763 1459 763 1459 734.5 1440.5 c 128,-1,17
EndSplineSet
EndChar

StartChar: copyright
Encoding: 169 169 126
Width: 2222
GlyphClass: 2
Flags: W
LayerCount: 2
Fore
SplineSet
213.5 340.5 m 128,-1,1
 185 460 185 460 185 593 c 128,-1,2
 185 726 185 726 210.5 853.5 c 128,-1,3
 236 981 236 981 286.5 1092.5 c 128,-1,4
 337 1204 337 1204 412 1296.5 c 128,-1,5
 487 1389 487 1389 586 1455 c 0,6,7
 796 1594 796 1594 1080 1594 c 0,8,9
 1556 1594 1556 1594 1809 1292 c 0,10,11
 2037 1020 2037 1020 2037 603 c 0,12,13
 2037 206 2037 206 1827 -48 c 0,14,15
 1677 -230 1677 -230 1412 -301 c 0,16,17
 1278 -337 1278 -337 1121.5 -337 c 128,-1,18
 965 -337 965 -337 840 -304.5 c 128,-1,19
 715 -272 715 -272 612.5 -212.5 c 128,-1,20
 510 -153 510 -153 430.5 -69 c 128,-1,21
 351 15 351 15 296.5 118 c 128,-1,0
 242 221 242 221 213.5 340.5 c 128,-1,1
363 591 m 0,22,23
 363 414 363 414 414 271.5 c 128,-1,24
 465 129 465 129 565 28 c 0,25,26
 775 -186 775 -186 1158 -186 c 0,27,28
 1476 -186 1476 -186 1668 32 c 0,29,30
 1857 247 1857 247 1857 596 c 0,31,32
 1857 954 1857 954 1668 1188 c 0,33,34
 1466 1438 1466 1438 1107 1438 c 128,-1,35
 748 1438 748 1438 549 1194 c 1,36,37
 363 964 363 964 363 591 c 0,22,23
1535 880 m 0,38,39
 1535 759 1535 759 1443 759 c 0,40,41
 1380 759 1380 759 1353 812 c 1,42,43
 1313 895 1313 895 1188 926 c 0,44,45
 1150 936 1150 936 1091 936 c 128,-1,46
 1032 936 1032 936 974.5 908 c 128,-1,47
 917 880 917 880 880 834 c 0,48,49
 808 744 808 744 808 605 c 0,50,51
 808 471 808 471 904 385 c 0,52,53
 993 305 993 305 1120 305 c 0,54,55
 1263 305 1263 305 1363 413 c 0,56,57
 1394 446 1394 446 1436 446 c 128,-1,58
 1478 446 1478 446 1501 421.5 c 128,-1,59
 1524 397 1524 397 1524 359 c 0,60,61
 1524 347 1524 347 1517 329.5 c 128,-1,62
 1510 312 1510 312 1506 308 c 0,63,64
 1426 222 1426 222 1336 183.5 c 128,-1,65
 1246 145 1246 145 1134 145 c 128,-1,66
 1022 145 1022 145 930 179 c 128,-1,67
 838 213 838 213 770 273 c 0,68,69
 624 402 624 402 624 597 c 0,70,71
 624 822 624 822 761 959 c 0,72,73
 896 1094 896 1094 1116 1094 c 0,74,75
 1284 1094 1284 1094 1389 1001 c 1,76,77
 1406 1027 1406 1027 1449.5 1027 c 128,-1,78
 1493 1027 1493 1027 1514 994 c 128,-1,79
 1535 961 1535 961 1535 880 c 0,38,39
1378 984 m 1,80,81
 1376 984 1376 984 1376 983.5 c 128,-1,82
 1376 983 1376 983 1376.5 983 c 128,-1,83
 1377 983 1377 983 1378 984 c 1,80,81
EndSplineSet
EndChar

StartChar: ordfeminine
Encoding: 170 170 127
Width: 1370
GlyphClass: 2
Flags: W
LayerCount: 2
Fore
SplineSet
854 833 m 1,0,1
 735 710 735 710 565 710 c 0,2,3
 394 710 394 710 275 815 c 0,4,5
 147 928 147 928 147 1110 c 0,6,7
 147 1305 147 1305 276 1422 c 1,8,9
 395 1532 395 1532 578 1532 c 128,-1,10
 761 1532 761 1532 860 1430 c 1,11,12
 859 1437 859 1437 859 1445 c 2,13,14
 859 1445 859 1445 859 1457 c 0,15,16
 859 1495 859 1495 884.5 1514 c 128,-1,17
 910 1533 910 1533 937.5 1533 c 128,-1,18
 965 1533 965 1533 980.5 1526.5 c 128,-1,19
 996 1520 996 1520 1004 1508 c 0,20,21
 1018 1487 1018 1487 1018 1438 c 2,22,-1
 1013 1077 l 2,23,24
 1013 1040 1013 1040 1014 992 c 0,25,26
 1017 914 1017 914 1017 854 c 1,27,28
 1046 860 1046 860 1069 874 c 0,29,30
 1108 898 1108 898 1135.5 898 c 128,-1,31
 1163 898 1163 898 1182.5 877.5 c 128,-1,32
 1202 857 1202 857 1202 829 c 128,-1,33
 1202 801 1202 801 1194.5 787.5 c 128,-1,34
 1187 774 1187 774 1173.5 765 c 128,-1,35
 1160 756 1160 756 1142 750 c 128,-1,36
 1124 744 1124 744 1104 736 c 2,37,-1
 1064 718 l 1,38,39
 988 687 988 687 962.5 687 c 128,-1,40
 937 687 937 687 916.5 694 c 128,-1,41
 896 701 896 701 880 714 c 0,42,43
 844 745 844 745 850 791 c 1,44,-1
 854 833 l 1,0,1
571 1383 m 0,45,46
 311 1383 311 1383 311 1110 c 0,47,48
 311 990 311 990 390 920 c 0,49,50
 462 856 462 856 562 856 c 0,51,52
 683 856 683 856 772 930 c 1,53,54
 864 1005 864 1005 868 1116 c 1,55,-1
 865 1142 l 1,56,57
 865 1288 865 1288 860 1430 c 1,58,59
 960 1325 960 1325 969 1117 c 1,60,-1
 969 1116 l 1,61,62
 967 950 967 950 854 833 c 1,63,64
 865 946 865 946 865 1142 c 1,65,66
 843 1307 843 1307 685 1364 c 0,67,68
 634 1383 634 1383 571 1383 c 0,45,46
EndSplineSet
EndChar

StartChar: guillemotleft
Encoding: 171 171 128
Width: 2046
GlyphClass: 2
Flags: W
LayerCount: 2
Fore
SplineSet
324 521 m 1,0,1
 288 531 288 531 288 617 c 0,2,3
 288 657 288 657 307 673 c 128,-1,4
 326 689 326 689 364 699 c 1,5,-1
 899 965 l 1,6,7
 938 1004 938 1004 985 1004 c 0,8,9
 1012 1004 1012 1004 1031 980 c 0,10,11
 1062 940 1062 940 1062 912.5 c 128,-1,12
 1062 885 1062 885 1056 872 c 128,-1,13
 1050 859 1050 859 1040 850 c 128,-1,14
 1030 841 1030 841 1017 835 c 2,15,-1
 989 823 l 1,16,17
 883 780 883 780 790 730 c 2,18,-1
 536 593 l 1,19,-1
 872 404 l 2,20,21
 929 372 929 372 976 349 c 1,22,23
 1022 349 1022 349 1051 308 c 0,24,25
 1063 292 1063 292 1063 271.5 c 128,-1,26
 1063 251 1063 251 1058 234 c 128,-1,27
 1053 217 1053 217 1043 204 c 0,28,29
 1021 172 1021 172 984 172 c 0,30,31
 951 172 951 172 929 185 c 2,32,-1
 893 206 l 2,33,34
 878 215 878 215 859.5 222.5 c 128,-1,35
 841 230 841 230 803 252 c 0,36,37
 381 494 381 494 322 521 c 1,38,-1
 324 521 l 1,0,1
1075 521 m 1,39,40
 1039 531 1039 531 1039 617 c 0,41,42
 1039 657 1039 657 1058 673 c 128,-1,43
 1077 689 1077 689 1115 699 c 1,44,-1
 1650 965 l 1,45,46
 1689 1004 1689 1004 1736 1004 c 0,47,48
 1763 1004 1763 1004 1782 980 c 0,49,50
 1813 940 1813 940 1813 912.5 c 128,-1,51
 1813 885 1813 885 1807 872 c 128,-1,52
 1801 859 1801 859 1791 850 c 128,-1,53
 1781 841 1781 841 1768 835 c 2,54,-1
 1740 823 l 1,55,56
 1634 780 1634 780 1541 730 c 2,57,-1
 1287 593 l 1,58,-1
 1623 404 l 2,59,60
 1680 372 1680 372 1727 349 c 1,61,62
 1773 349 1773 349 1802 308 c 0,63,64
 1814 292 1814 292 1814 271.5 c 128,-1,65
 1814 251 1814 251 1809 234 c 128,-1,66
 1804 217 1804 217 1794 204 c 0,67,68
 1772 172 1772 172 1735 172 c 0,69,70
 1702 172 1702 172 1680 185 c 2,71,-1
 1644 206 l 2,72,73
 1629 215 1629 215 1610.5 222.5 c 128,-1,74
 1592 230 1592 230 1554 252 c 0,75,76
 1132 494 1132 494 1073 521 c 1,77,-1
 1075 521 l 1,39,40
EndSplineSet
EndChar

StartChar: logicalnot
Encoding: 172 172 129
Width: 1562
GlyphClass: 2
Flags: W
LayerCount: 2
Fore
SplineSet
312 628 m 1,0,1
 270 625 270 625 251 625 c 0,2,3
 180 625 180 625 180 711.5 c 128,-1,4
 180 798 180 798 261 798 c 1,5,-1
 333 794 l 1,6,-1
 1164 796 l 1,7,8
 1206 801 1206 801 1243 801 c 128,-1,9
 1280 801 1280 801 1307 781.5 c 128,-1,10
 1334 762 1334 762 1339 724 c 1,11,12
 1333 577 1333 577 1333 491 c 2,13,-1
 1333 381 l 1,14,-1
 1342 220 l 1,15,16
 1342 184 1342 184 1312 164.5 c 128,-1,17
 1282 145 1282 145 1244 145 c 128,-1,18
 1206 145 1206 145 1187 153.5 c 128,-1,19
 1168 162 1168 162 1158 174 c 0,20,21
 1139 197 1139 197 1139 224 c 1,22,-1
 1149 398 l 1,23,-1
 1149 627 l 1,24,-1
 312 628 l 1,0,1
EndSplineSet
EndChar

StartChar: registered
Encoding: 174 174 131
Width: 2222
GlyphClass: 2
Flags: W
LayerCount: 2
Fore
SplineSet
213.5 340.5 m 128,-1,1
 185 460 185 460 185 593 c 128,-1,2
 185 726 185 726 210.5 853.5 c 128,-1,3
 236 981 236 981 286.5 1092.5 c 128,-1,4
 337 1204 337 1204 412 1296.5 c 128,-1,5
 487 1389 487 1389 586 1455 c 0,6,7
 796 1594 796 1594 1080 1594 c 0,8,9
 1556 1594 1556 1594 1809 1292 c 0,10,11
 2037 1020 2037 1020 2037 603 c 0,12,13
 2037 206 2037 206 1827 -48 c 0,14,15
 1677 -230 1677 -230 1412 -301 c 0,16,17
 1278 -337 1278 -337 1121.5 -337 c 128,-1,18
 965 -337 965 -337 840 -304.5 c 128,-1,19
 715 -272 715 -272 612.5 -212.5 c 128,-1,20
 510 -153 510 -153 430.5 -69 c 128,-1,21
 351 15 351 15 296.5 118 c 128,-1,0
 242 221 242 221 213.5 340.5 c 128,-1,1
363 591 m 0,22,23
 363 414 363 414 414 271.5 c 128,-1,24
 465 129 465 129 565 28 c 0,25,26
 775 -186 775 -186 1158 -186 c 0,27,28
 1476 -186 1476 -186 1668 32 c 0,29,30
 1857 247 1857 247 1857 596 c 0,31,32
 1857 954 1857 954 1668 1188 c 0,33,34
 1466 1438 1466 1438 1107 1438 c 128,-1,35
 748 1438 748 1438 549 1194 c 1,36,37
 363 964 363 964 363 591 c 0,22,23
726 231 m 1,38,-1
 721 1053 l 1,39,40
 726 1097 726 1097 748 1113.5 c 128,-1,41
 770 1130 770 1130 809 1135 c 1,42,-1
 890 1140 l 1,43,44
 1010 1146 1010 1146 1078 1146 c 0,45,46
 1257 1146 1257 1146 1360 1086 c 1,47,48
 1523 984 1523 984 1523 788 c 0,49,50
 1523 689 1523 689 1456 598 c 0,51,52
 1352 456 1352 456 1160 434 c 1,53,-1
 1212 374 l 2,54,55
 1260 320 1260 320 1297 308 c 128,-1,56
 1334 296 1334 296 1368.5 296 c 128,-1,57
 1403 296 1403 296 1422.5 303 c 128,-1,58
 1442 310 1442 310 1456 318 c 2,59,-1
 1484 333 l 2,60,61
 1497 340 1497 340 1524.5 340 c 128,-1,62
 1552 340 1552 340 1578.5 320 c 128,-1,63
 1605 300 1605 300 1605 266.5 c 128,-1,64
 1605 233 1605 233 1579.5 208.5 c 128,-1,65
 1554 184 1554 184 1517 168 c 0,66,67
 1444 135 1444 135 1374 135 c 0,68,69
 1241 135 1241 135 1141 204 c 0,70,71
 1109 226 1109 226 1084 256 c 2,72,-1
 1032 318 l 2,73,74
 967 394 967 394 909 414 c 1,75,-1
 909 234 l 1,76,77
 903 197 903 197 874.5 178 c 128,-1,78
 846 159 846 159 817.5 159 c 128,-1,79
 789 159 789 159 763 177 c 128,-1,80
 737 195 737 195 726 231 c 1,38,-1
1116 985 m 1,81,-1
 1040 983 l 1,82,-1
 905 980 l 1,83,84
 906 930 906 930 906 882 c 1,85,-1
 908 787 l 2,86,87
 908 740 908 740 908 692 c 2,88,-1
 908 593 l 1,89,-1
 1077 590 l 2,90,91
 1130 590 1130 590 1177.5 600 c 128,-1,92
 1225 610 1225 610 1264 643 c 0,93,94
 1340 706 1340 706 1340 804 c 0,95,96
 1340 891 1340 891 1279 941 c 0,97,98
 1228 982 1228 982 1116 985 c 1,81,-1
EndSplineSet
EndChar

StartChar: macron
Encoding: 175 175 132
Width: 1024
GlyphClass: 2
Flags: W
LayerCount: 2
Fore
SplineSet
436 1501 m 1,0,-1
 222 1491 l 1,1,2
 147 1491 147 1491 122 1540 c 0,3,4
 112 1558 112 1558 112 1588 c 128,-1,5
 112 1618 112 1618 143 1639.5 c 128,-1,6
 174 1661 174 1661 228 1661 c 1,7,-1
 508 1653 l 1,8,9
 611 1653 611 1653 687.5 1662 c 128,-1,10
 764 1671 764 1671 785 1671 c 128,-1,11
 806 1671 806 1671 824 1668.5 c 128,-1,12
 842 1666 842 1666 856 1656 c 0,13,14
 886 1636 886 1636 886 1596 c 128,-1,15
 886 1556 886 1556 875 1538.5 c 128,-1,16
 864 1521 864 1521 848 1510 c 0,17,18
 820 1491 820 1491 790 1491 c 2,19,-1
 436 1501 l 1,0,-1
EndSplineSet
EndChar

StartChar: degree
Encoding: 176 176 133
Width: 862
GlyphClass: 2
Flags: W
LayerCount: 2
Fore
SplineSet
460 1553 m 1,0,1
 476 1558 476 1558 488 1561 c 1,2,3
 601 1543 601 1543 672 1449 c 0,4,5
 740 1360 740 1360 740 1249 c 0,6,7
 740 1044 740 1044 576 972 c 0,8,9
 521 947 521 947 448 947 c 0,10,11
 283 947 283 947 195 1040 c 0,12,13
 121 1118 121 1118 121 1257 c 0,14,15
 121 1387 121 1387 203 1475 c 0,16,17
 288 1566 288 1566 417 1566 c 1,18,19
 445 1562 445 1562 460 1553 c 1,0,1
588 1246.5 m 128,-1,21
 588 1306 588 1306 558.5 1351.5 c 128,-1,22
 529 1397 529 1397 481 1417 c 1,23,24
 459 1419 459 1419 440 1431 c 1,25,-1
 419 1426 l 2,26,27
 409 1423 409 1423 390.5 1419.5 c 128,-1,28
 372 1416 372 1416 348.5 1401 c 128,-1,29
 325 1386 325 1386 308 1364 c 0,30,31
 274 1320 274 1320 274 1249 c 128,-1,32
 274 1178 274 1178 315 1132 c 128,-1,33
 356 1086 356 1086 434 1086 c 128,-1,34
 512 1086 512 1086 550 1136.5 c 128,-1,20
 588 1187 588 1187 588 1246.5 c 128,-1,21
EndSplineSet
EndChar

StartChar: plusminus
Encoding: 177 177 134
Width: 1196
GlyphClass: 2
Flags: W
LayerCount: 2
Fore
SplineSet
673 436 m 1,0,-1
 686 362 l 1,1,2
 686 314 686 314 639 292 c 0,3,4
 621 283 621 283 585.5 283 c 128,-1,5
 550 283 550 283 524.5 302.5 c 128,-1,6
 499 322 499 322 499 355 c 0,7,8
 499 497 499 497 501 647 c 1,9,-1
 204 650 l 2,10,11
 129 650 129 650 129 754 c 0,12,13
 129 812 129 812 199 818 c 0,14,15
 221 820 221 820 248 820 c 2,16,-1
 327 819 l 1,17,-1
 503 819 l 1,18,-1
 506 1125 l 2,19,20
 506 1200 506 1200 610 1200 c 0,21,22
 668 1200 668 1200 674 1128 c 0,23,24
 676 1106 676 1106 676 1078 c 2,25,-1
 675 1002 l 1,26,-1
 675 920 l 2,27,28
 675 872 675 872 674 818 c 1,29,-1
 894 818 l 1,30,-1
 967 830 l 1,31,32
 1016 830 1016 830 1038 783 c 0,33,34
 1047 765 1047 765 1047 729.5 c 128,-1,35
 1047 694 1047 694 1027 668.5 c 128,-1,36
 1007 643 1007 643 974 643 c 0,37,38
 825 643 825 643 673 645 c 1,39,-1
 673 436 l 1,0,-1
254 0 m 2,40,41
 179 0 179 0 179 104 c 0,42,43
 179 163 179 163 252 169 c 0,44,45
 274 171 274 171 302 171 c 2,46,-1
 377 170 l 1,47,-1
 844 168 l 1,48,-1
 917 180 l 1,49,50
 966 180 966 180 988 133 c 0,51,52
 997 115 997 115 997 79.5 c 128,-1,53
 997 44 997 44 977 19 c 128,-1,54
 957 -6 957 -6 928 -6 c 2,55,-1
 870 -6 l 1,56,-1
 254 0 l 2,40,41
EndSplineSet
EndChar

StartChar: uni00B2
Encoding: 178 178 135
Width: 1198
GlyphClass: 2
Flags: W
LayerCount: 2
Fore
SplineSet
878 927 m 1,0,-1
 934 931 l 1,1,2
 964 931 964 931 985.5 910.5 c 128,-1,3
 1007 890 1007 890 1007 857.5 c 128,-1,4
 1007 825 1007 825 999 809.5 c 128,-1,5
 991 794 991 794 978 785 c 0,6,7
 956 769 956 769 924 769 c 2,8,-1
 276 771 l 2,9,10
 237 771 237 771 213 792.5 c 128,-1,11
 189 814 189 814 189 836 c 0,12,13
 189 866 189 866 220 910 c 1,14,-1
 336 985 l 1,15,16
 753 1258 753 1258 753 1478 c 0,17,18
 753 1555 753 1555 694 1604 c 0,19,20
 642 1648 642 1648 584.5 1648 c 128,-1,21
 527 1648 527 1648 490.5 1637 c 128,-1,22
 454 1626 454 1626 426 1606 c 0,23,24
 363 1562 363 1562 363 1491 c 0,25,26
 363 1470 363 1470 374 1450 c 0,27,28
 393 1414 393 1414 393 1389 c 0,29,30
 393 1339 393 1339 338 1321 c 0,31,32
 323 1316 323 1316 297 1316 c 128,-1,33
 271 1316 271 1316 246.5 1336 c 128,-1,34
 222 1356 222 1356 208 1384 c 0,35,36
 184 1431 184 1431 184 1473 c 128,-1,37
 184 1515 184 1515 191.5 1540.5 c 128,-1,38
 199 1566 199 1566 212 1590 c 0,39,40
 263 1691 263 1691 335 1736 c 0,41,42
 443 1803 443 1803 569 1803 c 0,43,44
 725 1803 725 1803 826 1718 c 0,45,46
 933 1627 933 1627 933 1476 c 0,47,48
 933 1218 933 1218 533 927 c 1,49,-1
 878 927 l 1,0,-1
EndSplineSet
EndChar

StartChar: uni00B3
Encoding: 179 179 136
Width: 1198
GlyphClass: 2
Flags: W
LayerCount: 2
Fore
SplineSet
736 783.5 m 128,-1,1
 658 763 658 763 582.5 763 c 128,-1,2
 507 763 507 763 431 788 c 128,-1,3
 355 813 355 813 293 860 c 0,4,5
 152 965 152 965 152 1125 c 0,6,7
 152 1239 152 1239 210 1289 c 0,8,9
 230 1307 230 1307 250.5 1307 c 128,-1,10
 271 1307 271 1307 286 1303.5 c 128,-1,11
 301 1300 301 1300 315 1291 c 0,12,13
 349 1269 349 1269 349 1224 c 0,14,15
 349 1207 349 1207 340 1187 c 0,16,17
 325 1151 325 1151 325 1112 c 128,-1,18
 325 1073 325 1073 349 1035 c 128,-1,19
 373 997 373 997 410 970 c 0,20,21
 485 917 485 917 580 917 c 0,22,23
 677 917 677 917 731.5 949 c 128,-1,24
 786 981 786 981 810 1016.5 c 128,-1,25
 834 1052 834 1052 834 1103 c 128,-1,26
 834 1154 834 1154 817.5 1191.5 c 128,-1,27
 801 1229 801 1229 774 1252 c 0,28,29
 721 1297 721 1297 646 1297 c 0,30,31
 612 1297 612 1297 598 1294 c 0,32,33
 572 1287 572 1287 541.5 1287 c 128,-1,34
 511 1287 511 1287 487 1309.5 c 128,-1,35
 463 1332 463 1332 463 1356 c 0,36,37
 463 1405 463 1405 495 1437 c 2,38,-1
 695 1639 l 1,39,-1
 304 1639 l 2,40,41
 262 1639 262 1639 240 1663.5 c 128,-1,42
 218 1688 218 1688 218 1717 c 128,-1,43
 218 1746 218 1746 237 1768.5 c 128,-1,44
 256 1791 256 1791 298 1791 c 2,45,-1
 864 1791 l 2,46,47
 902 1791 902 1791 924 1768 c 128,-1,48
 946 1745 946 1745 946 1718.5 c 128,-1,49
 946 1692 946 1692 926.5 1662.5 c 128,-1,50
 907 1633 907 1633 874.5 1596 c 128,-1,51
 842 1559 842 1559 800 1516 c 2,52,-1
 711 1427 l 1,53,54
 856 1386 856 1386 912 1338.5 c 128,-1,55
 968 1291 968 1291 993.5 1238 c 128,-1,56
 1019 1185 1019 1185 1019 1102.5 c 128,-1,57
 1019 1020 1019 1020 979.5 954.5 c 128,-1,58
 940 889 940 889 877 846.5 c 128,-1,0
 814 804 814 804 736 783.5 c 128,-1,1
EndSplineSet
EndChar

StartChar: acute
Encoding: 180 180 137
Width: 682
GlyphClass: 2
Flags: W
LayerCount: 2
Fore
SplineSet
273 1546 m 1,0,-1
 207 1483 l 2,1,2
 169 1447 169 1447 138 1447 c 128,-1,3
 107 1447 107 1447 92.5 1454 c 128,-1,4
 78 1461 78 1461 66 1472 c 0,5,6
 42 1495 42 1495 42 1523 c 0,7,8
 42 1572 42 1572 78 1604 c 2,9,-1
 146 1664 l 1,10,11
 222 1729 222 1729 266 1777 c 128,-1,12
 310 1825 310 1825 330 1844 c 0,13,14
 367 1879 367 1879 409.5 1879 c 128,-1,15
 452 1879 452 1879 481 1854 c 128,-1,16
 510 1829 510 1829 510 1783 c 0,17,18
 510 1734 510 1734 442 1700 c 1,19,-1
 273 1546 l 1,0,-1
EndSplineSet
EndChar

StartChar: uni00B5
Encoding: 181 181 138
AltUni2: 0003bc.ffffffff.0
Width: 1538
GlyphClass: 2
Flags: W
LayerCount: 2
Fore
SplineSet
220 -372 m 2,0,-1
 225 77 l 1,1,-1
 225 144 l 2,2,3
 225 178 225 178 224 213 c 2,4,-1
 219 519 l 1,5,6
 219 717 219 717 284 890 c 0,7,8
 306 951 306 951 338 1000 c 1,9,10
 251 974 251 974 242 974 c 0,11,12
 164 974 164 974 164 1061 c 0,13,14
 164 1095 164 1095 183.5 1111.5 c 128,-1,15
 203 1128 203 1128 238.5 1138.5 c 128,-1,16
 274 1149 274 1149 323.5 1159.5 c 128,-1,17
 373 1170 373 1170 406 1184 c 0,18,19
 457 1204 457 1204 494.5 1204 c 128,-1,20
 532 1204 532 1204 555 1178.5 c 128,-1,21
 578 1153 578 1153 578 1123 c 0,22,23
 578 1065 578 1065 537.5 1021 c 128,-1,24
 497 977 497 977 470.5 918.5 c 128,-1,25
 444 860 444 860 426 792 c 0,26,27
 390 658 390 658 390 545 c 128,-1,28
 390 432 390 432 403 362.5 c 128,-1,29
 416 293 416 293 452 244 c 0,30,31
 526 145 526 145 717 145 c 0,32,33
 949 145 949 145 1096 341 c 1,34,35
 1101 574 1101 574 1101 663 c 0,36,37
 1101 848 1101 848 1094 1011 c 1,38,39
 1076 1005 1076 1005 1056 1000 c 2,40,-1
 1018 990 l 2,41,42
 980 981 980 981 955 981 c 128,-1,43
 930 981 930 981 904.5 1007 c 128,-1,44
 879 1033 879 1033 879 1070.5 c 128,-1,45
 879 1108 879 1108 892.5 1124 c 128,-1,46
 906 1140 906 1140 930.5 1150 c 128,-1,47
 955 1160 955 1160 990 1166 c 2,48,-1
 1137 1195 l 2,49,50
 1150 1197 1150 1197 1162.5 1200.5 c 128,-1,51
 1175 1204 1175 1204 1196.5 1204 c 128,-1,52
 1218 1204 1218 1204 1232 1197 c 128,-1,53
 1246 1190 1246 1190 1253 1176 c 0,54,55
 1262 1159 1262 1159 1262 1095 c 2,56,-1
 1269 186 l 1,57,-1
 1276 69 l 1,58,59
 1276 24 1276 24 1262 12 c 0,60,61
 1236 -10 1236 -10 1189.5 -11 c 128,-1,62
 1143 -12 1143 -12 1127 -4 c 128,-1,63
 1111 4 1111 4 1101 16 c 0,64,65
 1082 37 1082 37 1082 67 c 0,66,67
 1082 79 1082 79 1085 93 c 128,-1,68
 1088 107 1088 107 1090 132 c 1,69,70
 988 30 988 30 806 -4 c 0,71,72
 755 -14 755 -14 704 -14 c 128,-1,73
 653 -14 653 -14 608 -7.5 c 128,-1,74
 563 -1 563 -1 526 12 c 0,75,76
 466 32 466 32 391 89 c 1,77,-1
 391 25 l 1,78,-1
 390 -195 l 2,79,80
 390 -286 390 -286 398.5 -320 c 128,-1,81
 407 -354 407 -354 407 -365 c 0,82,83
 407 -413 407 -413 360 -436 c 0,84,85
 342 -444 342 -444 306.5 -444 c 128,-1,86
 271 -444 271 -444 245.5 -424.5 c 128,-1,87
 220 -405 220 -405 220 -372 c 2,0,-1
EndSplineSet
EndChar

StartChar: paragraph
Encoding: 182 182 139
Width: 1540
GlyphClass: 2
Flags: W
LayerCount: 2
Fore
SplineSet
1350 1372 m 1,0,-1
 1349 1289 l 1,1,-1
 1349 1180 l 2,2,3
 1349 1116 1349 1116 1348 1042 c 2,4,-1
 1346 576 l 2,5,6
 1345 501 1345 501 1344.5 438.5 c 128,-1,7
 1344 376 1344 376 1344 329 c 2,8,-1
 1344 258 l 1,9,10
 1345 232 1345 232 1348 208 c 2,11,-1
 1352 160 l 1,12,13
 1359 93 1359 93 1359 58.5 c 128,-1,14
 1359 24 1359 24 1350 8.5 c 128,-1,15
 1341 -7 1341 -7 1326 -17 c 0,16,17
 1298 -37 1298 -37 1262.5 -37 c 128,-1,18
 1227 -37 1227 -37 1200 -17.5 c 128,-1,19
 1173 2 1173 2 1173 40 c 2,20,-1
 1179 280 l 1,21,-1
 1180 468 l 1,22,-1
 1182 748 l 1,23,-1
 1183 1041 l 1,24,-1
 1183 1182 l 2,25,26
 1183 1246 1183 1246 1182 1281 c 128,-1,27
 1181 1316 1181 1316 1179.5 1340 c 128,-1,28
 1178 1364 1178 1364 1176 1388 c 0,29,30
 1173 1444 1173 1444 1173 1491 c 0,31,32
 1173 1575 1173 1575 1261 1575 c 0,33,34
 1321 1575 1321 1575 1343 1536 c 0,35,36
 1351 1521 1351 1521 1351 1500 c 2,37,-1
 1350 1372 l 1,0,-1
1006 1096 m 1,38,-1
 1010 270 l 2,39,40
 1011 204 1011 204 1015.5 156 c 128,-1,41
 1020 108 1020 108 1020 82.5 c 128,-1,42
 1020 57 1020 57 1019 38.5 c 128,-1,43
 1018 20 1018 20 1009.5 5 c 128,-1,44
 1001 -10 1001 -10 988 -20 c 0,45,46
 964 -40 964 -40 927 -40 c 0,47,48
 895 -40 895 -40 873 -18 c 0,49,50
 835 20 835 20 835 54 c 128,-1,51
 835 88 835 88 836.5 109 c 128,-1,52
 838 130 838 130 840 153 c 0,53,54
 846 204 846 204 846 279 c 2,55,-1
 846 503 l 1,56,57
 832 501 832 501 818 501 c 2,58,-1
 791 501 l 2,59,60
 550 501 550 501 372 624 c 0,61,62
 160 770 160 770 160 1038 c 0,63,64
 160 1284 160 1284 326 1425 c 0,65,66
 486 1562 486 1562 752 1562 c 0,67,68
 833 1562 833 1562 881 1558 c 1,69,70
 900 1565 900 1565 917.5 1565 c 128,-1,71
 935 1565 935 1565 953 1561.5 c 128,-1,72
 971 1558 971 1558 986 1549 c 0,73,74
 1018 1529 1018 1529 1015 1483 c 0,75,76
 1007 1358 1007 1358 1006.5 1304.5 c 128,-1,77
 1006 1251 1006 1251 1006 1200 c 2,78,-1
 1006 1096 l 1,38,-1
642 682 m 128,-1,80
 726 660 726 660 773 660 c 2,81,-1
 828 660 l 2,82,83
 837 660 837 660 846 662 c 1,84,-1
 846 1286 l 2,85,86
 846 1357 846 1357 844 1395 c 1,87,88
 792 1401 792 1401 710 1401 c 128,-1,89
 628 1401 628 1401 556 1372 c 128,-1,90
 484 1343 484 1343 438 1294 c 0,91,92
 347 1199 347 1199 347 1044 c 0,93,94
 347 854 347 854 492 750 c 1,95,79
 558 704 558 704 642 682 c 128,-1,80
EndSplineSet
EndChar

StartChar: periodcentered
Encoding: 183 183 140
Width: 853
GlyphClass: 2
Flags: W
LayerCount: 2
Fore
SplineSet
484 476 m 0,0,1
 461 459 461 459 429 459 c 128,-1,2
 397 459 397 459 375 473 c 128,-1,3
 353 487 353 487 338 507 c 0,4,5
 308 547 308 547 308 602.5 c 128,-1,6
 308 658 308 658 338 700.5 c 128,-1,7
 368 743 368 743 433 743 c 0,8,9
 473 743 473 743 499 718 c 0,10,11
 545 674 545 674 545 615 c 0,12,13
 545 523 545 523 484 476 c 0,0,1
EndSplineSet
EndChar

StartChar: cedilla
Encoding: 184 184 141
Width: 1229
GlyphClass: 2
Flags: W
LayerCount: 2
Fore
SplineSet
550 91 m 0,0,1
 614 91 614 91 614 37 c 0,2,3
 614 24 614 24 611 5 c 128,-1,4
 608 -14 608 -14 616.5 -29 c 128,-1,5
 625 -44 625 -44 642 -53.5 c 128,-1,6
 659 -63 659 -63 689.5 -83 c 128,-1,7
 720 -103 720 -103 746 -130 c 0,8,9
 809 -194 809 -194 809 -269 c 2,10,-1
 809 -284 l 2,11,12
 809 -346 809 -346 774.5 -402.5 c 128,-1,13
 740 -459 740 -459 699 -487 c 0,14,15
 621 -540 621 -540 497 -540 c 0,16,17
 412 -540 412 -540 370 -514 c 0,18,19
 302 -473 302 -473 302 -428 c 0,20,21
 302 -360 302 -360 359 -352 c 0,22,23
 373 -350 373 -350 389 -350 c 256,24,25
 405 -350 405 -350 418 -356 c 2,26,-1
 444 -367 l 2,27,28
 483 -384 483 -384 512.5 -384 c 128,-1,29
 542 -384 542 -384 562.5 -380.5 c 128,-1,30
 583 -377 583 -377 598 -368 c 0,31,32
 624 -353 624 -353 629.5 -319 c 128,-1,33
 635 -285 635 -285 628 -269 c 128,-1,34
 621 -253 621 -253 606 -238.5 c 128,-1,35
 591 -224 591 -224 568 -209 c 2,36,-1
 518 -175 l 2,37,38
 449 -127 449 -127 449 -50 c 0,39,40
 449 38 449 38 479 64.5 c 128,-1,41
 509 91 509 91 550 91 c 0,0,1
EndSplineSet
EndChar

StartChar: uni00B9
Encoding: 185 185 142
Width: 1031
GlyphClass: 2
Flags: W
LayerCount: 2
Fore
SplineSet
669 1720 m 1,0,1
 665 1596 665 1596 665 1437 c 128,-1,2
 665 1278 665 1278 666 1138 c 2,3,-1
 668 862 l 2,4,5
 668 805 668 805 650.5 774.5 c 128,-1,6
 633 744 633 744 580 744 c 0,7,8
 477 744 477 744 477 833 c 0,9,10
 477 867 477 867 480 1018 c 128,-1,11
 483 1169 483 1169 484 1254 c 0,12,13
 486 1422 486 1422 486 1581 c 1,14,15
 441 1562 441 1562 410 1544 c 2,16,-1
 354 1511 l 2,17,18
 301 1479 301 1479 277.5 1479 c 128,-1,19
 254 1479 254 1479 237.5 1487.5 c 128,-1,20
 221 1496 221 1496 210 1510 c 0,21,22
 190 1536 190 1536 190 1566 c 128,-1,23
 190 1596 190 1596 201 1613 c 128,-1,24
 212 1630 212 1630 228 1642 c 0,25,26
 252 1659 252 1659 284 1669.5 c 128,-1,27
 316 1680 316 1680 341 1690 c 2,28,-1
 443 1731 l 2,29,30
 467 1741 467 1741 480 1746 c 1,31,-1
 480 1745 l 1,32,33
 529 1782 529 1782 586 1785 c 1,34,35
 666 1785 666 1785 669 1720 c 1,0,1
EndSplineSet
EndChar

StartChar: ordmasculine
Encoding: 186 186 143
Width: 1243
GlyphClass: 2
Flags: W
LayerCount: 2
Fore
SplineSet
589 1534 m 0,0,1
 627 1534 627 1534 647 1512 c 1,2,3
 663 1530 663 1530 720.5 1521.5 c 128,-1,4
 778 1513 778 1513 839.5 1475.5 c 128,-1,5
 901 1438 901 1438 943 1384 c 0,6,7
 1029 1272 1029 1272 1029 1126 c 0,8,9
 1029 957 1029 957 934 842 c 0,10,11
 826 712 826 712 633 712 c 0,12,13
 434 712 434 712 312 819 c 0,14,15
 186 929 186 929 186 1118 c 0,16,17
 186 1279 186 1279 300 1404 c 0,18,19
 419 1534 419 1534 589 1534 c 0,0,1
510 881 m 128,-1,21
 559 864 559 864 623.5 864 c 128,-1,22
 688 864 688 864 734.5 887.5 c 128,-1,23
 781 911 781 911 810 948 c 1,24,25
 863 1019 863 1019 863 1124 c 0,26,27
 863 1259 863 1259 768 1336 c 0,28,29
 737 1361 737 1361 694 1375 c 1,30,31
 657 1375 657 1375 634 1395 c 1,32,33
 607 1385 607 1385 565 1379.5 c 128,-1,34
 523 1374 523 1374 482 1349.5 c 128,-1,35
 441 1325 441 1325 412 1290 c 1,36,37
 353 1215 353 1215 353 1136.5 c 128,-1,38
 353 1058 353 1058 372 1010.5 c 128,-1,39
 391 963 391 963 426 930.5 c 128,-1,20
 461 898 461 898 510 881 c 128,-1,21
EndSplineSet
EndChar

StartChar: guillemotright
Encoding: 187 187 144
Width: 2046
GlyphClass: 2
Flags: W
LayerCount: 2
Fore
SplineSet
1013 521 m 1,0,1
 1049 531 1049 531 1049 617 c 0,2,3
 1049 657 1049 657 1030 673 c 128,-1,4
 1011 689 1011 689 973 699 c 1,5,-1
 438 965 l 1,6,7
 399 1004 399 1004 352 1004 c 0,8,9
 325 1004 325 1004 306 980 c 0,10,11
 275 940 275 940 275 912.5 c 128,-1,12
 275 885 275 885 281 872 c 128,-1,13
 287 859 287 859 297 850 c 128,-1,14
 307 841 307 841 320 835 c 2,15,-1
 348 823 l 1,16,17
 454 780 454 780 547 730 c 2,18,-1
 801 593 l 1,19,-1
 465 404 l 2,20,21
 408 372 408 372 361 349 c 1,22,23
 315 349 315 349 286 308 c 0,24,25
 274 292 274 292 274 271.5 c 128,-1,26
 274 251 274 251 279 234 c 128,-1,27
 284 217 284 217 294 204 c 0,28,29
 316 172 316 172 353 172 c 0,30,31
 386 172 386 172 408 185 c 2,32,-1
 444 206 l 2,33,34
 459 215 459 215 477.5 222.5 c 128,-1,35
 496 230 496 230 534 252 c 0,36,37
 956 494 956 494 1015 521 c 1,38,-1
 1013 521 l 1,0,1
1759 521 m 1,39,40
 1795 531 1795 531 1795 617 c 0,41,42
 1795 657 1795 657 1776 673 c 128,-1,43
 1757 689 1757 689 1719 699 c 1,44,-1
 1184 965 l 1,45,46
 1145 1004 1145 1004 1098 1004 c 0,47,48
 1071 1004 1071 1004 1052 980 c 0,49,50
 1021 940 1021 940 1021 912.5 c 128,-1,51
 1021 885 1021 885 1027 872 c 128,-1,52
 1033 859 1033 859 1043 850 c 128,-1,53
 1053 841 1053 841 1066 835 c 2,54,-1
 1094 823 l 1,55,56
 1200 780 1200 780 1293 730 c 2,57,-1
 1547 593 l 1,58,-1
 1211 404 l 2,59,60
 1154 372 1154 372 1107 349 c 1,61,62
 1061 349 1061 349 1032 308 c 0,63,64
 1020 292 1020 292 1020 271.5 c 128,-1,65
 1020 251 1020 251 1025 234 c 128,-1,66
 1030 217 1030 217 1040 204 c 0,67,68
 1062 172 1062 172 1099 172 c 0,69,70
 1132 172 1132 172 1154 185 c 2,71,-1
 1190 206 l 2,72,73
 1205 215 1205 215 1223.5 222.5 c 128,-1,74
 1242 230 1242 230 1280 252 c 0,75,76
 1702 494 1702 494 1761 521 c 1,77,-1
 1759 521 l 1,39,40
EndSplineSet
EndChar

StartChar: onequarter
Encoding: 188 188 145
Width: 2384
GlyphClass: 2
Flags: W
LayerCount: 2
Fore
SplineSet
669 1720 m 1,0,1
 665 1596 665 1596 665 1437 c 128,-1,2
 665 1278 665 1278 666 1138 c 2,3,-1
 668 862 l 2,4,5
 668 805 668 805 650.5 774.5 c 128,-1,6
 633 744 633 744 580 744 c 0,7,8
 477 744 477 744 477 833 c 0,9,10
 477 867 477 867 480 1018 c 128,-1,11
 483 1169 483 1169 484 1254 c 0,12,13
 486 1422 486 1422 486 1581 c 1,14,15
 441 1562 441 1562 410 1544 c 2,16,-1
 354 1511 l 2,17,18
 301 1479 301 1479 277.5 1479 c 128,-1,19
 254 1479 254 1479 237.5 1487.5 c 128,-1,20
 221 1496 221 1496 210 1510 c 0,21,22
 190 1536 190 1536 190 1566 c 128,-1,23
 190 1596 190 1596 201 1613 c 128,-1,24
 212 1630 212 1630 228 1642 c 0,25,26
 252 1659 252 1659 284 1669.5 c 128,-1,27
 316 1680 316 1680 341 1690 c 2,28,-1
 443 1731 l 2,29,30
 467 1741 467 1741 480 1746 c 1,31,-1
 480 1745 l 1,32,33
 529 1782 529 1782 586 1785 c 1,34,35
 666 1785 666 1785 669 1720 c 1,0,1
662 27 m 128,-1,37
 655 43 655 43 655 62 c 128,-1,38
 655 81 655 81 665 98 c 2,39,-1
 686 132 l 1,40,-1
 1155 1235 l 2,41,42
 1164 1257 1164 1257 1172 1282.5 c 128,-1,43
 1180 1308 1180 1308 1192 1330 c 0,44,45
 1218 1381 1218 1381 1259 1381 c 0,46,47
 1317 1381 1317 1381 1343 1337 c 0,48,49
 1352 1322 1352 1322 1352 1307 c 128,-1,50
 1352 1292 1352 1292 1348.5 1279 c 128,-1,51
 1345 1266 1345 1266 1340.5 1252.5 c 128,-1,52
 1336 1239 1336 1239 1331.5 1227 c 128,-1,53
 1327 1215 1327 1215 1324 1206 c 2,54,-1
 845 79 l 2,55,56
 838 62 838 62 833.5 43 c 128,-1,57
 829 24 829 24 821 8 c 0,58,59
 803 -30 803 -30 769.5 -30 c 128,-1,60
 736 -30 736 -30 716 -22 c 128,-1,61
 696 -14 696 -14 682.5 -1.5 c 128,-1,36
 669 11 669 11 662 27 c 128,-1,37
1825 -297 m 2,62,-1
 1824 7 l 1,63,64
 1609 7 1609 7 1381 5 c 1,65,66
 1339 -9 1339 -9 1313.5 -9 c 128,-1,67
 1288 -9 1288 -9 1270.5 -4.5 c 128,-1,68
 1253 0 1253 0 1238 10 c 1,69,70
 1205 35 1205 35 1205 72 c 128,-1,71
 1205 109 1205 109 1212.5 127 c 128,-1,72
 1220 145 1220 145 1232 156 c 0,73,74
 1251 172 1251 172 1289 175 c 1,75,76
 1498 363 1498 363 1498 792 c 0,77,78
 1498 834 1498 834 1538 859 c 0,79,80
 1572 880 1572 880 1616 880 c 128,-1,81
 1660 880 1660 880 1679.5 843 c 128,-1,82
 1699 806 1699 806 1699 728 c 0,83,84
 1699 449 1699 449 1510 167 c 1,85,-1
 1513 167 l 2,86,87
 1665 167 1665 167 1823 169 c 1,88,-1
 1823 511 l 2,89,90
 1823 552 1823 552 1844 570 c 0,91,92
 1876 599 1876 599 1911 599 c 0,93,94
 1968 599 1968 599 1992 550 c 0,95,96
 2000 533 2000 533 2000 480 c 2,97,-1
 2000 344 l 2,98,99
 2000 261 2000 261 2001 173 c 1,100,-1
 2129 176 l 1,101,102
 2189 173 2189 173 2212 120 c 0,103,104
 2219 106 2219 106 2219 93 c 128,-1,105
 2219 80 2219 80 2214.5 65 c 128,-1,106
 2210 50 2210 50 2200 38 c 0,107,108
 2176 8 2176 8 2138 8 c 2,109,-1
 2001 8 l 1,110,111
 2002 -65 2002 -65 2002 -140 c 2,112,-1
 2002 -297 l 2,113,114
 2002 -336 2002 -336 1980 -352 c 1,115,116
 1946 -379 1946 -379 1922.5 -379 c 128,-1,117
 1899 -379 1899 -379 1883.5 -374 c 128,-1,118
 1868 -369 1868 -369 1855 -359 c 0,119,120
 1825 -336 1825 -336 1825 -297 c 2,62,-1
EndSplineSet
EndChar

StartChar: onehalf
Encoding: 189 189 146
Width: 2384
GlyphClass: 2
Flags: W
LayerCount: 2
Fore
SplineSet
669 1720 m 1,0,1
 665 1596 665 1596 665 1437 c 128,-1,2
 665 1278 665 1278 666 1138 c 2,3,-1
 668 862 l 2,4,5
 668 805 668 805 650.5 774.5 c 128,-1,6
 633 744 633 744 580 744 c 0,7,8
 477 744 477 744 477 833 c 1,9,-1
 486 1562 l 1,10,-1
 486 1581 l 1,11,12
 441 1562 441 1562 410 1544 c 2,13,-1
 354 1511 l 2,14,15
 301 1479 301 1479 277.5 1479 c 128,-1,16
 254 1479 254 1479 237.5 1487.5 c 128,-1,17
 221 1496 221 1496 210 1510 c 0,18,19
 190 1536 190 1536 190 1566 c 128,-1,20
 190 1596 190 1596 201 1613 c 128,-1,21
 212 1630 212 1630 228 1642 c 0,22,23
 252 1659 252 1659 284 1669.5 c 128,-1,24
 316 1680 316 1680 341 1690 c 2,25,-1
 443 1731 l 2,26,27
 467 1741 467 1741 480 1746 c 1,28,-1
 480 1745 l 1,29,30
 529 1782 529 1782 586 1785 c 1,31,32
 666 1785 666 1785 669 1720 c 1,0,1
662 27 m 128,-1,34
 655 43 655 43 655 62 c 128,-1,35
 655 81 655 81 665 98 c 2,36,-1
 686 132 l 1,37,-1
 1155 1235 l 2,38,39
 1164 1257 1164 1257 1172 1282.5 c 128,-1,40
 1180 1308 1180 1308 1192 1330 c 0,41,42
 1218 1381 1218 1381 1259 1381 c 0,43,44
 1317 1381 1317 1381 1343 1337 c 0,45,46
 1352 1322 1352 1322 1352 1307 c 128,-1,47
 1352 1292 1352 1292 1348.5 1279 c 128,-1,48
 1345 1266 1345 1266 1340.5 1252.5 c 128,-1,49
 1336 1239 1336 1239 1331.5 1227 c 128,-1,50
 1327 1215 1327 1215 1324 1206 c 2,51,-1
 845 79 l 2,52,53
 838 62 838 62 833.5 43 c 128,-1,54
 829 24 829 24 821 8 c 0,55,56
 803 -30 803 -30 769.5 -30 c 128,-1,57
 736 -30 736 -30 716 -22 c 128,-1,58
 696 -14 696 -14 682.5 -1.5 c 128,-1,33
 669 11 669 11 662 27 c 128,-1,34
2086 158 m 1,59,-1
 2142 162 l 1,60,61
 2172 162 2172 162 2193.5 141.5 c 128,-1,62
 2215 121 2215 121 2215 88.5 c 128,-1,63
 2215 56 2215 56 2207 40.5 c 128,-1,64
 2199 25 2199 25 2186 16 c 0,65,66
 2164 0 2164 0 2132 0 c 2,67,-1
 1484 2 l 2,68,69
 1445 2 1445 2 1421 23.5 c 128,-1,70
 1397 45 1397 45 1397 68 c 0,71,72
 1397 97 1397 97 1428 141 c 1,73,-1
 1544 216 l 1,74,75
 1961 489 1961 489 1961 709 c 0,76,77
 1961 786 1961 786 1902 835 c 0,78,79
 1850 879 1850 879 1792.5 879 c 128,-1,80
 1735 879 1735 879 1698.5 868 c 128,-1,81
 1662 857 1662 857 1634 837 c 0,82,83
 1571 793 1571 793 1571 722 c 0,84,85
 1571 700 1571 700 1582 681 c 0,86,87
 1601 646 1601 646 1601 620 c 0,88,89
 1601 570 1601 570 1546 552 c 0,90,91
 1531 547 1531 547 1505 547 c 128,-1,92
 1479 547 1479 547 1454.5 567 c 128,-1,93
 1430 587 1430 587 1416 614 c 0,94,95
 1392 662 1392 662 1392 704 c 128,-1,96
 1392 746 1392 746 1399.5 771.5 c 128,-1,97
 1407 797 1407 797 1420 822 c 0,98,99
 1471 922 1471 922 1543 967 c 0,100,101
 1651 1034 1651 1034 1777 1034 c 0,102,103
 1933 1034 1933 1034 2034 949 c 0,104,105
 2141 858 2141 858 2141 707 c 0,106,107
 2141 449 2141 449 1741 158 c 1,108,-1
 2086 158 l 1,59,-1
EndSplineSet
EndChar

StartChar: threequarters
Encoding: 190 190 147
Width: 2553
GlyphClass: 2
Flags: W
LayerCount: 2
Fore
SplineSet
736 783.5 m 128,-1,1
 658 763 658 763 582.5 763 c 128,-1,2
 507 763 507 763 431 788 c 128,-1,3
 355 813 355 813 293 860 c 0,4,5
 152 965 152 965 152 1125 c 0,6,7
 152 1239 152 1239 210 1289 c 0,8,9
 230 1307 230 1307 250.5 1307 c 128,-1,10
 271 1307 271 1307 286 1303.5 c 128,-1,11
 301 1300 301 1300 315 1291 c 0,12,13
 349 1269 349 1269 349 1224 c 0,14,15
 349 1207 349 1207 340 1187 c 0,16,17
 325 1151 325 1151 325 1112 c 128,-1,18
 325 1073 325 1073 349 1035 c 128,-1,19
 373 997 373 997 410 970 c 0,20,21
 485 917 485 917 580 917 c 0,22,23
 677 917 677 917 731.5 949 c 128,-1,24
 786 981 786 981 810 1016.5 c 128,-1,25
 834 1052 834 1052 834 1103 c 128,-1,26
 834 1154 834 1154 817.5 1191.5 c 128,-1,27
 801 1229 801 1229 774 1252 c 0,28,29
 721 1297 721 1297 646 1297 c 0,30,31
 612 1297 612 1297 598 1294 c 0,32,33
 572 1287 572 1287 541.5 1287 c 128,-1,34
 511 1287 511 1287 487 1309.5 c 128,-1,35
 463 1332 463 1332 463 1356 c 0,36,37
 463 1405 463 1405 495 1437 c 2,38,-1
 695 1639 l 1,39,-1
 304 1639 l 2,40,41
 262 1639 262 1639 240 1663.5 c 128,-1,42
 218 1688 218 1688 218 1717 c 128,-1,43
 218 1746 218 1746 237 1768.5 c 128,-1,44
 256 1791 256 1791 298 1791 c 2,45,-1
 864 1791 l 2,46,47
 902 1791 902 1791 924 1768 c 128,-1,48
 946 1745 946 1745 946 1718.5 c 128,-1,49
 946 1692 946 1692 926.5 1662.5 c 128,-1,50
 907 1633 907 1633 874.5 1596 c 128,-1,51
 842 1559 842 1559 800 1516 c 2,52,-1
 711 1427 l 1,53,54
 856 1386 856 1386 912 1338.5 c 128,-1,55
 968 1291 968 1291 993.5 1238 c 128,-1,56
 1019 1185 1019 1185 1019 1102.5 c 128,-1,57
 1019 1020 1019 1020 979.5 954.5 c 128,-1,58
 940 889 940 889 877 846.5 c 128,-1,0
 814 804 814 804 736 783.5 c 128,-1,1
851 27 m 128,-1,60
 844 43 844 43 844 62 c 128,-1,61
 844 81 844 81 854 98 c 2,62,-1
 875 132 l 1,63,-1
 1344 1235 l 2,64,65
 1353 1257 1353 1257 1361 1282.5 c 128,-1,66
 1369 1308 1369 1308 1380 1330 c 0,67,68
 1407 1381 1407 1381 1448 1381 c 0,69,70
 1506 1381 1506 1381 1532 1337 c 0,71,72
 1541 1322 1541 1322 1541 1307 c 128,-1,73
 1541 1292 1541 1292 1537.5 1279 c 128,-1,74
 1534 1266 1534 1266 1529.5 1252.5 c 128,-1,75
 1525 1239 1525 1239 1520.5 1227 c 128,-1,76
 1516 1215 1516 1215 1513 1206 c 2,77,-1
 1034 79 l 2,78,79
 1027 62 1027 62 1022.5 43 c 128,-1,80
 1018 24 1018 24 1010 8 c 0,81,82
 992 -30 992 -30 958.5 -30 c 128,-1,83
 925 -30 925 -30 905 -22 c 128,-1,84
 885 -14 885 -14 871.5 -1.5 c 128,-1,59
 858 11 858 11 851 27 c 128,-1,60
1558 5 m 1,85,86
 1516 -9 1516 -9 1490.5 -9 c 128,-1,87
 1465 -9 1465 -9 1447.5 -4.5 c 128,-1,88
 1430 0 1430 0 1416 10 c 0,89,90
 1382 35 1382 35 1382 72 c 128,-1,91
 1382 109 1382 109 1389.5 127 c 128,-1,92
 1397 145 1397 145 1409 156 c 0,93,94
 1428 172 1428 172 1466 175 c 1,95,96
 1695 381 1695 381 1695 792 c 0,97,98
 1695 834 1695 834 1717 852 c 0,99,100
 1751 880 1751 880 1794 880 c 0,101,102
 1876 880 1876 880 1876 728 c 0,103,104
 1876 448 1876 448 1690 175 c 1,105,-1
 1693 175 l 1,106,-1
 1810 174 l 1,107,-1
 1941 174 l 1,108,-1
 2000 173 l 1,109,-1
 2000 511 l 2,110,111
 2000 552 2000 552 2020 570 c 0,112,113
 2054 599 2054 599 2088 599 c 0,114,115
 2145 599 2145 599 2169 550 c 0,116,117
 2177 533 2177 533 2177 480 c 2,118,-1
 2177 344 l 2,119,120
 2177 261 2177 261 2178 173 c 1,121,-1
 2306 176 l 1,122,123
 2366 173 2366 173 2390 120 c 0,124,125
 2396 106 2396 106 2396 93 c 128,-1,126
 2396 80 2396 80 2391.5 65 c 128,-1,127
 2387 50 2387 50 2377 38 c 0,128,129
 2353 8 2353 8 2315 8 c 2,130,-1
 2178 8 l 1,131,132
 2179 -64 2179 -64 2179 -140 c 2,133,-1
 2179 -297 l 2,134,135
 2179 -336 2179 -336 2158 -352 c 0,136,137
 2123 -379 2123 -379 2099.5 -379 c 128,-1,138
 2076 -379 2076 -379 2060.5 -374 c 128,-1,139
 2045 -369 2045 -369 2032 -359 c 0,140,141
 2002 -336 2002 -336 2002 -297 c 2,142,-1
 2001 10 l 1,143,-1
 1893 10 l 1,144,-1
 1798 8 l 2,145,146
 1748 7 1748 7 1702 6.5 c 128,-1,147
 1656 6 1656 6 1618 5.5 c 128,-1,148
 1580 5 1580 5 1558 5 c 1,85,86
EndSplineSet
EndChar

StartChar: questiondown
Encoding: 191 191 148
Width: 1364
GlyphClass: 2
Flags: W
LayerCount: 2
Fore
SplineSet
666 1043 m 1,0,-1
 663 1109 l 1,1,2
 663 1152 663 1152 689 1174.5 c 128,-1,3
 715 1197 715 1197 758 1197 c 0,4,5
 841 1197 841 1197 841 1045 c 0,6,7
 841 899 841 899 766 797 c 0,8,9
 737 758 737 758 697 721 c 1,10,-1
 528 571 l 1,11,12
 378 433 378 433 378 281 c 0,13,14
 378 146 378 146 482 73 c 0,15,16
 572 10 572 10 711 10 c 0,17,18
 921 10 921 10 1008 117 c 0,19,20
 1037 153 1037 153 1037 192.5 c 128,-1,21
 1037 232 1037 232 1027 253.5 c 128,-1,22
 1017 275 1017 275 1005 295 c 0,23,24
 973 347 973 347 973 379.5 c 128,-1,25
 973 412 973 412 997.5 432 c 128,-1,26
 1022 452 1022 452 1056.5 452 c 128,-1,27
 1091 452 1091 452 1120 427 c 128,-1,28
 1149 402 1149 402 1170 365 c 0,29,30
 1214 286 1214 286 1214 203.5 c 128,-1,31
 1214 121 1214 121 1171.5 53.5 c 128,-1,32
 1129 -14 1129 -14 1060 -60 c 0,33,34
 919 -153 919 -153 713 -153 c 0,35,36
 498 -153 498 -153 356 -44 c 0,37,38
 201 74 201 74 201 279 c 0,39,40
 201 499 201 499 410 694 c 1,41,42
 449 732 449 732 494 767 c 128,-1,43
 539 802 539 802 578 842 c 0,44,45
 666 934 666 934 666 1043 c 1,0,-1
674 1443 m 1,46,-1
 675 1466 l 1,47,48
 689 1644 689 1644 783 1644 c 0,49,50
 827 1644 827 1644 852 1611 c 0,51,52
 870 1586 870 1586 870 1557.5 c 128,-1,53
 870 1529 870 1529 863 1477 c 1,54,55
 849 1387 849 1387 810 1369 c 0,56,57
 795 1361 795 1361 779.5 1361 c 128,-1,58
 764 1361 764 1361 742.5 1363 c 128,-1,59
 721 1365 721 1365 704 1379 c 0,60,61
 674 1405 674 1405 674 1443 c 1,46,-1
EndSplineSet
EndChar

StartChar: Agrave
Encoding: 192 192 149
Width: 1538
GlyphClass: 2
Flags: W
LayerCount: 2
Fore
SplineSet
1121 505 m 1,0,-1
 764 513 l 1,1,2
 657 513 657 513 555.5 509 c 128,-1,3
 454 505 454 505 426 504 c 1,4,-1
 334 280 l 2,5,6
 268 118 268 118 261.5 86 c 128,-1,7
 255 54 255 54 244 36 c 0,8,9
 217 -7 217 -7 161 -7 c 0,10,11
 43 -7 43 -7 43 71 c 0,12,13
 43 134 43 134 84 187 c 1,14,15
 110 224 110 224 164 341 c 1,16,-1
 602 1326 l 1,17,-1
 669 1466 l 1,18,19
 685 1552 685 1552 759 1552 c 0,20,21
 812 1552 812 1552 832.5 1531.5 c 128,-1,22
 853 1511 853 1511 862.5 1487 c 128,-1,23
 872 1463 872 1463 882 1431.5 c 128,-1,24
 892 1400 892 1400 918 1352 c 1,25,26
 918 1352 918 1352 1050 1088 c 1,27,28
 1050 1088 1050 1088 1463 222 c 0,29,30
 1472 204 1472 204 1484.5 187 c 128,-1,31
 1497 170 1497 170 1508 152 c 0,32,33
 1537 109 1537 109 1537 68.5 c 128,-1,34
 1537 28 1537 28 1510 8 c 128,-1,35
 1483 -12 1483 -12 1441.5 -12 c 128,-1,36
 1400 -12 1400 -12 1372 14.5 c 128,-1,37
 1344 41 1344 41 1340 79 c 1,38,-1
 1134 505 l 1,39,-1
 1121 505 l 1,0,-1
735 1331 m 1,40,41
 732 1325 732 1325 737 1325 c 1,42,-1
 735 1331 l 1,40,41
844 667 m 1,43,-1
 982 668 l 1,44,-1
 1056 668 l 1,45,-1
 761 1276 l 1,46,-1
 497 672 l 1,47,48
 537 672 537 672 570 671 c 2,49,-1
 634 669 l 2,50,51
 696 667 696 667 751 667 c 2,52,-1
 844 667 l 1,43,-1
900.5 1636 m 128,-1,54
 875 1611 875 1611 841.5 1611 c 128,-1,55
 808 1611 808 1611 794 1616 c 128,-1,56
 780 1621 780 1621 764.5 1635.5 c 128,-1,57
 749 1650 749 1650 725 1676.5 c 128,-1,58
 701 1703 701 1703 663.5 1739 c 128,-1,59
 626 1775 626 1775 593 1804 c 2,60,-1
 534 1855 l 2,61,62
 489 1895 489 1895 489 1943 c 0,63,64
 489 1989 489 1989 537 2013 c 0,65,66
 551 2020 551 2020 569 2020 c 0,67,68
 613 2020 613 2020 663 1972 c 2,69,-1
 761 1878 l 2,70,71
 810 1831 810 1831 858 1790 c 1,72,73
 898 1770 898 1770 912 1745.5 c 128,-1,74
 926 1721 926 1721 926 1691 c 128,-1,53
 926 1661 926 1661 900.5 1636 c 128,-1,54
EndSplineSet
EndChar

StartChar: Aacute
Encoding: 193 193 150
Width: 1538
GlyphClass: 2
Flags: W
LayerCount: 2
Fore
SplineSet
1121 505 m 1,0,-1
 764 513 l 1,1,2
 657 513 657 513 555.5 509 c 128,-1,3
 454 505 454 505 426 504 c 1,4,-1
 334 280 l 2,5,6
 268 118 268 118 261.5 86 c 128,-1,7
 255 54 255 54 244 36 c 0,8,9
 217 -7 217 -7 161 -7 c 0,10,11
 43 -7 43 -7 43 71 c 0,12,13
 43 134 43 134 84 187 c 1,14,15
 110 224 110 224 164 341 c 1,16,-1
 602 1326 l 1,17,-1
 669 1466 l 1,18,19
 685 1552 685 1552 759 1552 c 0,20,21
 812 1552 812 1552 832.5 1531.5 c 128,-1,22
 853 1511 853 1511 862.5 1487 c 128,-1,23
 872 1463 872 1463 882 1431.5 c 128,-1,24
 892 1400 892 1400 918 1352 c 1,25,26
 918 1352 918 1352 1050 1088 c 1,27,28
 1050 1088 1050 1088 1463 222 c 0,29,30
 1472 204 1472 204 1484.5 187 c 128,-1,31
 1497 170 1497 170 1508 152 c 0,32,33
 1537 109 1537 109 1537 68.5 c 128,-1,34
 1537 28 1537 28 1510 8 c 128,-1,35
 1483 -12 1483 -12 1441.5 -12 c 128,-1,36
 1400 -12 1400 -12 1372 14.5 c 128,-1,37
 1344 41 1344 41 1340 79 c 1,38,-1
 1134 505 l 1,39,-1
 1121 505 l 1,0,-1
735 1331 m 1,40,41
 732 1325 732 1325 737 1325 c 1,42,-1
 735 1331 l 1,40,41
844 667 m 1,43,-1
 982 668 l 1,44,-1
 1056 668 l 1,45,-1
 761 1276 l 1,46,-1
 497 672 l 1,47,48
 537 672 537 672 570 671 c 2,49,-1
 634 669 l 2,50,51
 696 667 696 667 751 667 c 2,52,-1
 844 667 l 1,43,-1
904 1751 m 2,53,-1
 802 1654 l 2,54,55
 752 1606 752 1606 707 1606 c 0,56,57
 676 1606 676 1606 657 1624 c 0,58,59
 625 1654 625 1654 625 1682 c 0,60,61
 625 1731 625 1731 660 1762 c 2,62,-1
 718 1813 l 2,63,64
 785 1871 785 1871 828.5 1918.5 c 128,-1,65
 872 1966 872 1966 891 1984 c 0,66,67
 929 2020 929 2020 971.5 2020 c 128,-1,68
 1014 2020 1014 2020 1043 1995 c 128,-1,69
 1072 1970 1072 1970 1072 1924 c 0,70,71
 1072 1875 1072 1875 1004 1841 c 1,72,73
 956 1800 956 1800 904 1751 c 2,53,-1
EndSplineSet
EndChar

